<svg width="20" height="23" viewBox="0 0 20 23" fill="none" xmlns="http://www.w3.org/2000/svg">
<path d="M0.0722601 17.03C0.17226 17.21 0.36226 17.31 0.56226 17.31C0.65226 17.31 0.75226 17.29 0.83226 17.24L5.08226 14.86L4.28226 17.69C4.20226 17.99 4.37226 18.29 4.66226 18.38C4.71226 18.39 4.76226 18.4 4.81226 18.4C5.05226 18.4 5.28226 18.24 5.35226 17.99L6.45226 14.09L9.14226 12.37V15.99L6.63226 19.03C6.42226 19.25 6.43226 19.61 6.65226 19.82C6.76226 19.92 6.90226 19.97 7.03226 19.97C7.18226 19.97 7.33226 19.91 7.43226 19.8L9.13226 17.61V22.14C9.50226 22.45 9.75226 22.7 10.0623 22.7C10.3723 22.7 10.6223 22.45 10.1323 22.14V17.72L12.6923 19.8C12.9123 20.02 13.2623 20.02 13.4823 19.8C13.7023 19.58 13.7023 19.23 13.4823 19.01L10.1323 16.14V12.31L13.8023 14.12L15.0223 18.13C15.0923 18.37 15.3123 18.52 15.5523 18.52C15.6023 18.52 15.6623 18.52 15.7123 18.5C16.0023 18.41 16.1723 18.1 16.0823 17.8L15.2023 14.92L19.1423 17.16C19.2323 17.21 19.3223 17.23 19.4123 17.23C19.6023 17.23 19.7923 17.13 19.8923 16.95C20.0423 16.68 19.9523 16.34 19.6823 16.19L15.8423 14.01L18.6823 13.23C18.9823 13.15 19.1523 12.84 19.0723 12.55C18.9923 12.25 18.6823 12.08 18.3923 12.16L14.4823 13.24L11.2323 11.39L14.2723 9.69L18.3323 10.71C18.3323 10.71 18.4223 10.73 18.4723 10.73C18.7223 10.73 18.9523 10.56 19.0123 10.31C19.0923 10.01 18.9023 9.71 18.6123 9.63L15.6923 8.89L19.6523 6.67C19.9223 6.52 20.0123 6.18 19.8623 5.91C19.7123 5.64 19.3723 5.55 19.1023 5.7L15.2523 7.86L16.0523 5.03C16.1323 4.73 15.9623 4.43 15.6723 4.34C15.3723 4.26 15.0723 4.43 14.9823 4.72L13.8823 8.62L10.1323 10.45V7.15L13.4923 4.11C13.7023 3.89 13.6923 3.53 13.4723 3.32C13.2523 3.11 12.8923 3.12 12.6823 3.34L10.1323 5.53V0.56C10.6123 0.25 10.3723 0 10.0623 0C9.75226 0 9.50226 0.25 9.13226 0.56V5.43L7.42226 3.35C7.20226 3.13 6.85226 3.13 6.63226 3.35C6.41226 3.57 6.41226 3.92 6.63226 4.14L9.13226 7.01V10.42L6.68226 8.82L5.46226 4.81C5.37226 4.52 5.06226 4.35 4.76226 4.44C4.47226 4.53 4.30226 4.84 4.39226 5.14L5.27226 8.02L0.95226 5.54C0.68226 5.39 0.34226 5.48 0.19226 5.75C0.0422601 6.02 0.13226 6.36 0.40226 6.51L4.64226 8.92L1.80226 9.7C1.50226 9.78 1.33226 10.09 1.41226 10.38C1.48226 10.63 1.70226 10.79 1.95226 10.79C2.00226 10.79 2.05226 10.79 2.10226 10.77L6.01226 9.69L8.99226 11.39L6.06226 13.03L2.00226 12.01C1.70226 11.93 1.40226 12.12 1.32226 12.41C1.24226 12.71 1.43226 13.01 1.72226 13.09L4.64226 13.83L0.28226 16.27C0.0122601 16.42 -0.0777399 16.76 0.0722601 17.03Z" fill="white"/>
</svg>
