<svg width="24" height="24" viewBox="0 0 24 24" fill="none" xmlns="http://www.w3.org/2000/svg">
<path d="M4 10.5294C4 6.98001 4 5.20531 5.17157 4.10266C6.34315 3 8.22876 3 12 3H12.7273C15.7966 3 17.3313 3 18.3971 3.7509C18.7025 3.96605 18.9736 4.2212 19.2022 4.5086C20 5.51169 20 6.9561 20 9.84492V12.2406C20 15.0295 20 16.4239 19.5586 17.5376C18.8491 19.3281 17.3486 20.7403 15.4462 21.4081C14.2629 21.8235 12.7814 21.8235 9.81818 21.8235C8.12494 21.8235 7.27832 21.8235 6.60214 21.5862C5.5151 21.2046 4.65765 20.3976 4.2522 19.3745C4 18.7381 4 17.9412 4 16.3476V10.5294Z" fill="white" stroke="#141B34" stroke-width="1.5" stroke-linejoin="round"/>
<path d="M19.9993 12.4117C19.9993 14.1444 18.5947 15.549 16.862 15.549C16.2354 15.549 15.4966 15.4392 14.8874 15.6024C14.3461 15.7475 13.9232 16.1703 13.7782 16.7116C13.615 17.3209 13.7247 18.0596 13.7247 18.6863C13.7247 20.4189 12.3202 21.8235 10.5875 21.8235" stroke="#141B34" stroke-width="1.5" stroke-linecap="round" stroke-linejoin="round"/>
<path d="M8.23334 7.70599H14.8216" stroke="#141B34" stroke-width="1.5" stroke-linecap="round" stroke-linejoin="round"/>
<path d="M8.23334 11.4706H11.0569" stroke="#141B34" stroke-width="1.5" stroke-linecap="round" stroke-linejoin="round"/>
</svg>
