<svg width="16" height="18" viewBox="0 0 16 18" fill="none" xmlns="http://www.w3.org/2000/svg">
<path d="M13.5815 3.47217L13.2689 8.53256M1.91479 3.47217L2.38505 11.2692C2.50548 13.2661 2.5657 14.2645 3.06488 14.9825C3.31168 15.3375 3.62964 15.6371 3.9985 15.8623C4.52062 16.181 5.16674 16.2767 6.19257 16.3055" stroke="#525969" stroke-width="1.5" stroke-linecap="round"/>
<path d="M13.9746 10.8611L8.53015 16.3052M13.9746 16.3056L8.53015 10.8615" stroke="#525969" stroke-width="1.5" stroke-linecap="round" stroke-linejoin="round"/>
<path d="M0.75 3.47221H14.75M10.9045 3.47221L10.3735 2.37689C10.0208 1.64931 9.84443 1.28551 9.54022 1.05863C9.47274 1.0083 9.40129 0.963532 9.32657 0.924767C8.98971 0.75 8.58543 0.75 7.77686 0.75C6.94798 0.75 6.53354 0.75 6.19109 0.932092C6.11519 0.97245 6.04276 1.01903 5.97456 1.07135C5.66683 1.30743 5.49493 1.68454 5.15114 2.43875L4.68005 3.47221" stroke="#525969" stroke-width="1.5" stroke-linecap="round"/>
</svg>
