<svg width="14" height="14" viewBox="0 0 14 14" fill="none" xmlns="http://www.w3.org/2000/svg">
<path d="M12.1955 3.321L10.1815 1.305C9.82533 0.949595 9.3427 0.75 8.83952 0.75C8.33635 0.75 7.85372 0.949595 7.49752 1.305L2.18352 6.621C1.92832 6.87617 1.75107 7.19876 1.67252 7.551L0.772522 11.595C0.73796 11.7508 0.743248 11.9128 0.787896 12.066C0.832543 12.2192 0.915109 12.3587 1.02796 12.4716C1.1408 12.5844 1.28029 12.667 1.4335 12.7116C1.58672 12.7563 1.74872 12.7616 1.90452 12.727L5.94852 11.827C6.30076 11.7484 6.62334 11.5712 6.87852 11.316L12.1925 6.003C12.5477 5.64728 12.7475 5.1653 12.748 4.66262C12.7486 4.15993 12.5499 3.67751 12.1955 3.321Z" stroke="#525969" stroke-width="1.5"/>
<path d="M5.75256 2.74902L10.7526 7.74902" stroke="#525969" stroke-width="1.5"/>
</svg>
