<svg width="18" height="18" viewBox="0 0 18 18" fill="none" xmlns="http://www.w3.org/2000/svg">
<rect x="0.5" y="0.5" width="17" height="17" rx="8.5" fill="white"/>
<rect x="0.5" y="0.5" width="17" height="17" rx="8.5" stroke="#6A7E96"/>
<path d="M9.20166 4.90283C11.274 5.00588 13.0037 6.67089 13.9741 7.84619C14.3759 8.33283 14.5766 8.57701 14.5767 9.00049L14.5679 9.15088C14.524 9.48806 14.3257 9.72795 13.9741 10.1538L13.7769 10.3872C12.7448 11.5774 11.0268 13.1017 9.00049 13.1021L8.79834 13.0972C6.85961 13.0008 5.22092 11.5378 4.22314 10.3872L4.02686 10.1538C3.62494 9.66704 3.42348 9.42393 3.42334 9.00049C3.4234 8.68295 3.53628 8.46589 3.76221 8.17236L4.02686 7.84619C5.0287 6.63294 6.83902 4.89795 9.00049 4.89795L9.20166 4.90283ZM9.00049 6.39795C8.32612 6.39795 7.62712 6.67087 6.93018 7.15186C6.23641 7.6308 5.63322 8.25616 5.18311 8.80127C5.11707 8.88124 5.06476 8.94519 5.021 8.99951C5.0649 9.05402 5.11672 9.11833 5.18311 9.19873C5.63332 9.744 6.23614 10.3701 6.93018 10.8491C7.62718 11.3302 8.32606 11.6021 9.00049 11.6021C9.67466 11.6018 10.3731 11.33 11.0698 10.8491C11.7637 10.3701 12.3668 9.7439 12.8169 9.19873C12.883 9.11869 12.9343 9.05385 12.978 8.99951C12.9343 8.94524 12.8828 8.88113 12.8169 8.80127C12.3667 8.25607 11.7638 7.63091 11.0698 7.15186C10.373 6.67087 9.67476 6.39816 9.00049 6.39795ZM9.00049 8.00049C9.55274 8.00049 10.0004 8.44825 10.0005 9.00049C10.0005 9.55277 9.55277 10.0005 9.00049 10.0005H8.99072C8.43855 10.0004 7.99072 9.55269 7.99072 9.00049C7.99077 8.44833 8.43858 8.00062 8.99072 8.00049H9.00049Z" fill="#6A7E96"/>
</svg>
