<svg width="22" height="23" viewBox="0 0 22 23" fill="none" xmlns="http://www.w3.org/2000/svg">
<path fill-rule="evenodd" clip-rule="evenodd" d="M0 8.60999C0 8.19577 0.335786 7.85999 0.75 7.85999H17.75C18.1642 7.85999 18.5 8.19577 18.5 8.60999V9.55999C18.5 11.6729 18.1764 14.1096 16.9283 16.0376C15.6428 18.0234 13.4483 19.36 9.98 19.36H8.52C5.05166 19.36 2.85718 18.0234 1.57166 16.0376C0.323575 14.1096 0 11.6729 0 9.55999V8.60999ZM1.5 9.35999V9.55999C1.5 11.5671 1.81643 13.6554 2.83084 15.2224C3.80782 16.7316 5.49834 17.86 8.52 17.86H9.98C13.0017 17.86 14.6922 16.7316 15.6692 15.2224C16.6836 13.6554 17 11.5671 17 9.55999V9.35999H1.5Z" fill="white"/>
<path fill-rule="evenodd" clip-rule="evenodd" d="M18.7955 11.2683C18.6535 11.383 18.534 11.589 18.471 11.8131C18.3589 12.2118 17.9447 12.4441 17.546 12.332C17.1472 12.2198 16.9149 11.8057 17.0271 11.4069C17.144 10.991 17.3946 10.472 17.8526 10.1017C18.348 9.70127 19.0176 9.53353 19.7958 9.75907C20.4679 9.94987 20.9938 10.4066 21.2744 11.0379C21.5508 11.6598 21.5677 12.3969 21.3493 13.1491L21.3492 13.1496C20.9884 14.3895 20.1342 14.9987 19.1854 15.5063C18.9143 15.6513 18.6369 15.7885 18.3498 15.9304C17.611 16.2958 16.8085 16.6926 15.8884 17.335C15.5487 17.5721 15.0812 17.489 14.8441 17.1493C14.607 16.8097 14.6901 16.3421 15.0297 16.105C16.0507 15.3923 17.0092 14.9183 17.7692 14.5425C18.0307 14.4132 18.2688 14.2955 18.4777 14.1837C19.3139 13.7363 19.7197 13.3806 19.9089 12.7304C20.0504 12.2429 20.0073 11.8801 19.9037 11.6471C19.8046 11.4242 19.6316 11.2714 19.3851 11.2017L19.3795 11.2002L19.3796 11.2002C19.0589 11.1069 18.8995 11.1842 18.7955 11.2683Z" fill="white"/>
<path fill-rule="evenodd" clip-rule="evenodd" d="M2 21.61C2 21.1958 2.33579 20.86 2.75 20.86H15.75C16.1642 20.86 16.5 21.1958 16.5 21.61C16.5 22.0242 16.1642 22.36 15.75 22.36H2.75C2.33579 22.36 2 22.0242 2 21.61Z" fill="white"/>
<path fill-rule="evenodd" clip-rule="evenodd" d="M6.80894 0.20874C7.10787 0.495469 7.11776 0.97024 6.83103 1.26917C6.178 1.94999 6.09537 2.31616 6.0957 2.47875C6.09607 2.65386 6.18176 2.82454 6.45111 3.19018C6.46967 3.21536 6.48957 3.24199 6.51052 3.27002C6.74045 3.57766 7.09706 4.05479 7.19116 4.65934C7.3039 5.38368 7.03867 6.12165 6.39622 6.92752C6.13802 7.25141 5.66614 7.30466 5.34225 7.04645C5.01836 6.78825 4.96511 6.31637 5.22332 5.99248C5.72087 5.36836 5.73313 5.04507 5.709 4.89004C5.6748 4.6703 5.53876 4.48074 5.24342 4.07983L5.23982 4.07493C4.99144 3.73777 4.59721 3.20265 4.59571 2.48188C4.59417 1.74509 4.99154 1.02002 5.74851 0.230832C6.03524 -0.0680982 6.51001 -0.0779892 6.80894 0.20874Z" fill="white"/>
<path fill-rule="evenodd" clip-rule="evenodd" d="M9.89878 0.20874C10.1977 0.495469 10.2076 0.97024 9.92087 1.26917C9.26785 1.94999 9.18521 2.31616 9.18555 2.47875C9.18591 2.65386 9.27161 2.82454 9.54096 3.19018C9.55951 3.21536 9.57941 3.24199 9.60037 3.27002C9.8303 3.57766 10.1869 4.05479 10.281 4.65934C10.3937 5.38368 10.1285 6.12165 9.48606 6.92752C9.22786 7.25141 8.75598 7.30466 8.43209 7.04645C8.1082 6.78825 8.05496 6.31637 8.31316 5.99248C8.81071 5.36836 8.82298 5.04507 8.79885 4.89004C8.76465 4.6703 8.6286 4.48074 8.33327 4.07983L8.32966 4.07493C8.08128 3.73778 7.68705 3.20265 7.68555 2.48188C7.68402 1.74509 8.08138 1.02002 8.83835 0.230832C9.12508 -0.0680982 9.59985 -0.0779892 9.89878 0.20874Z" fill="white"/>
<path fill-rule="evenodd" clip-rule="evenodd" d="M12.9984 0.20874C13.2973 0.495469 13.3072 0.97024 13.0205 1.26917C12.3675 1.94999 12.2848 2.31616 12.2852 2.47875C12.2855 2.65386 12.3712 2.82454 12.6406 3.19018C12.6591 3.21536 12.679 3.24199 12.7 3.27002C12.9299 3.57766 13.2865 4.05479 13.3806 4.65934C13.4934 5.38368 13.2281 6.12165 12.5857 6.92752C12.3275 7.25141 11.8556 7.30466 11.5317 7.04645C11.2078 6.78825 11.1546 6.31637 11.4128 5.99248C11.9103 5.36836 11.9226 5.04507 11.8985 4.89004C11.8643 4.6703 11.7282 4.48074 11.4329 4.07983L11.4293 4.07493C11.1809 3.73777 10.7867 3.20265 10.7852 2.48188C10.7836 1.74509 11.181 1.02002 11.938 0.230832C12.2247 -0.0680982 12.6995 -0.0779892 12.9984 0.20874Z" fill="white"/>
</svg>
