<svg width="89" height="89" viewBox="0 0 89 89" fill="none" xmlns="http://www.w3.org/2000/svg">
<g clip-path="url(#clip0_2398_1063)">
<path d="M88.3787 23.6269C88.1828 23.0727 86.7891 20.2896 86.5358 22.1244C86.3534 23.4534 86.645 24.5617 86.0089 25.9122C85.768 26.4235 85.4708 26.8324 85.1319 27.168C84.793 27.5037 84.4136 27.765 84.0061 27.9812C82.4896 28.7843 80.6051 28.9476 79.1269 29.941C77.9583 30.7272 77.1275 31.9323 76.7098 33.2704C76.6918 33.3301 76.6377 33.3684 76.5781 33.3684C76.2189 33.3661 76.0107 32.991 75.6831 32.8232C74.2297 32.0754 72.7481 31.8636 71.1157 32.0348C68.5061 32.3074 66.8703 34.4158 64.1177 32.3986C63.8948 32.2353 62.0552 30.1133 61.8672 30.8939C61.6533 31.7836 62.0733 33.0496 62.3997 33.8662C62.7746 34.7932 63.3026 35.6976 63.9905 36.4207C64.9598 37.4422 66.0631 38.3365 67.2621 39.0776C67.646 39.3142 68.0378 39.5214 68.434 39.7095C68.6051 39.7906 68.7774 39.8694 68.9496 39.9449C69.7456 40.2963 70.5562 40.6027 71.3622 40.9699C72.0951 41.3044 72.8292 41.6366 73.562 41.97C73.9392 42.1423 74.3152 42.318 74.6946 42.4859C74.9085 42.5794 75.2586 42.6165 75.3521 42.8587C75.3892 42.9544 75.3904 43.0592 75.3667 43.1605C74.6214 44.4716 73.5801 45.5438 72.2854 46.3322C71.2778 46.9438 70.1835 47.2648 69.0712 47.6095C67.0403 48.2402 65.0364 48.7279 62.8917 48.6299C60.4105 48.5173 57.856 47.7322 55.413 47.2862C52.7077 46.7929 49.9946 46.2748 47.3737 45.4255C42.6138 43.8825 37.8607 41.5792 33.1256 40.1927C31.5314 39.7264 29.5252 39.5349 28.055 38.8997C27.4358 38.6316 26.8627 38.1214 26.2571 37.8398C24.4862 37.0187 22.5307 37.3172 20.583 36.8915C16.2104 35.9352 8.93661 32.5923 4.58539 33.7941C3.58006 34.0712 2.89107 35.0342 2.54882 35.1344C1.99155 35.2966 1.57838 35.024 0.882638 35.416C-0.672093 36.2911 0.206032 39.6802 0.690126 41.0735C1.78891 44.2362 3.85137 45.6947 5.95324 48.0206C9.31376 51.7385 12.3602 55.6874 16.2138 58.9312C17.8822 60.3357 19.625 61.5566 21.4544 62.6525C21.3542 62.7764 21.2585 62.9037 21.1932 63.0467C21.0131 63.4409 21.0705 63.8813 21.0142 64.2947C20.9444 64.8105 20.6877 65.2182 20.4513 65.6643C19.9706 66.5687 20.3826 67.3414 20.6517 68.257C20.9748 69.3575 20.9309 70.3903 20.6832 71.4986C20.4209 72.6801 20.8217 73.2748 21.2698 74.3256C21.5433 74.971 21.6627 75.6716 21.7527 76.3631C21.845 77.0795 22.0432 77.7811 22.2143 78.4862C22.3517 79.0516 22.6714 79.4053 22.9675 79.8941C23.2309 80.3289 23.4684 80.7783 23.7274 81.2141C24.2284 82.0589 24.8262 82.8991 25.7324 83.3406C26.4507 83.6898 27.241 83.6154 27.7082 82.9014C28.1844 82.1771 27.7679 81.1173 27.8275 80.2906C27.9052 79.2363 27.742 78.199 27.7465 77.1515C27.7499 76.2009 27.9458 75.4012 28.1394 74.481C28.3308 73.5721 28.5334 72.7127 28.8464 71.8353C29.1526 70.9771 29.5241 70.218 29.5275 69.309C29.5309 68.3764 29.2551 67.5982 28.9162 66.7444C28.7935 66.4369 28.6708 66.1294 28.5694 65.8141L32.4568 67.1059C32.87 67.9282 33.6018 68.5769 34.2851 69.3597C35.564 70.8262 36.2328 72.4492 36.6403 74.3335C37.0749 76.3428 38.1174 76.9736 39.555 78.2756C40.4376 79.0753 41.121 80.0709 41.7503 81.0745C42.4033 82.1118 43.2071 83.0534 43.9726 84.0175C44.5873 84.7913 45.3326 85.1101 46.1364 85.6529C46.8513 86.135 47.5381 86.6587 48.2473 87.1476C49.6208 88.0925 51.1417 88.9621 52.853 88.997C54.2084 89.024 55.3736 88.3471 55.5875 86.9122C55.8048 85.4558 54.4077 84.1189 53.9135 82.8011C53.2819 81.1218 52.2923 79.6384 51.5527 78.0188C50.8817 76.5523 50.6137 75.1794 50.2591 73.6217C49.9079 72.0843 49.6073 70.6144 49.4654 69.0387C49.426 68.5994 49.4001 68.1692 49.3697 67.7457C57.3032 66.6532 64.9148 62.9138 70.8174 57.5728C71.3465 57.0942 71.852 56.5907 72.3518 56.0805C73.2964 55.1175 74.2206 54.1398 75.2294 53.2512C76.5319 52.1023 77.6431 50.6809 78.4401 49.1356C79.3948 47.2806 79.8755 45.2149 80.1502 43.1583C80.2606 42.3338 80.2561 41.5623 80.7863 40.8809C81.2378 40.2997 81.8637 39.8672 82.4683 39.4606C83.2507 38.9346 84.1468 38.4649 84.7773 37.7475C85.5575 36.8588 86.2701 35.8654 86.8769 34.801C88.8088 31.4221 89.6891 27.3358 88.3798 23.6269H88.3787ZM32.163 66.2049C30.9055 65.8479 29.5725 65.3895 28.4096 64.9479C27.6226 64.6495 26.9134 64.3589 26.3572 64.1133C24.744 63.4004 23.2906 62.6345 21.9531 61.8168C16.0618 58.2171 12.4221 53.6161 7.38188 48.1501C5.04472 45.6159 2.48015 43.771 1.33859 40.2941C0.85787 38.8276 -0.0146251 35.9814 2.29327 35.9904C4.31295 35.9983 9.52991 38.0324 11.6318 38.831C14.6928 39.9922 19.9379 41.9328 22.0556 44.3826C23.4189 45.9617 23.6925 47.8032 24.6933 49.5377C25.6424 51.1833 27.0237 52.6238 28.5706 53.7141C29.281 54.2142 29.9992 54.3673 30.5441 55.0927C31 55.7009 31.2691 56.4465 31.4042 57.1899C31.6136 58.341 31.5371 59.5225 31.5675 60.6916C31.5911 61.6197 31.7194 62.4993 32.0155 63.3801C32.2677 64.1291 32.1743 64.7013 32.1292 65.5032C32.1157 65.7532 32.1292 65.9853 32.1641 66.2038L32.163 66.2049ZM60.5298 63.3137C56.9779 65.0594 53.1569 66.2612 49.2763 66.7658C49.1862 66.0495 49.0342 65.3512 48.7179 64.6596C48.0593 63.2179 47.081 62.2155 45.9496 61.1399C45.7976 60.9946 45.6456 60.8493 45.4947 60.704C48.039 61.1061 50.6047 61.6918 53.0905 61.9215C53.5847 61.9677 54.0249 61.9914 54.4223 61.9959C57.2053 62.024 57.9055 61.0768 60.6806 59.7737C62.4054 58.9638 63.9241 58.9019 65.6882 58.4176C67.2958 57.9749 68.6277 57.1246 70.1655 56.5974C67.3645 59.2792 64.0817 61.5679 60.5298 63.3137Z" fill="#444444"/>
</g>
<g clip-path="url(#clip1_2398_1063)">
<path d="M54.2295 25.9064L53.7292 26.5591L54.3839 26.0604L54.5765 27.4991L54.769 26.0604L55.4237 26.5591L54.9234 25.9064L56.3667 25.7145L54.9234 25.5226L55.4237 24.8699L54.769 25.3686L54.5765 23.9299L54.3839 25.3686L53.7292 24.8699L54.2295 25.5226L52.7863 25.7145L54.2295 25.9064Z" fill="#444444"/>
<path d="M47.9229 28.9L47.2162 29.8227L48.1419 29.1171L48.4139 31.15L48.686 29.1171L49.6128 29.8227L48.905 28.9L50.9442 28.6276L48.905 28.3564L49.6128 27.4336L48.686 28.1392L48.4139 26.1052L48.1419 28.1392L47.2162 27.4336L47.9229 28.3564L45.8837 28.6276L47.9229 28.9Z" fill="#444444"/>
<path d="M42.7137 23.6506L41.8226 24.8124L42.988 23.9241L43.3315 26.4856L43.6751 23.9241L44.8416 24.8124L43.9494 23.6506L46.5189 23.3082L43.9494 22.9657L44.8416 21.8028L43.6751 22.6922L43.3315 20.1308L42.988 22.6922L41.8226 21.8028L42.7137 22.9657L40.1442 23.3082L42.7137 23.6506Z" fill="#444444"/>
<path d="M14.9661 19.508L14.4059 20.24L15.139 19.6815L15.3557 21.2926L15.5713 19.6815L16.3056 20.24L15.7442 19.508L17.3603 19.2931L15.7442 19.0782L16.3056 18.3462L15.5713 18.9058L15.3557 17.2935L15.139 18.9058L14.4059 18.3462L14.9661 19.0782L13.35 19.2931L14.9661 19.508Z" fill="#444444"/>
<path d="M20.7183 10.9755L19.9437 11.9856L20.9569 11.2134L21.2555 13.4393L21.5529 11.2134L22.5673 11.9856L21.7927 10.9755L24.0255 10.6779L21.7927 10.3803L22.5673 9.37016L21.5529 10.1424L21.2555 7.91649L20.9569 10.1424L19.9437 9.37016L20.7183 10.3803L18.4855 10.6779L20.7183 10.9755Z" fill="#444444"/>
<path d="M30.044 5.30333L28.701 7.05578L30.4578 5.71702L30.9754 9.57586L31.4918 5.71702L33.2497 7.05578L31.9068 5.30333L35.7777 4.78851L31.9068 4.27254L33.2497 2.52009L31.4918 3.85884L30.9754 0L30.4578 3.85884L28.701 2.52009L30.044 4.27254L26.1719 4.78851L30.044 5.30333Z" fill="#444444"/>
<path d="M29.4733 20.1607L27.4445 22.806L30.0981 20.7835L30.8797 26.612L31.6612 20.7835L34.3148 22.806L32.286 20.1607L38.1327 19.3816L32.286 18.6024L34.3148 15.9571L31.6612 17.9796L30.8797 12.1511L30.0981 17.9796L27.4445 15.9571L29.4733 18.6024L23.6266 19.3816L29.4733 20.1607Z" fill="#444444"/>
</g>
<defs>
<clipPath id="clip0_2398_1063">
<rect width="89" height="67.1698" fill="white" transform="translate(0 21.5083)"/>
</clipPath>
<clipPath id="clip1_2398_1063">
<rect width="43.0167" height="31.15" fill="white" transform="translate(13.35)"/>
</clipPath>
</defs>
</svg>
