<svg width="24" height="24" viewBox="0 0 24 24" fill="none" xmlns="http://www.w3.org/2000/svg">
<path d="M13.4697 15.3934C13.7626 15.1008 14.2374 15.1008 14.5303 15.3934C14.8231 15.6863 14.823 16.1611 14.5303 16.454L12.5303 18.454C12.2557 18.7286 11.8209 18.746 11.5264 18.5057L11.4697 18.454L9.46973 16.454C9.17702 16.1611 9.17689 15.6863 9.46973 15.3934C9.76257 15.1008 10.2374 15.1008 10.5303 15.3934L12 16.8632L13.4697 15.3934ZM18 13.7499H8V12.2499H18V13.7499ZM16 10.7509H6V9.25085H16V10.7509ZM11.5957 4.37C11.8821 4.18634 12.2653 4.21723 12.5195 4.46179L14.5195 6.38562C14.8179 6.6728 14.8272 7.14771 14.54 7.44617C14.253 7.74394 13.7788 7.75313 13.4805 7.46667L12 6.04089L10.5195 7.46667C10.2212 7.75313 9.74701 7.74394 9.45996 7.44617C9.17284 7.14771 9.18211 6.6728 9.48047 6.38562L11.4805 4.46179L11.5957 4.37Z" fill="#4E637E"/>
</svg>
