<svg width="60" height="60" viewBox="0 0 60 60" fill="none" xmlns="http://www.w3.org/2000/svg">
<g clip-path="url(#clip0_23_211)">
<path d="M47.3018 38.3962C46.2651 38.7476 45.3672 39.3146 44.2834 39.6097C43.0941 39.9327 42.0703 39.974 40.9076 40.5139C39.0367 41.3828 38.5646 42.0143 36.6885 41.9956C36.4205 41.9926 36.1238 41.9768 35.7906 41.946C34.1148 41.7928 32.3851 41.4023 30.6699 41.1342C30.7716 41.2311 30.874 41.328 30.9765 41.4248C31.7392 42.142 32.3988 42.8104 32.8428 43.7716C33.0561 44.2327 33.1585 44.6983 33.2192 45.1759C35.8354 44.8395 38.4113 44.0382 40.8059 42.8742C43.2004 41.7102 45.4135 40.1842 47.3018 38.3962Z" fill="#282F37"/>
<path d="M21.6586 44.335C21.6889 43.8003 21.7519 43.4189 21.5819 42.9195C21.3823 42.333 21.2958 41.7457 21.2799 41.1269C21.2594 40.3466 21.311 39.5596 21.1698 38.7921C21.0787 38.2965 20.8981 37.7994 20.59 37.3938C20.2234 36.9102 19.7384 36.8081 19.2595 36.4747C18.2167 35.7477 17.2854 34.7872 16.6456 33.6901C15.9709 32.5336 15.7865 31.3057 14.8674 30.2529C13.4397 28.6195 9.90372 27.3256 7.84009 26.5514C6.42309 26.0189 2.90604 24.6627 1.54446 24.6574C-0.0114233 24.6514 0.576776 26.5491 0.900854 27.5269C1.67045 29.8451 3.39937 31.0752 4.97499 32.7649C8.37288 36.4093 10.8266 39.477 14.7983 41.8771C15.6999 42.4223 16.6798 42.933 17.7674 43.4083C18.1423 43.5721 18.6204 43.7658 19.151 43.9648C19.935 44.2592 20.8336 44.5648 21.6814 44.8029C21.6578 44.6572 21.6487 44.5025 21.6578 44.3358L21.6586 44.335Z" fill="#282F37"/>
<path d="M59.581 16.4127C59.449 16.0432 58.5094 14.1876 58.3386 15.4109C58.2156 16.2971 58.4122 17.036 57.9834 17.9364C57.821 18.2774 57.6206 18.55 57.3922 18.7737C57.1637 18.9975 56.9079 19.1718 56.6332 19.3159C55.6109 19.8514 54.3404 19.9603 53.3438 20.6226C52.556 21.1468 51.9959 21.9503 51.7143 22.8425C51.7022 22.8823 51.6658 22.9078 51.6255 22.9078C51.3834 22.9063 51.243 22.6562 51.0222 22.5444C50.0423 22.0457 49.0435 21.9045 47.943 22.0187C46.1837 22.2004 45.081 23.6062 43.2253 22.2612C43.075 22.1523 41.8349 20.7375 41.7081 21.2579C41.5639 21.8512 41.847 22.6953 42.0671 23.2398C42.3198 23.8578 42.6758 24.4608 43.1395 24.9429C43.793 25.6241 44.5368 26.2203 45.3451 26.7145C45.6039 26.8722 45.868 27.0104 46.1352 27.1358C46.2505 27.1898 46.3667 27.2424 46.4828 27.2927C47.0194 27.527 47.5658 27.7313 48.1092 27.9761C48.6033 28.1991 49.0982 28.4207 49.5923 28.643C49.8465 28.7579 50.1 28.875 50.3558 28.9869C50.5 29.0492 50.736 29.074 50.799 29.2355C50.8241 29.2993 50.8248 29.3692 50.8089 29.4367C50.3064 30.3109 49.6044 31.0258 48.7316 31.5515C48.0523 31.9592 47.3146 32.1733 46.5647 32.4031C45.1956 32.8236 43.8446 33.1488 42.3988 33.0834C40.726 33.0083 39.0039 32.4849 37.357 32.1875C35.5332 31.8586 33.7041 31.5132 31.9372 30.9469C28.7283 29.9181 25.5239 28.3824 22.3317 27.4579C21.257 27.147 19.9045 27.0194 18.9133 26.5958C18.4959 26.4171 18.1096 26.0769 17.7012 25.8892C16.5074 25.3417 15.1891 25.5407 13.8761 25.2569C10.9282 24.6193 6.02455 22.3904 3.09114 23.1917C2.41339 23.3764 1.9489 24.0185 1.71817 24.0853C1.34248 24.1935 1.06394 24.0117 0.594902 24.2731C-0.453231 24.8566 0.138763 27.1162 0.465119 28.0452C1.20587 30.1539 2.5963 31.1264 4.01329 32.6772C6.2788 35.1561 8.33257 37.789 10.9305 39.9518C12.0553 40.8883 13.2302 41.7023 14.4635 42.433C14.3959 42.5156 14.3314 42.6005 14.2874 42.6958C14.166 42.9587 14.2047 43.2523 14.1667 43.5279C14.1197 43.8719 13.9466 44.1437 13.7873 44.4411C13.4632 45.0441 13.741 45.5593 13.9224 46.1698C14.1402 46.9035 14.1106 47.5921 13.9436 48.3311C13.7668 49.1189 14.037 49.5154 14.339 50.216C14.5235 50.6463 14.6039 51.1134 14.6646 51.5745C14.7269 52.0521 14.8604 52.52 14.9758 52.9901C15.0684 53.3671 15.2839 53.6029 15.4835 53.9288C15.6611 54.2187 15.8213 54.5183 15.9959 54.8089C16.3336 55.3722 16.7366 55.9324 17.3476 56.2268C17.8318 56.4596 18.3646 56.41 18.6796 55.9339C19.0006 55.451 18.7198 54.7444 18.76 54.1932C18.8124 53.4902 18.7023 52.7986 18.7054 52.1002C18.7076 51.4664 18.8397 50.9332 18.9702 50.3197C19.0993 49.7136 19.2359 49.1406 19.4469 48.5556C19.6533 47.9834 19.9038 47.4772 19.906 46.8712C19.9083 46.2494 19.7224 45.7305 19.4939 45.1613C19.4112 44.9563 19.3285 44.7512 19.2602 44.541L21.8809 45.4023C22.1594 45.9505 22.6527 46.3831 23.1134 46.905C23.9756 47.8828 24.4265 48.9649 24.7012 50.2213C24.9942 51.561 25.697 51.9816 26.6662 52.8497C27.2612 53.3829 27.7219 54.0467 28.1461 54.7158C28.5863 55.4075 29.1282 56.0353 29.6443 56.6781C30.0587 57.194 30.5612 57.4066 31.1031 57.7685C31.585 58.0899 32.048 58.4391 32.5261 58.765C33.4521 59.3951 34.4774 59.9749 35.6311 59.9981C36.5449 60.0162 37.3304 59.5648 37.4746 58.6081C37.6211 57.6371 36.6792 56.7457 36.346 55.8671C35.9202 54.7474 35.2531 53.7583 34.7545 52.6785C34.3021 51.7007 34.1215 50.7853 33.8824 49.7467C33.6456 48.7216 33.443 47.7416 33.3473 46.691C33.3208 46.3981 33.3033 46.1112 33.2828 45.8289C38.6313 45.1004 43.7626 42.6072 47.7419 39.0461C48.0986 38.727 48.4394 38.3913 48.7764 38.0511C49.4131 37.409 50.0363 36.7572 50.7163 36.1647C51.5944 35.3987 52.3435 34.451 52.8809 33.4206C53.5245 32.1838 53.8485 30.8065 54.0337 29.4352C54.1081 28.8855 54.1051 28.3711 54.4625 27.9168C54.7669 27.5293 55.1889 27.2409 55.5964 26.9698C56.1239 26.6191 56.7281 26.306 57.1531 25.8276C57.6791 25.2351 58.1595 24.5727 58.5686 23.8631C59.8709 21.6102 60.4645 18.8856 59.5818 16.4127H59.581ZM21.6828 44.8015C20.835 44.5635 19.9364 44.2578 19.1524 43.9635C18.6219 43.7645 18.1437 43.5707 17.7688 43.407C16.6812 42.9316 15.7014 42.421 14.7997 41.8758C10.828 39.4757 8.37431 36.408 4.97642 32.7635C3.4008 31.0739 1.67188 29.8438 0.902284 27.5255C0.578205 26.5478 -0.00999403 24.6501 1.54589 24.6561C2.90747 24.6613 6.42452 26.0176 7.84151 26.55C9.90514 27.3243 13.4412 28.6182 14.8688 30.2515C15.7879 31.3044 15.9723 32.5322 16.647 33.6887C17.2869 34.7859 18.2181 35.7464 19.2609 36.4733C19.7398 36.8067 20.2241 36.9089 20.5914 37.3925C20.8988 37.798 21.0802 38.2952 21.1712 38.7908C21.3124 39.5583 21.2608 40.3461 21.2813 41.1256C21.2972 41.7444 21.3838 42.3309 21.5834 42.9181C21.7534 43.4175 21.6904 43.799 21.66 44.3337C21.6509 44.5004 21.66 44.6551 21.6835 44.8008L21.6828 44.8015ZM40.8065 42.8738C38.4119 44.0378 35.836 44.8391 33.2198 45.1755C33.1591 44.6979 33.0567 44.2323 32.8434 43.7712C32.3994 42.81 31.7399 42.1416 30.9771 41.4244C30.8746 41.3276 30.7722 41.2307 30.6705 41.1338C32.3857 41.4019 34.1154 41.7924 35.7912 41.9456C36.1244 41.9764 36.4212 41.9922 36.6891 41.9952C38.5652 42.014 39.0373 41.3824 40.9082 40.5135C42.0709 39.9736 43.0947 39.9323 44.284 39.6094C45.3679 39.3142 46.2657 38.7472 47.3025 38.3958C45.4141 40.1838 43.201 41.7098 40.8065 42.8738Z" fill="#C5C8CC"/>
</g>
<g clip-path="url(#clip1_23_211)">
<path d="M36.6442 17.465L36.3069 17.905L36.7483 17.5688L36.8781 18.5387L37.0079 17.5688L37.4493 17.905L37.112 17.465L38.085 17.3356L37.112 17.2063L37.4493 16.7662L37.0079 17.1024L36.8781 16.1325L36.7483 17.1024L36.3069 16.7662L36.6442 17.2063L35.6712 17.3356L36.6442 17.465Z" fill="white"/>
<path d="M32.3925 19.4831L31.9161 20.1052L32.5402 19.6296L32.7236 21L32.907 19.6296L33.5318 20.1052L33.0546 19.4831L34.4294 19.2995L33.0546 19.1167L33.5318 18.4946L32.907 18.9703L32.7236 17.5991L32.5402 18.9703L31.9161 18.4946L32.3925 19.1167L31.0178 19.2995L32.3925 19.4831Z" fill="white"/>
<path d="M28.8807 15.9443L28.28 16.7275L29.0656 16.1287L29.2972 17.8555L29.5288 16.1287L30.3153 16.7275L29.7138 15.9443L31.446 15.7134L29.7138 15.4826L30.3153 14.6985L29.5288 15.2982L29.2972 13.5714L29.0656 15.2982L28.28 14.6985L28.8807 15.4826L27.1485 15.7134L28.8807 15.9443Z" fill="white"/>
<path d="M10.1745 13.1514L9.79681 13.6449L10.2911 13.2684L10.4372 14.3546L10.5825 13.2684L11.0775 13.6449L10.6991 13.1514L11.7886 13.0066L10.6991 12.8617L11.0775 12.3682L10.5825 12.7455L10.4372 11.6586L10.2911 12.7455L9.79681 12.3682L10.1745 12.8617L9.08496 13.0066L10.1745 13.1514Z" fill="white"/>
<path d="M14.0524 7.39925L13.5301 8.08022L14.2132 7.55961L14.4145 9.06022L14.615 7.55961L15.2989 8.08022L14.7766 7.39925L16.2819 7.1986L14.7766 6.99795L15.2989 6.31698L14.615 6.83758L14.4145 5.33698L14.2132 6.83758L13.5301 6.31698L14.0524 6.99795L12.5471 7.1986L14.0524 7.39925Z" fill="white"/>
<path d="M20.3393 3.57528L19.434 4.75671L20.6183 3.85417L20.9672 6.45564L21.3154 3.85417L22.5005 4.75671L21.5951 3.57528L24.2047 3.22821L21.5951 2.88036L22.5005 1.69893L21.3154 2.60147L20.9672 0L20.6183 2.60147L19.434 1.69893L20.3393 2.88036L17.7289 3.22821L20.3393 3.57528Z" fill="white"/>
<path d="M19.9546 13.5915L18.5869 15.3749L20.3758 14.0114L20.9027 17.9407L21.4296 14.0114L23.2185 15.3749L21.8508 13.5915L25.7924 13.0662L21.8508 12.541L23.2185 10.7576L21.4296 12.1211L20.9027 8.19177L20.3758 12.1211L18.5869 10.7576L19.9546 12.541L16.013 13.0662L19.9546 13.5915Z" fill="white"/>
</g>
<defs>
<clipPath id="clip0_23_211">
<rect width="60" height="45" fill="white" transform="translate(0 15)"/>
</clipPath>
<clipPath id="clip1_23_211">
<rect width="29" height="21" fill="white" transform="translate(9.08496)"/>
</clipPath>
</defs>
</svg>
