<svg width="26" height="26" viewBox="0 0 26 26" fill="none" xmlns="http://www.w3.org/2000/svg">
<g clip-path="url(#clip0_2478_20769)">
<path d="M20.5 16V25M16 20.5H25M4 10H7C8.65685 10 10 8.65685 10 7V4C10 2.34315 8.65685 1 7 1H4C2.34315 1 1 2.34315 1 4V7C1 8.65685 2.34315 10 4 10ZM19 10H22C23.6569 10 25 8.65685 25 7V4C25 2.34315 23.6569 1 22 1H19C17.3431 1 16 2.34315 16 4V7C16 8.65685 17.3431 10 19 10ZM4 25H7C8.65685 25 10 23.6569 10 22V19C10 17.3431 8.65685 16 7 16H4C2.34315 16 1 17.3431 1 19V22C1 23.6569 2.34315 25 4 25Z" stroke="white" stroke-width="1.5" stroke-linecap="round" stroke-linejoin="round"/>
</g>
<defs>
<clipPath id="clip0_2478_20769">
<rect width="26" height="26" fill="white"/>
</clipPath>
</defs>
</svg>
