<svg width="28" height="28" viewBox="0 0 28 28" fill="none" xmlns="http://www.w3.org/2000/svg">
<path d="M24.15 9.85C23.1163 4.66891 18.3166 0.75 12.553 0.75C6.03514 0.75 0.75 5.76178 0.75 11.9431C0.75 14.913 1.96965 17.6115 3.95911 19.614C4.39714 20.055 4.68959 20.6574 4.57156 21.2774C4.37677 22.2911 3.93533 23.2367 3.28896 24.0248C4.98959 24.3383 6.75791 24.056 8.27442 23.2566C8.8105 22.974 9.07854 22.8327 9.26769 22.804C9.40009 22.784 9.57257 22.8027 9.85 22.8503" stroke="white" stroke-width="1.5" stroke-linecap="round" stroke-linejoin="round"/>
<path d="M12.4502 19.2904C12.4502 23.0679 15.6518 26.1306 19.6002 26.1306C20.0645 26.1312 20.5274 26.0883 20.9835 26.0027C21.3117 25.941 21.4758 25.9102 21.5904 25.9277C21.705 25.9452 21.8674 26.0315 22.1921 26.2042C23.1108 26.6928 24.182 26.8653 25.2122 26.6737C24.8206 26.1921 24.5532 25.6142 24.4352 24.9947C24.3637 24.6158 24.5409 24.2477 24.8062 23.9782C26.0114 22.7545 26.7502 21.1054 26.7502 19.2904C26.7502 15.513 23.5486 12.4502 19.6002 12.4502C15.6518 12.4502 12.4502 15.513 12.4502 19.2904Z" stroke="white" stroke-width="1.5" stroke-linejoin="round"/>
</svg>
