<svg width="20" height="20" viewBox="0 0 20 20" fill="none" xmlns="http://www.w3.org/2000/svg">
<path d="M14.1667 11.6666V16.6666M11.6667 14.1666H16.6667M5 8.33331H6.66667C7.58714 8.33331 8.33334 7.58712 8.33334 6.66665V4.99998C8.33334 4.07951 7.58714 3.33331 6.66667 3.33331H5C4.07953 3.33331 3.33334 4.07951 3.33334 4.99998V6.66665C3.33334 7.58712 4.07953 8.33331 5 8.33331ZM13.3333 8.33331H15C15.9205 8.33331 16.6667 7.58712 16.6667 6.66665V4.99998C16.6667 4.07951 15.9205 3.33331 15 3.33331H13.3333C12.4129 3.33331 11.6667 4.07951 11.6667 4.99998V6.66665C11.6667 7.58712 12.4129 8.33331 13.3333 8.33331ZM5 16.6666H6.66667C7.58714 16.6666 8.33334 15.9205 8.33334 15V13.3333C8.33334 12.4128 7.58714 11.6666 6.66667 11.6666H5C4.07953 11.6666 3.33334 12.4128 3.33334 13.3333V15C3.33334 15.9205 4.07953 16.6666 5 16.6666Z" stroke="#F0F2F5" stroke-width="1.5" stroke-linecap="round" stroke-linejoin="round"/>
</svg>
