<svg width="20" height="20" viewBox="0 0 20 20" fill="none" xmlns="http://www.w3.org/2000/svg">
<g clip-path="url(#clip0_336_61)">
<g clip-path="url(#clip1_336_61)">
<path d="M8.7255 18.3333C5.39793 18.3333 3.73415 18.3333 2.70041 17.357C1.66667 16.3807 1.66667 14.8094 1.66667 11.6667L1.66667 8.33333C1.66667 5.19063 1.66667 3.61929 2.70041 2.64297C3.73415 1.66666 5.39794 1.66666 8.7255 1.66666L9.60785 1.66666C12.9354 1.66666 14.5992 1.66666 15.6329 2.64298C16.6667 3.61929 16.6667 5.19063 16.6667 8.33333" stroke="white" stroke-width="1.5" stroke-linecap="round"/>
<path d="M5.83333 5.83333H12.5" stroke="white" stroke-width="1.5" stroke-linecap="round"/>
<path d="M5.83333 10H10.8333" stroke="white" stroke-width="1.5" stroke-linecap="round"/>
<path d="M11.6667 18.3333C13.1987 16.0432 16.7656 15.9182 18.3333 18.3333M16.6667 12.4406C16.6667 13.3282 15.9205 14.0478 15 14.0478C14.0795 14.0478 13.3333 13.3282 13.3333 12.4406C13.3333 11.5529 14.0795 10.8333 15 10.8333C15.9205 10.8333 16.6667 11.5529 16.6667 12.4406Z" stroke="white" stroke-width="1.5" stroke-linecap="round"/>
</g>
</g>
<defs>
<clipPath id="clip0_336_61">
<rect width="20" height="20" fill="white"/>
</clipPath>
<clipPath id="clip1_336_61">
<rect width="20" height="20" fill="white"/>
</clipPath>
</defs>
</svg>
