<svg width="20" height="20" viewBox="0 0 20 20" fill="none" xmlns="http://www.w3.org/2000/svg">
<path d="M12.1667 3H4.66667C3.74619 3 3 3.74619 3 4.66667C3 5.58714 3.74619 6.33333 4.66667 6.33333H15.5C15.5 5.55836 15.5 5.17087 15.4148 4.85295C15.1837 3.99022 14.5097 3.31635 13.6471 3.08518C13.3292 3 12.9417 3 12.1667 3Z" stroke="white" stroke-width="1.5" stroke-linecap="round" stroke-linejoin="round"/>
<path d="M10.5 18H13C15.357 18 16.5355 18 17.2677 17.2677C18 16.5355 18 15.357 18 13V11.3333C18 8.97629 18 7.79776 17.2677 7.06553C16.5355 6.33329 15.357 6.33329 13 6.33329H6.33333M3 10.5V4.66663" stroke="white" stroke-width="1.5" stroke-linecap="round" stroke-linejoin="round"/>
<path d="M18 10.5H16.3333C15.9458 10.5 15.7521 10.5 15.5932 10.5426C15.1617 10.6582 14.8248 10.9951 14.7092 11.4265C14.6667 11.5854 14.6667 11.7792 14.6667 12.1667C14.6667 12.5542 14.6667 12.7479 14.7092 12.9068C14.8248 13.3382 15.1617 13.6752 15.5932 13.7908C15.7521 13.8333 15.9458 13.8333 16.3333 13.8333H18" stroke="white" stroke-width="1.5" stroke-linecap="round" stroke-linejoin="round"/>
<path d="M8.83333 15.0833H5.91667M5.91667 15.0833H3M5.91667 15.0833V12.1666M5.91667 15.0833V18" stroke="white" stroke-width="1.5" stroke-linecap="round" stroke-linejoin="round"/>
</svg>
