<svg width="20" height="20" viewBox="0 0 20 20" fill="none" xmlns="http://www.w3.org/2000/svg">
<path d="M8.66431 11.9998C10.4751 11.9998 12.1757 12.492 13.4446 13.2869C14.6897 14.0671 15.6543 15.2378 15.6545 16.6248C15.6545 17.3303 15.3995 17.9302 14.9485 18.4031C14.5146 18.8579 13.9284 19.1661 13.2952 19.3816C12.0363 19.8099 10.3735 19.9412 8.66431 19.9412C6.96571 19.9412 5.30338 19.815 4.04321 19.3923C3.4097 19.1798 2.82197 18.8742 2.38599 18.4216C1.93229 17.9504 1.67416 17.3506 1.67407 16.6433C1.67429 15.259 2.63021 14.0837 3.87427 13.2976C5.14143 12.497 6.84325 11.9998 8.66431 11.9998ZM8.66431 13.4998C7.10163 13.4998 5.68292 13.93 4.67603 14.5662C3.64643 15.2167 3.1743 15.9891 3.17407 16.6433C3.17415 16.9546 3.27619 17.1833 3.46606 17.3806C3.67405 17.5966 4.01541 17.8009 4.52075 17.9705C5.53929 18.3121 6.99761 18.4412 8.66431 18.4412C10.339 18.4412 11.7965 18.3072 12.8118 17.9617C13.3152 17.7903 13.6552 17.5852 13.8625 17.3679C14.0525 17.1688 14.1545 16.9376 14.1545 16.6248C14.1543 15.9741 13.6817 15.2057 12.6487 14.5583C11.6389 13.9257 10.2185 13.4998 8.66431 13.4998ZM16.7903 6.36792C17.2043 6.36803 17.5402 6.70386 17.5403 7.11792V8.13745H18.5959C19.0099 8.13767 19.3458 8.47352 19.3459 8.88745C19.3459 9.30148 19.0099 9.63723 18.5959 9.63745H17.5403V10.657C17.5403 11.0711 17.2044 11.4069 16.7903 11.407C16.3762 11.4068 16.0403 11.0711 16.0403 10.657V9.63745H14.9866C14.5726 9.63723 14.2366 9.30148 14.2366 8.88745C14.2367 8.47352 14.5727 8.13767 14.9866 8.13745H16.0403V7.11792C16.0404 6.70388 16.3763 6.36806 16.7903 6.36792ZM8.66431 1.09058C11.2871 1.09064 13.4142 3.21751 13.4143 5.84155C13.4142 8.46467 11.2872 10.5925 8.66431 10.5925H8.63306C6.01831 10.5829 3.90487 8.45388 3.91431 5.83862C3.91596 3.21591 6.04253 1.09069 8.66431 1.09058ZM8.66431 2.59058C6.87015 2.59069 5.41444 4.04583 5.41431 5.84155V5.84448C5.40804 7.63132 6.85271 9.08597 8.63892 9.09253H8.66431C10.4584 9.09247 11.9142 7.6366 11.9143 5.84155C11.9142 4.04579 10.4585 2.59064 8.66431 2.59058Z" fill="white"/>
</svg>
