<svg width="162" height="43" viewBox="0 0 162 43" fill="none" xmlns="http://www.w3.org/2000/svg">
<g clip-path="url(#clip0_574_18165)">
<path d="M40.7969 11.738C40.7065 11.485 40.0631 10.2144 39.9462 11.052C39.862 11.6588 39.9966 12.1648 39.703 12.7813C39.5918 13.0148 39.4546 13.2014 39.2981 13.3547C39.1417 13.5079 38.9666 13.6272 38.7785 13.7259C38.0784 14.0926 37.2085 14.1671 36.5261 14.6207C35.9867 14.9796 35.6032 15.5298 35.4104 16.1407C35.4021 16.1679 35.3771 16.1854 35.3496 16.1854C35.1838 16.1844 35.0877 16.0131 34.9364 15.9365C34.2655 15.5951 33.5816 15.4984 32.828 15.5766C31.6234 15.701 30.8683 16.6636 29.5977 15.7427C29.4948 15.6681 28.6456 14.6993 28.5588 15.0557C28.4601 15.4619 28.6539 16.0399 28.8046 16.4127C28.9777 16.8359 29.2214 17.2488 29.539 17.5789C29.9864 18.0453 30.4957 18.4536 31.0492 18.7919C31.2264 18.8999 31.4072 18.9945 31.5902 19.0804C31.6691 19.1174 31.7487 19.1534 31.8282 19.1879C32.1956 19.3483 32.5698 19.4882 32.9419 19.6558C33.2802 19.8085 33.619 19.9602 33.9573 20.1124C34.1314 20.1911 34.305 20.2713 34.4801 20.3479C34.5789 20.3906 34.7405 20.4076 34.7836 20.5181C34.8008 20.5618 34.8013 20.6097 34.7904 20.6559C34.4464 21.2545 33.9656 21.744 33.368 22.104C32.9029 22.3832 32.3978 22.5297 31.8843 22.6871C30.9468 22.975 30.0217 23.1977 29.0317 23.1529C27.8864 23.1015 26.7072 22.7431 25.5795 22.5395C24.3307 22.3143 23.0782 22.0777 21.8684 21.69C19.6712 20.9856 17.477 19.934 15.2912 19.301C14.5554 19.0881 13.6293 19.0007 12.9506 18.7107C12.6647 18.5883 12.4002 18.3554 12.1206 18.2268C11.3032 17.852 10.4005 17.9882 9.50141 17.7939C7.48294 17.3573 4.12525 15.8311 2.11666 16.3798C1.65258 16.5063 1.33453 16.9459 1.17655 16.9917C0.919302 17.0657 0.728577 16.9413 0.407411 17.1202C-0.310276 17.5198 0.095079 19.067 0.318544 19.7031C0.825758 21.147 1.77782 21.8129 2.74808 22.8748C4.29934 24.5722 5.70561 26.375 7.4845 27.8559C8.25468 28.4971 9.05915 29.0545 9.90364 29.5549C9.85739 29.6114 9.81322 29.6695 9.78308 29.7348C9.69993 29.9148 9.72643 30.1159 9.70044 30.3046C9.66822 30.5401 9.54974 30.7262 9.4406 30.9299C9.21869 31.3428 9.4089 31.6955 9.53311 32.1136C9.68226 32.6159 9.66199 33.0875 9.54766 33.5935C9.42657 34.1329 9.61158 34.4044 9.81841 34.8841C9.9447 35.1788 9.99979 35.4986 10.0414 35.8143C10.084 36.1414 10.1754 36.4617 10.2544 36.7836C10.3178 37.0417 10.4654 37.2032 10.6021 37.4264C10.7237 37.6249 10.8334 37.83 10.9529 38.029C11.1841 38.4147 11.4601 38.7983 11.8785 38.9999C12.21 39.1593 12.5748 39.1253 12.7905 38.7993C13.0103 38.4687 12.818 37.9848 12.8456 37.6074C12.8814 37.1261 12.8061 36.6525 12.8082 36.1743C12.8097 35.7403 12.9002 35.3752 12.9895 34.9551C13.0779 34.5401 13.1714 34.1478 13.3159 33.7472C13.4573 33.3554 13.6288 33.0088 13.6303 32.5938C13.6319 32.1681 13.5045 31.8128 13.3481 31.423C13.2915 31.2826 13.2348 31.1422 13.1881 30.9982L14.9825 31.588C15.1733 31.9634 15.5111 32.2596 15.8265 32.617C16.4169 33.2865 16.7256 34.0275 16.9137 34.8877C17.1143 35.8051 17.5955 36.093 18.2592 36.6875C18.6666 37.0525 18.982 37.5071 19.2726 37.9653C19.574 38.4389 19.945 38.8687 20.2984 39.3089C20.5822 39.6622 20.9262 39.8077 21.2972 40.0555C21.6273 40.2756 21.9443 40.5147 22.2717 40.7379C22.9057 41.1693 23.6078 41.5663 24.3977 41.5822C25.0234 41.5946 25.5613 41.2855 25.66 40.6304C25.7603 39.9655 25.1154 39.3552 24.8872 38.7536C24.5957 37.9869 24.1389 37.3097 23.7975 36.5702C23.4877 35.9007 23.364 35.2739 23.2003 34.5627C23.0382 33.8608 22.8994 33.1898 22.834 32.4704C22.8158 32.2699 22.8038 32.0735 22.7898 31.8801C26.452 31.3813 29.9656 29.6742 32.6903 27.2358C32.9346 27.0172 33.1679 26.7874 33.3987 26.5544C33.8347 26.1148 34.2613 25.6685 34.727 25.2627C35.3283 24.7383 35.8412 24.0893 36.2091 23.3838C36.6498 22.5369 36.8717 21.5939 36.9985 20.6549C37.0495 20.2785 37.0474 19.9263 37.2922 19.6152C37.5006 19.3498 37.7895 19.1524 38.0686 18.9668C38.4298 18.7266 38.8434 18.5122 39.1345 18.1847C39.4946 17.7789 39.8236 17.3254 40.1037 16.8395C40.9954 15.2968 41.4013 13.4313 40.7969 11.738ZM14.8469 31.1767C14.2664 31.0137 13.6511 30.8044 13.1143 30.6028C12.751 30.4666 12.4236 30.3339 12.1669 30.2218C11.4222 29.8963 10.7513 29.5466 10.1339 29.1733C7.41434 27.5299 5.7342 25.4293 3.40756 22.9339C2.32869 21.7769 1.14485 20.9346 0.617884 19.3473C0.395978 18.6778 -0.00677954 17.3784 1.05858 17.3825C1.9909 17.3861 4.39912 18.3147 5.36938 18.6793C6.7824 19.2095 9.20362 20.0955 10.1812 21.2139C10.8105 21.9348 10.9368 22.7755 11.3988 23.5674C11.8369 24.3187 12.4745 24.9763 13.1886 25.4741C13.5165 25.7024 13.8481 25.7723 14.0996 26.1035C14.3101 26.3812 14.4343 26.7216 14.4966 27.0609C14.5933 27.5865 14.558 28.1259 14.572 28.6596C14.5829 29.0833 14.6421 29.4849 14.7788 29.887C14.8952 30.229 14.8521 30.4902 14.8313 30.8563C14.8251 30.9705 14.8313 31.0764 14.8474 31.1762L14.8469 31.1767ZM27.9414 29.8567C26.3018 30.6537 24.538 31.2024 22.7467 31.4327C22.7051 31.1057 22.6349 30.7869 22.4889 30.4712C22.1849 29.813 21.7333 29.3553 21.211 28.8643C21.1408 28.7979 21.0707 28.7316 21.001 28.6653C22.1755 28.8488 23.3599 29.1162 24.5074 29.2211C24.7355 29.2422 24.9387 29.253 25.1221 29.2551C26.4068 29.2679 26.7301 28.8355 28.0111 28.2405C28.8072 27.8708 29.5083 27.8425 30.3226 27.6214C31.0648 27.4193 31.6795 27.0311 32.3894 26.7905C31.0965 28.0148 29.5811 29.0597 27.9414 29.8567Z" fill="#C5C8CC"/>
</g>
<g clip-path="url(#clip1_574_18165)">
<path d="M25.0913 12.4588L24.8603 12.7601L25.1626 12.5299L25.2514 13.194L25.3403 12.5299L25.6425 12.7601L25.4116 12.4588L26.0778 12.3702L25.4116 12.2816L25.6425 11.9803L25.3403 12.2105L25.2514 11.5464L25.1626 12.2105L24.8603 11.9803L25.0913 12.2816L24.425 12.3702L25.0913 12.4588Z" fill="#C5C8CC"/>
<path d="M22.1801 13.8409L21.8539 14.2668L22.2812 13.9411L22.4068 14.8795L22.5324 13.9411L22.9602 14.2668L22.6335 13.8409L23.5748 13.7152L22.6335 13.59L22.9602 13.164L22.5324 13.4897L22.4068 12.5508L22.2812 13.4897L21.8539 13.164L22.1801 13.59L21.2388 13.7152L22.1801 13.8409Z" fill="#C5C8CC"/>
<path d="M19.7755 11.4173L19.3641 11.9536L19.9021 11.5435L20.0607 12.726L20.2192 11.5435L20.7577 11.9536L20.3459 11.4173L21.532 11.2592L20.3459 11.1011L20.7577 10.5643L20.2192 10.9749L20.0607 9.79248L19.9021 10.9749L19.3641 10.5643L19.7755 11.1011L18.5894 11.2592L19.7755 11.4173Z" fill="#C5C8CC"/>
<path d="M6.96674 9.50512L6.70813 9.84302L7.04655 9.58522L7.14659 10.3289L7.2461 9.58522L7.58506 9.84302L7.32592 9.50512L8.07195 9.40592L7.32592 9.30672L7.58506 8.96882L7.2461 9.22715L7.14659 8.48291L7.04655 9.22715L6.70813 8.96882L6.96674 9.30672L6.2207 9.40592L6.96674 9.50512Z" fill="#C5C8CC"/>
<path d="M9.62203 5.56639L9.26444 6.03267L9.73217 5.6762L9.86999 6.70371L10.0073 5.6762L10.4755 6.03267L10.118 5.56639L11.1487 5.429L10.118 5.29161L10.4755 4.82533L10.0073 5.18181L9.86999 4.1543L9.73217 5.18181L9.26444 4.82533L9.62203 5.29161L8.59131 5.429L9.62203 5.56639Z" fill="#C5C8CC"/>
<path d="M13.9268 2.9481L13.3069 3.75705L14.1178 3.13906L14.3568 4.92036L14.5951 3.13906L15.4066 3.75705L14.7867 2.9481L16.5736 2.71045L14.7867 2.47227L15.4066 1.66331L14.5951 2.2813L14.3568 0.5L14.1178 2.2813L13.3069 1.66331L13.9268 2.47227L12.1394 2.71045L13.9268 2.9481Z" fill="#C5C8CC"/>
<path d="M13.6635 9.80671L12.727 11.0278L13.9519 10.0942L14.3127 12.7847L14.6735 10.0942L15.8984 11.0278L14.9619 9.80671L17.6608 9.44706L14.9619 9.0874L15.8984 7.86627L14.6735 8.79989L14.3127 6.10938L13.9519 8.79989L12.727 7.86627L13.6635 9.0874L10.9646 9.44706L13.6635 9.80671Z" fill="#C5C8CC"/>
</g>
<path d="M48.2158 9.30859H50.6025L52.0117 15.4023H52.0879L53.6875 9.30859H55.6553L57.2676 15.415H57.3311L58.7529 9.30859H61.1396L58.4736 18.5H56.3916L54.7158 12.8379H54.6396L52.9639 18.5H50.8691L48.2158 9.30859ZM62.0537 9.30859H64.2119V13.0156H67.9062V9.30859H70.0645V18.5H67.9062V14.7803H64.2119V18.5H62.0537V9.30859ZM71.0293 18.5L74.1523 9.30859H77.0215L80.1318 18.5H77.8086L77.1865 16.5322H73.9873L73.3652 18.5H71.0293ZM76.666 14.8818L75.625 11.5811H75.5488L74.5078 14.8818H76.666ZM81.1094 9.30859H83.2676V16.7354H87.127V18.5H81.1094V9.30859ZM88.2568 9.30859H94.6172V11.0732H90.415V13.0156H94.2871V14.7803H90.415V16.7354H94.6299V18.5H88.2568V9.30859ZM98.9082 9.30859H105.269V11.0732H101.066V13.0156H104.938V14.7803H101.066V16.7354H105.281V18.5H98.9082V9.30859ZM106.652 9.30859H110.41C111.096 9.30859 111.688 9.43132 112.188 9.67676C112.691 9.9222 113.076 10.2756 113.343 10.7368C113.614 11.1938 113.749 11.7334 113.749 12.3555C113.749 12.9818 113.611 13.5192 113.336 13.9678C113.066 14.4163 112.674 14.757 112.162 14.9897L114.079 18.5H111.705L110.017 15.3389H108.811V18.5H106.652V9.30859ZM109.953 13.6123C110.994 13.6123 111.515 13.1934 111.515 12.3555C111.515 11.9281 111.381 11.6064 111.115 11.3906C110.852 11.1706 110.465 11.0605 109.953 11.0605H108.811V13.6123H109.953ZM114.968 9.30859H118.726C119.403 9.30859 119.993 9.44189 120.497 9.7085C121 9.9751 121.387 10.3475 121.658 10.8257C121.929 11.2996 122.064 11.8477 122.064 12.4697C122.064 13.1003 121.927 13.6546 121.652 14.1328C121.377 14.6068 120.983 14.9728 120.471 15.231C119.959 15.4891 119.356 15.6182 118.662 15.6182H117.126V18.5H114.968V9.30859ZM118.269 13.9043C118.768 13.9043 119.153 13.7752 119.424 13.5171C119.695 13.259 119.83 12.9098 119.83 12.4697C119.83 12.0296 119.695 11.6847 119.424 11.4351C119.153 11.1854 118.768 11.0605 118.269 11.0605H117.126V13.9043H118.269ZM50.2031 24.0156L53.0625 31H53.168L56.0273 24.0156H57.293V32.5H56.2969V26.0898H56.2148L53.5781 32.5H52.6406L50.0039 26.0898H49.9336V32.5H48.9375V24.0156H50.2031ZM58.7344 30.6953C58.7344 30.0352 58.959 29.5703 59.4082 29.3008C59.8613 29.0312 60.4336 28.8711 61.125 28.8203C61.3906 28.8008 61.6875 28.7832 62.0156 28.7676C62.3477 28.748 62.625 28.7344 62.8477 28.7266V28.2109C62.8477 27.8008 62.7246 27.4863 62.4785 27.2676C62.2363 27.0449 61.8789 26.9336 61.4062 26.9336C61.0195 26.9336 60.7031 27.0137 60.457 27.1738C60.2109 27.3301 60.0508 27.5352 59.9766 27.7891H58.9219C58.9648 27.4492 59.0977 27.1484 59.3203 26.8867C59.543 26.625 59.8379 26.4219 60.2051 26.2773C60.5762 26.1289 60.9922 26.0547 61.4531 26.0547C62.0625 26.0547 62.6133 26.2109 63.1055 26.5234C63.5977 26.832 63.8438 27.4258 63.8438 28.3047V32.5H62.8477V31.6328H62.8008C62.7227 31.7969 62.6016 31.957 62.4375 32.1133C62.2773 32.2656 62.0664 32.3945 61.8047 32.5C61.5469 32.6016 61.2461 32.6523 60.9023 32.6523C60.4961 32.6523 60.1289 32.5742 59.8008 32.418C59.4727 32.2617 59.2129 32.0371 59.0215 31.7441C58.8301 31.4473 58.7344 31.0977 58.7344 30.6953ZM59.7422 30.7422C59.7422 31.0664 59.8633 31.3164 60.1055 31.4922C60.3516 31.6641 60.6758 31.75 61.0781 31.75C61.4414 31.75 61.7559 31.6777 62.0215 31.5332C62.291 31.3887 62.4961 31.1973 62.6367 30.959C62.7773 30.7207 62.8477 30.4648 62.8477 30.1914V29.5527L61.2422 29.6641C60.7656 29.6953 60.3965 29.7988 60.1348 29.9746C59.873 30.1504 59.7422 30.4062 59.7422 30.7422ZM66.4688 32.5H65.4609V26.1367H66.4336V27.1328H66.5156C66.6758 26.793 66.9082 26.5293 67.2129 26.3418C67.5215 26.1504 67.9102 26.0547 68.3789 26.0547C68.8164 26.0547 69.1953 26.1445 69.5156 26.3242C69.8359 26.5 70.084 26.7676 70.2598 27.127C70.4355 27.4863 70.5234 27.9297 70.5234 28.457V32.5H69.5156V28.5273C69.5156 28.0352 69.3887 27.6504 69.1348 27.373C68.8809 27.0957 68.5273 26.957 68.0742 26.957C67.7617 26.957 67.4844 27.0254 67.2422 27.1621C67 27.2949 66.8105 27.4922 66.6738 27.7539C66.5371 28.0117 66.4688 28.3203 66.4688 28.6797V32.5ZM71.8359 30.6953C71.8359 30.0352 72.0605 29.5703 72.5098 29.3008C72.9629 29.0312 73.5352 28.8711 74.2266 28.8203C74.4922 28.8008 74.7891 28.7832 75.1172 28.7676C75.4492 28.748 75.7266 28.7344 75.9492 28.7266V28.2109C75.9492 27.8008 75.8262 27.4863 75.5801 27.2676C75.3379 27.0449 74.9805 26.9336 74.5078 26.9336C74.1211 26.9336 73.8047 27.0137 73.5586 27.1738C73.3125 27.3301 73.1523 27.5352 73.0781 27.7891H72.0234C72.0664 27.4492 72.1992 27.1484 72.4219 26.8867C72.6445 26.625 72.9395 26.4219 73.3066 26.2773C73.6777 26.1289 74.0938 26.0547 74.5547 26.0547C75.1641 26.0547 75.7148 26.2109 76.207 26.5234C76.6992 26.832 76.9453 27.4258 76.9453 28.3047V32.5H75.9492V31.6328H75.9023C75.8242 31.7969 75.7031 31.957 75.5391 32.1133C75.3789 32.2656 75.168 32.3945 74.9062 32.5C74.6484 32.6016 74.3477 32.6523 74.0039 32.6523C73.5977 32.6523 73.2305 32.5742 72.9023 32.418C72.5742 32.2617 72.3145 32.0371 72.123 31.7441C71.9316 31.4473 71.8359 31.0977 71.8359 30.6953ZM72.8438 30.7422C72.8438 31.0664 72.9648 31.3164 73.207 31.4922C73.4531 31.6641 73.7773 31.75 74.1797 31.75C74.543 31.75 74.8574 31.6777 75.123 31.5332C75.3926 31.3887 75.5977 31.1973 75.7383 30.959C75.8789 30.7207 75.9492 30.4648 75.9492 30.1914V29.5527L74.3438 29.6641C73.8672 29.6953 73.498 29.7988 73.2363 29.9746C72.9746 30.1504 72.8438 30.4062 72.8438 30.7422ZM81.1406 35.0195C80.6289 35.0195 80.1758 34.9473 79.7812 34.8027C79.3906 34.6582 79.0801 34.4473 78.8496 34.1699C78.6191 33.8926 78.4844 33.5586 78.4453 33.168H79.5C79.5703 33.4883 79.7461 33.7305 80.0273 33.8945C80.3125 34.0586 80.6836 34.1406 81.1406 34.1406C81.7031 34.1406 82.1367 34.0156 82.4414 33.7656C82.7461 33.5156 82.8984 33.1328 82.8984 32.6172V31.3281H82.8164C82.7031 31.5195 82.584 31.6875 82.459 31.832C82.334 31.9766 82.1465 32.1094 81.8965 32.2305C81.6504 32.3477 81.3398 32.4062 80.9648 32.4062C80.4453 32.4062 79.9805 32.2793 79.5703 32.0254C79.1602 31.7715 78.8379 31.4062 78.6035 30.9297C78.373 30.4492 78.2578 29.8828 78.2578 29.2305C78.2578 28.5898 78.373 28.0293 78.6035 27.5488C78.834 27.0684 79.1543 26.6992 79.5645 26.4414C79.9746 26.1836 80.4453 26.0547 80.9766 26.0547C81.3477 26.0547 81.6562 26.1152 81.9023 26.2363C82.1523 26.3574 82.3301 26.4824 82.4355 26.6113C82.5449 26.7363 82.6797 26.9141 82.8398 27.1445H82.9219V26.1367H83.9062V32.6758C83.9062 33.2031 83.7852 33.6406 83.543 33.9883C83.3047 34.3398 82.9785 34.5996 82.5645 34.7676C82.1504 34.9355 81.6758 35.0195 81.1406 35.0195ZM81.1055 31.5039C81.6836 31.5039 82.1309 31.3086 82.4473 30.918C82.7637 30.5234 82.9219 29.9727 82.9219 29.2656C82.9219 28.8086 82.8516 28.4062 82.7109 28.0586C82.5703 27.7109 82.3633 27.4414 82.0898 27.25C81.8203 27.0547 81.4922 26.957 81.1055 26.957C80.7109 26.957 80.377 27.0586 80.1035 27.2617C79.8301 27.4648 79.623 27.7422 79.4824 28.0938C79.3457 28.4414 79.2773 28.832 79.2773 29.2656C79.2773 29.7109 79.3457 30.1016 79.4824 30.4375C79.623 30.7734 79.8301 31.0352 80.1035 31.2227C80.377 31.4102 80.7109 31.5039 81.1055 31.5039ZM88.1836 32.6289C87.5781 32.6289 87.0508 32.4941 86.6016 32.2246C86.1523 31.9551 85.8066 31.5742 85.5645 31.082C85.3262 30.5898 85.207 30.0195 85.207 29.3711C85.207 28.7227 85.3262 28.1484 85.5645 27.6484C85.8066 27.1445 86.1445 26.7539 86.5781 26.4766C87.0156 26.1953 87.5195 26.0547 88.0898 26.0547C88.5703 26.0547 89.0176 26.1621 89.4316 26.377C89.8457 26.5879 90.1816 26.9316 90.4395 27.4082C90.7012 27.8809 90.832 28.4883 90.832 29.2305V29.6523H86.2148C86.2305 30.0938 86.3223 30.4707 86.4902 30.7832C86.6582 31.0957 86.8867 31.334 87.1758 31.498C87.4688 31.6582 87.8047 31.7383 88.1836 31.7383C88.543 31.7383 88.8457 31.6719 89.0918 31.5391C89.3418 31.4023 89.5312 31.2266 89.6602 31.0117H90.7383C90.6367 31.332 90.4668 31.6152 90.2285 31.8613C89.9941 32.1035 89.7012 32.293 89.3496 32.4297C89.002 32.5625 88.6133 32.6289 88.1836 32.6289ZM89.8125 28.7969C89.8125 28.4414 89.7402 28.125 89.5957 27.8477C89.4551 27.5664 89.2539 27.3457 88.9922 27.1855C88.7305 27.0254 88.4297 26.9453 88.0898 26.9453C87.7344 26.9453 87.418 27.0293 87.1406 27.1973C86.8672 27.3652 86.6504 27.5918 86.4902 27.877C86.334 28.1582 86.2441 28.4648 86.2207 28.7969H89.8125ZM92.1445 26.1367H93.1172V27.1328H93.1992C93.3359 26.7891 93.5508 26.5234 93.8438 26.3359C94.1406 26.1484 94.4961 26.0547 94.9102 26.0547C95.3164 26.0547 95.6621 26.1484 95.9473 26.3359C96.2324 26.5195 96.4531 26.7852 96.6094 27.1328H96.6797C96.8477 26.7969 97.0957 26.5332 97.4238 26.3418C97.752 26.1504 98.1406 26.0547 98.5898 26.0547C98.9766 26.0547 99.3145 26.1348 99.6035 26.2949C99.8965 26.4551 100.125 26.6992 100.289 27.0273C100.453 27.3516 100.535 27.7578 100.535 28.2461V32.5H99.5273V28.2578C99.5273 27.8164 99.4062 27.4902 99.1641 27.2793C98.9219 27.0645 98.6133 26.957 98.2383 26.957C97.9492 26.957 97.6992 27.0176 97.4883 27.1387C97.2773 27.2598 97.1172 27.4258 97.0078 27.6367C96.8984 27.8477 96.8438 28.0898 96.8438 28.3633V32.5H95.8242V28.1523C95.8242 27.918 95.7715 27.7109 95.666 27.5312C95.5605 27.3477 95.4121 27.207 95.2207 27.1094C95.0332 27.0078 94.8203 26.957 94.582 26.957C94.3281 26.957 94.0918 27.0254 93.873 27.1621C93.6543 27.2949 93.4785 27.4805 93.3457 27.7188C93.2168 27.957 93.1523 28.2266 93.1523 28.5273V32.5H92.1445V26.1367ZM104.824 32.6289C104.219 32.6289 103.691 32.4941 103.242 32.2246C102.793 31.9551 102.447 31.5742 102.205 31.082C101.967 30.5898 101.848 30.0195 101.848 29.3711C101.848 28.7227 101.967 28.1484 102.205 27.6484C102.447 27.1445 102.785 26.7539 103.219 26.4766C103.656 26.1953 104.16 26.0547 104.73 26.0547C105.211 26.0547 105.658 26.1621 106.072 26.377C106.486 26.5879 106.822 26.9316 107.08 27.4082C107.342 27.8809 107.473 28.4883 107.473 29.2305V29.6523H102.855C102.871 30.0938 102.963 30.4707 103.131 30.7832C103.299 31.0957 103.527 31.334 103.816 31.498C104.109 31.6582 104.445 31.7383 104.824 31.7383C105.184 31.7383 105.486 31.6719 105.732 31.5391C105.982 31.4023 106.172 31.2266 106.301 31.0117H107.379C107.277 31.332 107.107 31.6152 106.869 31.8613C106.635 32.1035 106.342 32.293 105.99 32.4297C105.643 32.5625 105.254 32.6289 104.824 32.6289ZM106.453 28.7969C106.453 28.4414 106.381 28.125 106.236 27.8477C106.096 27.5664 105.895 27.3457 105.633 27.1855C105.371 27.0254 105.07 26.9453 104.73 26.9453C104.375 26.9453 104.059 27.0293 103.781 27.1973C103.508 27.3652 103.291 27.5918 103.131 27.877C102.975 28.1582 102.885 28.4648 102.861 28.7969H106.453ZM109.793 32.5H108.785V26.1367H109.758V27.1328H109.84C110 26.793 110.232 26.5293 110.537 26.3418C110.846 26.1504 111.234 26.0547 111.703 26.0547C112.141 26.0547 112.52 26.1445 112.84 26.3242C113.16 26.5 113.408 26.7676 113.584 27.127C113.76 27.4863 113.848 27.9297 113.848 28.457V32.5H112.84V28.5273C112.84 28.0352 112.713 27.6504 112.459 27.373C112.205 27.0957 111.852 26.957 111.398 26.957C111.086 26.957 110.809 27.0254 110.566 27.1621C110.324 27.2949 110.135 27.4922 109.998 27.7539C109.861 28.0117 109.793 28.3203 109.793 28.6797V32.5ZM118.242 26.9805H116.906V30.6719C116.906 31.0469 116.98 31.2988 117.129 31.4277C117.277 31.5566 117.48 31.6211 117.738 31.6211C117.934 31.6211 118.133 31.6133 118.336 31.5977V32.5352C118.133 32.5664 117.898 32.582 117.633 32.582C117.336 32.582 117.055 32.5215 116.789 32.4004C116.523 32.2754 116.307 32.0879 116.139 31.8379C115.971 31.5879 115.887 31.2852 115.887 30.9297V26.9805H114.926V26.1367H115.887V24.6133H116.906V26.1367H118.242V26.9805ZM127.312 26.1484C127.281 25.875 127.182 25.6406 127.014 25.4453C126.85 25.2461 126.631 25.0957 126.357 24.9941C126.084 24.8887 125.777 24.8359 125.438 24.8359C125.07 24.8359 124.744 24.8965 124.459 25.0176C124.178 25.1348 123.959 25.2988 123.803 25.5098C123.65 25.7207 123.574 25.9609 123.574 26.2305C123.574 26.6211 123.732 26.9199 124.049 27.127C124.369 27.334 124.758 27.4961 125.215 27.6133L126.059 27.8477C126.715 28.0156 127.279 28.2754 127.752 28.627C128.225 28.9746 128.461 29.4961 128.461 30.1914C128.461 30.6562 128.338 31.0762 128.092 31.4512C127.85 31.8223 127.496 32.1152 127.031 32.3301C126.57 32.5449 126.02 32.6523 125.379 32.6523C124.777 32.6523 124.252 32.5547 123.803 32.3594C123.354 32.1641 123.002 31.8887 122.748 31.5332C122.494 31.1777 122.352 30.7656 122.32 30.2969H123.398C123.43 30.6016 123.537 30.8594 123.721 31.0703C123.904 31.2773 124.139 31.4336 124.424 31.5391C124.713 31.6406 125.031 31.6914 125.379 31.6914C125.77 31.6914 126.119 31.6289 126.428 31.5039C126.74 31.3789 126.984 31.2012 127.16 30.9707C127.34 30.7363 127.43 30.4688 127.43 30.168C127.43 29.9102 127.355 29.6934 127.207 29.5176C127.062 29.3418 126.871 29.1992 126.633 29.0898C126.398 28.9805 126.105 28.875 125.754 28.7734L124.711 28.4922C124.016 28.2891 123.482 28.0078 123.111 27.6484C122.74 27.2891 122.555 26.832 122.555 26.2773C122.555 25.8125 122.682 25.4004 122.936 25.041C123.193 24.6777 123.543 24.3965 123.984 24.1973C124.43 23.998 124.926 23.8984 125.473 23.8984C126.012 23.8984 126.496 23.9961 126.926 24.1914C127.355 24.3867 127.695 24.6562 127.945 25C128.195 25.3398 128.328 25.7227 128.344 26.1484H127.312ZM130.488 34.8906C130.285 34.8906 130.098 34.8828 129.926 34.8672V33.9648C130.066 33.9805 130.23 33.9883 130.418 33.9883C130.586 33.9883 130.727 33.9707 130.84 33.9355C130.953 33.9004 131.066 33.8125 131.18 33.6719C131.293 33.5352 131.402 33.3203 131.508 33.0273L131.695 32.5469L129.34 26.1367H130.441L132.176 31.1875H132.246L133.98 26.1367H135.082L132.387 33.4141C132.199 33.9102 131.949 34.2793 131.637 34.5215C131.324 34.7676 130.941 34.8906 130.488 34.8906ZM139.734 27.7891C139.66 27.5117 139.516 27.2969 139.301 27.1445C139.09 26.9883 138.805 26.9102 138.445 26.9102C138.188 26.9102 137.955 26.9531 137.748 27.0391C137.545 27.1211 137.385 27.2363 137.268 27.3848C137.154 27.5293 137.098 27.6914 137.098 27.8711C137.098 28.082 137.186 28.2617 137.361 28.4102C137.541 28.5586 137.816 28.6758 138.188 28.7617L139.137 28.9961C139.707 29.1328 140.133 29.3438 140.414 29.6289C140.695 29.9102 140.836 30.2734 140.836 30.7188C140.836 31.0898 140.736 31.4199 140.537 31.709C140.342 31.9941 140.057 32.2188 139.682 32.3828C139.307 32.5469 138.859 32.6289 138.34 32.6289C137.625 32.6289 137.059 32.4766 136.641 32.1719C136.223 31.8633 135.973 31.418 135.891 30.8359H136.945C137.004 31.1445 137.146 31.375 137.373 31.5273C137.6 31.6758 137.914 31.75 138.316 31.75C138.77 31.75 139.129 31.6621 139.395 31.4863C139.66 31.3105 139.793 31.0742 139.793 30.7773C139.793 30.5508 139.709 30.3633 139.541 30.2148C139.373 30.0625 139.109 29.9453 138.75 29.8633L137.789 29.6406C137.234 29.5117 136.812 29.3008 136.523 29.0078C136.234 28.7148 136.09 28.3555 136.09 27.9297C136.09 27.5703 136.188 27.248 136.383 26.9629C136.582 26.6777 136.859 26.4551 137.215 26.2949C137.574 26.1348 137.984 26.0547 138.445 26.0547C138.875 26.0547 139.254 26.127 139.582 26.2715C139.91 26.416 140.17 26.6191 140.361 26.8809C140.557 27.1426 140.676 27.4453 140.719 27.7891H139.734ZM144.926 26.9805H143.59V30.6719C143.59 31.0469 143.664 31.2988 143.812 31.4277C143.961 31.5566 144.164 31.6211 144.422 31.6211C144.617 31.6211 144.816 31.6133 145.02 31.5977V32.5352C144.816 32.5664 144.582 32.582 144.316 32.582C144.02 32.582 143.738 32.5215 143.473 32.4004C143.207 32.2754 142.99 32.0879 142.822 31.8379C142.654 31.5879 142.57 31.2852 142.57 30.9297V26.9805H141.609V26.1367H142.57V24.6133H143.59V26.1367H144.926V26.9805ZM148.828 32.6289C148.223 32.6289 147.695 32.4941 147.246 32.2246C146.797 31.9551 146.451 31.5742 146.209 31.082C145.971 30.5898 145.852 30.0195 145.852 29.3711C145.852 28.7227 145.971 28.1484 146.209 27.6484C146.451 27.1445 146.789 26.7539 147.223 26.4766C147.66 26.1953 148.164 26.0547 148.734 26.0547C149.215 26.0547 149.662 26.1621 150.076 26.377C150.49 26.5879 150.826 26.9316 151.084 27.4082C151.346 27.8809 151.477 28.4883 151.477 29.2305V29.6523H146.859C146.875 30.0938 146.967 30.4707 147.135 30.7832C147.303 31.0957 147.531 31.334 147.82 31.498C148.113 31.6582 148.449 31.7383 148.828 31.7383C149.188 31.7383 149.49 31.6719 149.736 31.5391C149.986 31.4023 150.176 31.2266 150.305 31.0117H151.383C151.281 31.332 151.111 31.6152 150.873 31.8613C150.639 32.1035 150.346 32.293 149.994 32.4297C149.646 32.5625 149.258 32.6289 148.828 32.6289ZM150.457 28.7969C150.457 28.4414 150.385 28.125 150.24 27.8477C150.1 27.5664 149.898 27.3457 149.637 27.1855C149.375 27.0254 149.074 26.9453 148.734 26.9453C148.379 26.9453 148.062 27.0293 147.785 27.1973C147.512 27.3652 147.295 27.5918 147.135 27.877C146.979 28.1582 146.889 28.4648 146.865 28.7969H150.457ZM152.789 26.1367H153.762V27.1328H153.844C153.98 26.7891 154.195 26.5234 154.488 26.3359C154.785 26.1484 155.141 26.0547 155.555 26.0547C155.961 26.0547 156.307 26.1484 156.592 26.3359C156.877 26.5195 157.098 26.7852 157.254 27.1328H157.324C157.492 26.7969 157.74 26.5332 158.068 26.3418C158.396 26.1504 158.785 26.0547 159.234 26.0547C159.621 26.0547 159.959 26.1348 160.248 26.2949C160.541 26.4551 160.77 26.6992 160.934 27.0273C161.098 27.3516 161.18 27.7578 161.18 28.2461V32.5H160.172V28.2578C160.172 27.8164 160.051 27.4902 159.809 27.2793C159.566 27.0645 159.258 26.957 158.883 26.957C158.594 26.957 158.344 27.0176 158.133 27.1387C157.922 27.2598 157.762 27.4258 157.652 27.6367C157.543 27.8477 157.488 28.0898 157.488 28.3633V32.5H156.469V28.1523C156.469 27.918 156.416 27.7109 156.311 27.5312C156.205 27.3477 156.057 27.207 155.865 27.1094C155.678 27.0078 155.465 26.957 155.227 26.957C154.973 26.957 154.736 27.0254 154.518 27.1621C154.299 27.2949 154.123 27.4805 153.99 27.7188C153.861 27.957 153.797 28.2266 153.797 28.5273V32.5H152.789V26.1367Z" fill="#C5C8CC"/>
<defs>
<clipPath id="clip0_574_18165">
<rect width="40.9554" height="30.9097" fill="white" transform="translate(0 10.6738)"/>
</clipPath>
<clipPath id="clip1_574_18165">
<rect width="19.8571" height="14.3793" fill="white" transform="translate(6.2207 0.5)"/>
</clipPath>
</defs>
</svg>
