<svg width="32" height="32" viewBox="0 0 32 32" fill="none" xmlns="http://www.w3.org/2000/svg">
<rect width="32" height="32" rx="16" fill="white"/>
<path d="M22.4 13.6C21.7639 10.4116 18.8102 8 15.2634 8C11.2524 8 8 11.0842 8 14.888C8 16.7157 8.75055 18.3763 9.97484 19.6086C10.2444 19.88 10.4244 20.2507 10.3517 20.6322C10.2319 21.2561 9.9602 21.838 9.56244 22.3229C10.609 22.5159 11.6972 22.3422 12.6304 21.8502C12.9603 21.6763 13.1253 21.5893 13.2417 21.5717C13.3231 21.5594 13.4293 21.5709 13.6 21.6002" stroke="#141B34" stroke-width="1.5" stroke-linecap="round" stroke-linejoin="round"/>
<path d="M15.2001 19.4096C15.2001 21.7341 17.1704 23.6189 19.6001 23.6189C19.8858 23.6193 20.1707 23.5929 20.4514 23.5402C20.6534 23.5022 20.7544 23.4833 20.8249 23.494C20.8954 23.5048 20.9953 23.5579 21.1951 23.6642C21.7605 23.9648 22.4197 24.071 23.0536 23.9531C22.8127 23.6567 22.6481 23.3011 22.5755 22.9199C22.5315 22.6867 22.6405 22.4602 22.8038 22.2944C23.5455 21.5413 24.0001 20.5264 24.0001 19.4096C24.0001 17.085 22.0299 15.2002 19.6001 15.2002C17.1704 15.2002 15.2001 17.085 15.2001 19.4096Z" stroke="#141B34" stroke-width="1.5" stroke-linejoin="round"/>
</svg>
