<svg width="32" height="32" viewBox="0 0 32 32" fill="none" xmlns="http://www.w3.org/2000/svg">
<rect width="32" height="32" rx="16" fill="white"/>
<path d="M21 18V24M18 21H24M10 14H12C13.1046 14 14 13.1046 14 12V10C14 8.89543 13.1046 8 12 8H10C8.89543 8 8 8.89543 8 10V12C8 13.1046 8.89543 14 10 14ZM20 14H22C23.1046 14 24 13.1046 24 12V10C24 8.89543 23.1046 8 22 8H20C18.8954 8 18 8.89543 18 10V12C18 13.1046 18.8954 14 20 14ZM10 24H12C13.1046 24 14 23.1046 14 22V20C14 18.8954 13.1046 18 12 18H10C8.89543 18 8 18.8954 8 20V22C8 23.1046 8.89543 24 10 24Z" stroke="#4F4F4F" stroke-width="1.5" stroke-linecap="round" stroke-linejoin="round"/>
</svg>
