<svg width="32" height="32" viewBox="0 0 32 32" fill="none" xmlns="http://www.w3.org/2000/svg">
<rect width="32" height="32" rx="16" fill="white"/>
<path d="M8 16L9.77778 14.2222M9.77778 14.2222L16 8L22.2222 14.2222M9.77778 14.2222V23.1111C9.77778 23.602 10.1757 24 10.6667 24H13.3333M22.2222 14.2222L24 16M22.2222 14.2222V23.1111C22.2222 23.602 21.8243 24 21.3333 24H18.6667M13.3333 24C13.8243 24 14.2222 23.602 14.2222 23.1111V19.5556C14.2222 19.0646 14.6202 18.6667 15.1111 18.6667H16.8889C17.3798 18.6667 17.7778 19.0646 17.7778 19.5556V23.1111C17.7778 23.602 18.1757 24 18.6667 24M13.3333 24H18.6667" stroke="#4F4F4F" stroke-width="1.5" stroke-linecap="round" stroke-linejoin="round"/>
</svg>
