<svg width="80" height="50" viewBox="0 0 80 50" fill="none" xmlns="http://www.w3.org/2000/svg">
<g clip-path="url(#clip0_2790_1937)">
<rect width="80" height="50" fill="white"/>
<path d="M11.2012 5.54114C11.2012 8.60514 8.69267 11.0823 5.60374 11.0823C2.51482 11.0823 0 8.60514 0 5.54114C0 2.47714 2.50858 0 5.5975 0C8.68643 0 11.195 2.48332 11.195 5.54114H11.2012Z" fill="#BBBBBB"/>
<path d="M80.0002 44.4528C80.0002 47.5168 77.4916 49.9939 74.4027 49.9939C71.3138 49.9939 68.8052 47.5106 68.8052 44.4528C68.8052 41.3949 71.3138 38.9116 74.4027 38.9116C77.4916 38.9116 80.0002 41.3949 80.0002 44.4528Z" fill="#BBBBBB"/>
<path d="M8.86738 34.4144C8.86738 36.1441 7.45084 37.5402 5.70981 37.5402C3.96254 37.5402 2.55225 36.1379 2.55225 34.4144V15.6536C2.55225 13.9239 3.96878 12.5278 5.70981 12.5278C7.45708 12.5278 8.86738 13.9301 8.86738 15.6536V34.4144Z" fill="#BBBBBB"/>
<path d="M29.6909 34.4144C29.6909 36.1441 31.1075 37.5402 32.8485 37.5402C34.5958 37.5402 36.0061 36.1379 36.0061 34.4144V15.6536C36.0061 13.9239 34.5895 12.5278 32.8485 12.5278C31.1075 12.5278 29.6909 13.9301 29.6909 15.6536V34.4144Z" fill="#BBBBBB"/>
<path d="M16.1685 34.4144C16.1685 36.1441 17.585 37.5402 19.326 37.5402C21.0733 37.5402 22.4836 36.1379 22.4836 34.4144V15.6536C22.4836 13.9239 21.0671 12.5278 19.326 12.5278C17.585 12.5278 16.1685 13.9301 16.1685 15.6536V34.4144Z" fill="#BBBBBB"/>
<path d="M16.9546 32.215C15.7689 33.8582 15.9624 36.0018 17.3851 37.0025C18.8079 38.0033 20.9171 37.4844 22.1028 35.8474L34.9639 18.0008C36.1496 16.3576 35.9561 14.214 34.5396 13.2071C33.1168 12.2064 31.0076 12.7253 29.822 14.3685L16.9546 32.215Z" fill="#BBBBBB"/>
<path d="M3.43846 32.215C2.25281 33.8582 2.44626 36.0018 3.86903 37.0025C5.29181 38.0033 7.40101 37.4844 8.58666 35.8474L21.4478 18.0008C22.6335 16.3576 22.44 14.214 21.0235 13.2071C19.6007 12.2064 17.4915 12.7253 16.3059 14.3685L3.43846 32.215Z" fill="#BBBBBB"/>
<path d="M30.6958 32.215C29.5102 33.8582 29.7036 36.0018 31.1202 37.0025C32.5429 38.0033 34.6521 37.4844 35.8378 35.8474L48.6989 18.0008C49.8846 16.3576 49.6911 14.214 48.2746 13.2071C46.8518 12.2064 44.7426 12.7253 43.557 14.3685L30.6958 32.215Z" fill="#BBBBBB"/>
<path d="M43.4321 34.4144C43.4321 36.1441 44.8487 37.5402 46.5897 37.5402C48.337 37.5402 49.7473 36.1379 49.7473 34.4144V15.6536C49.7473 13.9239 48.3307 12.5278 46.5897 12.5278C44.8424 12.5278 43.4321 13.9301 43.4321 15.6536V34.4144Z" fill="#BBBBBB"/>
<path d="M44.7178 32.215C43.5321 33.8582 43.7256 36.0018 45.1483 37.0025C46.5711 38.0033 48.6803 37.4844 49.866 35.8474L62.7271 18.0008C63.9128 16.3576 63.7193 14.214 62.3028 13.2071C60.88 12.2064 58.7708 12.7253 57.5851 14.3685L44.7178 32.215Z" fill="#BBBBBB"/>
<path d="M57.4165 34.4144C57.4165 36.1441 58.833 37.5402 60.5741 37.5402C62.3213 37.5402 63.7316 36.1379 63.7316 34.4144V15.6536C63.7316 13.9239 62.3151 12.5278 60.5741 12.5278C58.8268 12.5278 57.4165 13.9301 57.4165 15.6536V34.4144Z" fill="#BBBBBB"/>
<path d="M71.3823 34.4144C71.3823 36.1441 72.7989 37.5402 74.5399 37.5402C76.2872 37.5402 77.6975 36.1379 77.6975 34.4144V15.6536C77.6975 13.9239 76.2809 12.5278 74.5399 12.5278C72.7926 12.5278 71.3823 13.9301 71.3823 15.6536V34.4144Z" fill="#BBBBBB"/>
<path d="M58.7022 32.215C57.5165 33.8582 57.71 36.0018 59.1265 37.0025C60.5493 38.0033 62.6585 37.4844 63.8441 35.8474L76.7053 18.0008C77.8909 16.3576 77.6975 14.214 76.281 13.2071C74.8582 12.2064 72.749 12.7253 71.5633 14.3685L58.6959 32.215H58.7022Z" fill="#BBBBBB"/>
<path d="M72.9234 44.5019C72.9234 45.0517 72.4741 45.4965 71.9187 45.4965C71.3634 45.4965 70.9141 45.0517 70.9141 44.5019C70.9141 43.9521 71.3634 43.5073 71.9187 43.5073C72.4741 43.5073 72.9234 43.9521 72.9234 44.5019Z" fill="white"/>
<path d="M78.1031 44.5019C78.1031 45.0517 77.6538 45.4965 77.0984 45.4965C76.543 45.4965 76.0938 45.0517 76.0938 44.5019C76.0938 43.9521 76.543 43.5073 77.0984 43.5073C77.6538 43.5073 78.1031 43.9521 78.1031 44.5019Z" fill="white"/>
<path d="M4.21202 47.2507H3.28223V42.8276H4.21202V47.2507Z" fill="#BBBBBB"/>
<path d="M5.07313 42.8218H6.05285L7.82508 45.9105V42.8218H8.69872V47.2448H7.76268L5.94053 44.1067V47.2448H5.06689V42.8218H5.07313Z" fill="#BBBBBB"/>
<path d="M12.8234 42.8218V43.6063H11.488V47.251H10.5458V43.6063H9.2041V42.8218H12.8234Z" fill="#BBBBBB"/>
<path d="M16.6237 43.6063H14.3085V44.5453H16.4302V45.3113H14.3085V46.4479H16.736V47.2448H13.3975V42.8218H16.6299V43.6063H16.6237Z" fill="#BBBBBB"/>
<path d="M20.3745 42.939C20.5367 43.007 20.6802 43.112 20.7926 43.2479C20.8862 43.3591 20.9611 43.4826 21.0172 43.6185C21.0734 43.7544 21.0983 43.9089 21.0983 44.0818C21.0983 44.2919 21.0422 44.4957 20.9361 44.6996C20.83 44.9034 20.649 45.0455 20.4057 45.132C20.6116 45.2123 20.7614 45.3297 20.8425 45.4841C20.9299 45.6385 20.9735 45.8671 20.9735 46.176V46.4725C20.9735 46.6763 20.9798 46.8122 20.9985 46.8864C21.0235 47.0037 21.0796 47.084 21.1732 47.1396V47.2508H20.1436C20.1124 47.152 20.0937 47.0717 20.0812 47.0161C20.0562 46.8925 20.0437 46.7628 20.0437 46.6331V46.2254C20.0313 45.9412 19.9813 45.7559 19.8877 45.6632C19.7941 45.5706 19.6132 45.5212 19.3573 45.5212H18.4462V47.257H17.5352V42.834H19.6756C19.9813 42.834 20.2185 42.8772 20.3807 42.9452L20.3745 42.939ZM18.4462 43.5938V44.786H19.4509C19.6506 44.786 19.8004 44.7613 19.9002 44.7119C20.0749 44.6254 20.1623 44.4586 20.1623 44.2115C20.1623 43.9459 20.0749 43.7606 19.9065 43.6741C19.8128 43.6247 19.6693 43.5938 19.4759 43.5938H18.4462Z" fill="#BBBBBB"/>
<path d="M24.9985 45.3295C24.7364 45.5457 24.362 45.6569 23.8752 45.6569H22.9454V47.2507H22.0156V42.8276H23.9376C24.3807 42.8276 24.7364 42.9388 24.9985 43.1674C25.2606 43.396 25.3916 43.7481 25.3916 44.2299C25.3916 44.755 25.2606 45.1195 24.9985 45.3357V45.3295ZM24.2871 43.7357C24.1685 43.6369 24.0063 43.5875 23.7879 43.5875H22.9454V44.8909H23.7879C24 44.8909 24.1685 44.8353 24.2871 44.7303C24.4056 44.6253 24.4618 44.4585 24.4618 44.2237C24.4618 43.989 24.4056 43.8284 24.2871 43.7295V43.7357Z" fill="#BBBBBB"/>
<path d="M26.1401 42.8218H27.0762V46.4541H29.3102V47.251H26.1401V42.828V42.8218Z" fill="#BBBBBB"/>
<path d="M29.9346 42.8218H30.8831V45.5398C30.8831 45.8425 30.9205 46.0649 30.9892 46.207C31.1015 46.4541 31.3449 46.5776 31.7255 46.5776C32.1062 46.5776 32.3495 46.4541 32.4619 46.207C32.5368 46.0649 32.568 45.8425 32.568 45.5398V42.8218H33.5165V45.5398C33.5165 46.0093 33.4416 46.3738 33.2981 46.6394C33.0235 47.1213 32.4993 47.3622 31.7255 47.3622C30.9517 47.3622 30.4275 47.1213 30.153 46.6394C30.0032 46.38 29.9346 46.0093 29.9346 45.5398V42.8218Z" fill="#BBBBBB"/>
<path d="M37.4287 44.2054C37.3601 43.9027 37.1854 43.6927 36.9108 43.5691C36.7548 43.5012 36.5863 43.4703 36.3991 43.4703C36.0372 43.4703 35.7439 43.6062 35.513 43.8718C35.2821 44.1436 35.1635 44.5451 35.1635 45.0826C35.1635 45.62 35.2883 46.0092 35.5379 46.2378C35.7876 46.4663 36.0746 46.5775 36.3929 46.5775C36.7111 46.5775 36.9607 46.491 37.1604 46.3119C37.3601 46.1327 37.4849 45.898 37.5286 45.6138H36.4927V44.8725H38.3523V47.2508H37.7345L37.6409 46.7011C37.4599 46.9111 37.2977 47.0593 37.1542 47.1458C36.9046 47.2941 36.605 47.3682 36.2431 47.3682C35.6503 47.3682 35.1635 47.1644 34.7891 46.7567C34.396 46.3489 34.1963 45.793 34.1963 45.0826C34.1963 44.3722 34.396 43.7915 34.7954 43.3591C35.1947 42.9267 35.7189 42.7104 36.3741 42.7104C36.942 42.7104 37.3975 42.8525 37.7408 43.1367C38.084 43.4209 38.2837 43.7791 38.3336 44.2054H37.4163H37.4287Z" fill="#BBBBBB"/>
<path d="M41.4039 43.2848C41.7659 42.9204 42.2214 42.7412 42.7768 42.7412C43.5194 42.7412 44.0623 42.9883 44.4117 43.4763C44.5989 43.7481 44.705 44.0261 44.7175 44.3041H43.7815C43.7191 44.0941 43.6442 43.9335 43.5506 43.8223C43.3821 43.6308 43.1387 43.5319 42.808 43.5319C42.4772 43.5319 42.2151 43.6678 42.0217 43.9396C41.8283 44.2114 41.7346 44.5944 41.7346 45.0886C41.7346 45.5828 41.8345 45.9596 42.0404 46.2067C42.2401 46.4538 42.5022 46.5774 42.8142 46.5774C43.1262 46.5774 43.3821 46.4724 43.5506 46.2623C43.6442 46.145 43.7191 45.9782 43.7815 45.7496H44.7113C44.6301 46.2314 44.4304 46.6268 44.0997 46.9233C43.769 47.226 43.3509 47.3743 42.8329 47.3743C42.1964 47.3743 41.6972 47.1704 41.3353 46.7627C40.9733 46.355 40.7861 45.7929 40.7861 45.0763C40.7861 44.3041 40.9921 43.7111 41.4102 43.291L41.4039 43.2848Z" fill="#BBBBBB"/>
<path d="M48.1497 46.8491C47.8689 47.1889 47.4445 47.3618 46.8767 47.3618C46.3088 47.3618 45.8845 47.1889 45.6036 46.8491C45.3228 46.5093 45.1855 46.0955 45.1855 45.6198C45.1855 45.1441 45.3228 44.7364 45.6036 44.3905C45.8845 44.0446 46.3088 43.8716 46.8767 43.8716C47.4445 43.8716 47.8689 44.0446 48.1497 44.3905C48.4305 44.7364 48.5678 45.1441 48.5678 45.6198C48.5678 46.0955 48.4305 46.5093 48.1497 46.8491ZM47.4632 46.3734C47.6005 46.1943 47.6692 45.941 47.6692 45.6136C47.6692 45.2862 47.6005 45.0329 47.4632 44.8538C47.3259 44.6746 47.1325 44.5882 46.8829 44.5882C46.6333 44.5882 46.4336 44.6746 46.2963 44.8538C46.159 45.0329 46.0904 45.2862 46.0904 45.6136C46.0904 45.941 46.159 46.1943 46.2963 46.3734C46.4336 46.5526 46.627 46.6391 46.8829 46.6391C47.1387 46.6391 47.3322 46.5526 47.4632 46.3734Z" fill="#BBBBBB"/>
<path d="M49.1729 46.3491H50.0902V47.2448H49.1729V46.3491Z" fill="#BBBBBB"/>
<path d="M50.8706 47.9611C51.0453 47.9117 51.1701 47.8314 51.2513 47.7202C51.3324 47.609 51.3823 47.4484 51.3948 47.2507H50.8706V46.355H51.8066V47.1333C51.8066 47.2692 51.7879 47.4113 51.7505 47.5596C51.713 47.7078 51.6444 47.8376 51.5446 47.9426C51.4385 48.0599 51.3137 48.1464 51.1701 48.202C51.0266 48.2638 50.9268 48.2885 50.8706 48.2885V47.9611Z" fill="#BBBBBB"/>
<path d="M54.4399 42.8218H55.376V46.4541H57.61V47.251H54.4399V42.828V42.8218Z" fill="#BBBBBB"/>
<path d="M57.8218 44.6132V44.0017H58.2836V43.0874H59.1385V44.0017H59.6751V44.6132H59.1385V46.3429C59.1385 46.4788 59.1572 46.5591 59.1884 46.5962C59.2258 46.6271 59.3257 46.6456 59.5066 46.6456C59.5316 46.6456 59.5628 46.6456 59.5878 46.6456C59.619 46.6456 59.6439 46.6456 59.6751 46.6456V47.2819L59.2633 47.2942C58.8577 47.3066 58.5768 47.2386 58.4271 47.0842C58.3272 46.9854 58.2836 46.8371 58.2836 46.6332V44.6194H57.8218V44.6132Z" fill="#BBBBBB"/>
<path d="M61.9842 44.0261C62.1402 44.1125 62.265 44.2361 62.3649 44.3905V42.8276H63.2385V47.2507H62.3961V46.7997C62.2713 46.9912 62.134 47.1333 61.9718 47.226C61.8157 47.3124 61.6161 47.3557 61.3852 47.3557C60.9983 47.3557 60.6738 47.2012 60.4117 46.8924C60.1496 46.5835 60.0186 46.1882 60.0186 45.7001C60.0186 45.1442 60.1496 44.7056 60.4055 44.3843C60.6675 44.0631 61.0108 43.9025 61.4476 43.9025C61.6473 43.9025 61.8282 43.9457 61.9842 44.0322V44.0261ZM62.1964 46.3611C62.3212 46.182 62.3899 45.9472 62.3899 45.6631C62.3899 45.2615 62.29 44.9774 62.0841 44.8044C61.9593 44.6994 61.8095 44.65 61.6473 44.65C61.3914 44.65 61.2104 44.7426 61.0919 44.9341C60.9733 45.1256 60.9172 45.3604 60.9172 45.6384C60.9172 45.9411 60.9796 46.182 61.0981 46.3611C61.2167 46.5403 61.4039 46.6329 61.6473 46.6329C61.8906 46.6329 62.0778 46.5403 62.2026 46.3611H62.1964Z" fill="#BBBBBB"/>
<path d="M64.0122 46.3491H64.9295V47.2448H64.0122V46.3491Z" fill="#BBBBBB"/>
</g>
<defs>
<clipPath id="clip0_2790_1937">
<rect width="80" height="50" fill="white"/>
</clipPath>
</defs>
</svg>
