<svg width="398" height="809" viewBox="0 0 398 809" fill="none" xmlns="http://www.w3.org/2000/svg">
<path d="M394.422 207.436H395.831C396.608 207.436 397.239 208.069 397.239 208.85V301.253C397.239 302.034 396.608 302.667 395.831 302.667H394.422V207.436Z" fill="#303030"/>
<path d="M2.81738 322.468L1.40873 322.468C0.630753 322.468 8.01638e-05 321.835 8.02318e-05 321.054L8.50756e-05 265.423C8.51436e-05 264.642 0.630759 264.009 1.40873 264.009L2.81739 264.009L2.81738 322.468Z" fill="#303030"/>
<path d="M2.81738 245.151L1.40873 245.151C0.630753 245.151 8.01638e-05 244.518 8.02318e-05 243.737L8.50756e-05 188.106C8.51436e-05 187.325 0.630759 186.692 1.40873 186.692L2.81739 186.692L2.81738 245.151Z" fill="#333333"/>
<path d="M2.81738 158.405L1.40873 158.405C0.630758 158.405 8.39785e-05 157.772 8.40465e-05 156.991L8.64273e-05 129.647C8.64954e-05 128.866 0.63076 128.233 1.40873 128.233L2.81739 128.233L2.81738 158.405Z" fill="#333333"/>
<path fill-rule="evenodd" clip-rule="evenodd" d="M5.80545 42.3489C2.81787 51.5808 2.81787 62.9882 2.81787 85.803V723.197C2.81787 746.012 2.81787 757.419 5.80545 766.651C11.8435 785.31 26.4131 799.938 44.9965 806C54.1913 809 65.5528 809 88.2759 809H308.964C331.687 809 343.049 809 352.244 806C370.827 799.938 385.397 785.31 391.435 766.651C394.422 757.419 394.422 746.012 394.422 723.197V85.803C394.422 62.9882 394.422 51.5808 391.435 42.3489C385.397 23.6905 370.827 9.06211 352.244 2.99964C343.049 0 331.687 0 308.964 0H88.2759C65.5528 0 54.1913 0 44.9965 2.99964C26.4131 9.06211 11.8435 23.6905 5.80545 42.3489ZM102.363 23.1008V27.3438L102.43 27.3417L102.363 27.8153C102.363 39.0113 111.402 48.0874 122.553 48.0874H274.688C285.838 48.0874 294.878 39.0113 294.878 27.8153L294.811 27.3417L294.878 27.3438V23.1008C294.878 20.2367 297.19 17.9149 300.043 17.9149L312.139 17.9149C331.048 17.9149 340.503 17.9149 348.044 20.7758C359.896 25.2724 369.252 34.6662 373.73 46.5662C376.58 54.1372 376.58 63.6302 376.58 82.6161V726.384C376.58 745.37 376.58 754.863 373.73 762.434C369.252 774.334 359.896 783.728 348.044 788.224C340.503 791.085 331.048 791.085 312.139 791.085H85.1022C66.1927 791.085 56.7379 791.085 49.1973 788.224C37.3451 783.728 27.9891 774.334 23.5106 762.434C20.6612 754.863 20.6612 745.37 20.6612 726.384V82.616C20.6612 63.6302 20.6612 54.1372 23.5106 46.5662C27.9891 34.6662 37.3451 25.2724 49.1973 20.7758C56.7379 17.9149 66.1927 17.9149 85.1022 17.9149L97.1981 17.9149C100.051 17.9149 102.363 20.2367 102.363 23.1008Z" fill="#333333"/>
<path fill-rule="evenodd" clip-rule="evenodd" d="M309.34 1.88576H87.9001C65.4536 1.88576 54.453 1.89739 45.5767 4.79311C27.5652 10.669 13.4439 24.8473 7.59159 42.9316C4.70752 51.8437 4.69594 62.8887 4.69594 85.4258V723.574C4.69594 746.111 4.70752 757.156 7.59159 766.068C13.4439 784.153 27.5652 798.331 45.5767 804.207C54.453 807.103 65.4536 807.114 87.9001 807.114H309.34C331.786 807.114 342.787 807.103 351.663 804.207C369.675 798.331 383.796 784.153 389.648 766.068C392.532 757.156 392.544 746.111 392.544 723.574V85.4259C392.544 62.8887 392.532 51.8437 389.648 42.9316C383.796 24.8473 369.675 10.669 351.663 4.79311C342.787 1.89739 331.786 1.88576 309.34 1.88576ZM6.69845 42.6402C3.75684 51.7302 3.75684 62.962 3.75684 85.4258V723.574C3.75684 746.038 3.75684 757.27 6.69845 766.36C12.6437 784.731 26.9891 799.134 45.2865 805.104C54.3399 808.057 65.5267 808.057 87.9001 808.057H309.34C331.713 808.057 342.9 808.057 351.953 805.104C370.251 799.134 384.596 784.731 390.541 766.36C393.483 757.27 393.483 746.038 393.483 723.574V85.4259C393.483 62.9621 393.483 51.7302 390.541 42.6402C384.596 24.2689 370.251 9.86556 351.953 3.89637C342.9 0.942871 331.713 0.942871 309.34 0.942871H87.9001C65.5266 0.942871 54.3399 0.942871 45.2865 3.89637C26.9891 9.86556 12.6437 24.2689 6.69845 42.6402Z" fill="#303030"/>
<path fill-rule="evenodd" clip-rule="evenodd" d="M10.5966 44.0634C7.84033 52.5791 7.84033 63.1015 7.84033 84.1462V724.854C7.84033 745.899 7.84033 756.421 10.5966 764.937C16.1671 782.147 29.6084 795.641 46.7527 801.233C55.2355 804 65.7172 804 86.6806 804H311C331.964 804 342.445 804 350.928 801.233C368.072 795.641 381.514 782.147 387.084 764.937C389.84 756.421 389.84 745.899 389.84 724.854V84.1462C389.84 63.1015 389.84 52.5791 387.084 44.0634C381.514 26.8526 368.072 13.359 350.928 7.76692C342.445 5 331.964 5 311 5H86.6806C65.7172 5 55.2355 5 46.7527 7.76692C29.6084 13.359 16.1671 26.8526 10.5966 44.0634ZM102.636 23.3732V27.6132L102.703 27.6111L102.636 28.0843C102.636 39.2723 111.67 48.342 122.815 48.342H274.864C286.009 48.342 295.044 39.2723 295.044 28.0843L294.976 27.6111L295.043 27.6132V23.3732C295.043 20.5112 297.355 18.191 300.205 18.191L312.295 18.191C331.194 18.191 340.643 18.191 348.179 21.0498C360.025 25.5433 369.376 34.9303 373.852 46.8219C376.7 54.3875 376.7 63.8736 376.7 82.8459V726.154C376.7 745.126 376.7 754.613 373.852 762.178C369.376 774.07 360.025 783.457 348.179 787.95C340.643 790.809 331.194 790.809 312.295 790.809H85.3848C66.4858 790.809 57.0363 790.809 49.4999 787.95C37.6544 783.457 28.3036 774.07 23.8275 762.178C20.9797 754.613 20.9797 745.126 20.9797 726.154V82.8459C20.9797 63.8736 20.9797 54.3875 23.8275 46.8219C28.3036 34.9303 37.6544 25.5433 49.4999 21.0498C57.0363 18.191 66.4858 18.191 85.3848 18.191L97.4739 18.191C100.325 18.191 102.636 20.5112 102.636 23.3732Z" fill="#121515"/>
<rect x="310.845" width="5.63458" height="4.71445" fill="#414141"/>
<rect x="389.73" y="81.0884" width="4.69556" height="5.65734" fill="#414141"/>
<rect x="2.8208" y="81.0884" width="4.6955" height="5.65734" fill="#414141"/>
<rect x="2.8208" y="722.254" width="4.6955" height="5.65732" fill="#414141"/>
<rect x="389.73" y="722.254" width="4.69556" height="5.65732" fill="#414141"/>
<rect x="80.7651" y="804.286" width="5.6346" height="4.71444" fill="#414141"/>
<path fill-rule="evenodd" clip-rule="evenodd" d="M238.533 37.7156C242.682 37.7156 246.046 34.3385 246.046 30.1725C246.046 26.0066 242.682 22.6294 238.533 22.6294C234.384 22.6294 231.02 26.0066 231.02 30.1725C231.02 34.3385 234.384 37.7156 238.533 37.7156Z" fill="#262C2D"/>
<path fill-rule="evenodd" clip-rule="evenodd" d="M238.532 34.8869C241.125 34.8869 243.227 32.7762 243.227 30.1725C243.227 27.5687 241.125 25.458 238.532 25.458C235.939 25.458 233.836 27.5687 233.836 30.1725C233.836 32.7762 235.939 34.8869 238.532 34.8869Z" fill="#121515"/>
<path opacity="0.4" fill-rule="evenodd" clip-rule="evenodd" d="M238.533 29.2304C239.052 29.2304 239.472 28.8081 239.472 28.2871C239.472 27.7661 239.052 27.3438 238.533 27.3438C238.014 27.3438 237.593 27.7661 237.593 28.2871C237.593 28.8081 238.014 29.2304 238.533 29.2304Z" fill="#636F73"/>
<path fill-rule="evenodd" clip-rule="evenodd" d="M175.613 30.1724C175.613 28.6102 176.879 27.3438 178.441 27.3438H218.8C220.362 27.3438 221.629 28.6102 221.629 30.1724C221.629 31.7347 220.362 33.0011 218.8 33.0011H178.441C176.879 33.0011 175.613 31.7347 175.613 30.1724Z" fill="#262C2D"/>
</svg>
