<svg width="879" height="542" viewBox="0 0 879 542" fill="none" xmlns="http://www.w3.org/2000/svg">
<g filter="url(#filter0_d_352_19)">
<path d="M141.555 9.50064H740.81C752.727 9.50064 762.388 19.1617 762.388 31.0788V442.673C762.388 444.138 761.199 445.327 759.733 445.327H122.631C121.165 445.327 119.977 444.138 119.977 442.673V31.0788C119.977 19.1617 129.638 9.50064 141.555 9.50064Z" fill="#E2E8F0" stroke="#CBD5E0"/>
<path d="M123.42 30.2899C123.42 20.7095 131.186 12.9431 140.767 12.9431H741.599C751.18 12.9431 758.946 20.7095 758.946 30.2899V429.268H123.42V30.2899Z" fill="#E2E8F0"/>
<path d="M42.2051 444.249C42.2051 443.378 42.9111 442.672 43.7821 442.672H835.43C836.301 442.672 837.007 443.378 837.007 444.249V456.865H42.2051V444.249Z" fill="#E2E8F0"/>
<path d="M42.2051 444.249C42.2051 443.378 42.9111 442.672 43.7821 442.672H835.43C836.301 442.672 837.007 443.378 837.007 444.249V456.865H42.2051V444.249Z" fill="url(#paint0_linear_352_19)"/>
<path d="M42.2051 456.865H837.007L820.958 460.102C800.431 464.242 779.544 466.327 758.604 466.327H119.406C96.3935 466.327 73.4505 463.809 50.9863 458.817L42.2051 456.865Z" fill="#E2E8F0"/>
<path d="M42.2051 456.865H837.007L820.958 460.102C800.431 464.242 779.544 466.327 758.604 466.327H119.406C96.3935 466.327 73.4505 463.809 50.9863 458.817L42.2051 456.865Z" fill="url(#paint1_linear_352_19)"/>
<path fill-rule="evenodd" clip-rule="evenodd" d="M374.188 442.672C374.593 448.837 379.722 453.711 385.989 453.711H494.013C500.28 453.711 505.409 448.837 505.814 442.672H374.188Z" fill="#E2E8F0"/>
<path fill-rule="evenodd" clip-rule="evenodd" d="M374.188 442.672C374.593 448.837 379.722 453.711 385.989 453.711H494.013C500.28 453.711 505.409 448.837 505.814 442.672H374.188Z" fill="url(#paint2_linear_352_19)"/>
</g>
<defs>
<filter id="filter0_d_352_19" x="0.00011313" y="3.8147e-06" width="878.802" height="541.327" filterUnits="userSpaceOnUse" color-interpolation-filters="sRGB">
<feFlood flood-opacity="0" result="BackgroundImageFix"/>
<feColorMatrix in="SourceAlpha" type="matrix" values="0 0 0 0 0 0 0 0 0 0 0 0 0 0 0 0 0 0 127 0" result="hardAlpha"/>
<feOffset dx="-0.204965" dy="32.9994"/>
<feGaussianBlur stdDeviation="21"/>
<feColorMatrix type="matrix" values="0 0 0 0 0 0 0 0 0 0 0 0 0 0 0 0 0 0 0.12 0"/>
<feBlend mode="normal" in2="BackgroundImageFix" result="effect1_dropShadow_352_19"/>
<feBlend mode="normal" in="SourceGraphic" in2="effect1_dropShadow_352_19" result="shape"/>
</filter>
<linearGradient id="paint0_linear_352_19" x1="42.2051" y1="449.769" x2="837.007" y2="449.769" gradientUnits="userSpaceOnUse">
<stop stop-color="#B7C2D0"/>
<stop offset="0.0295345" stop-color="#CAD4DB"/>
<stop offset="0.0625" stop-color="#BECCDE"/>
<stop offset="0.133609" stop-color="#B7C2D0"/>
<stop offset="0.865967" stop-color="#B7C2D0"/>
<stop offset="0.941937" stop-color="#BECCDE"/>
<stop offset="0.971275" stop-color="#CAD4DB"/>
<stop offset="0.996436" stop-color="#B7C2D0"/>
</linearGradient>
<linearGradient id="paint1_linear_352_19" x1="439.606" y1="456.865" x2="439.606" y2="466.327" gradientUnits="userSpaceOnUse">
<stop stop-color="#D1DBE9"/>
<stop offset="1" stop-color="#AAB5C6"/>
</linearGradient>
<linearGradient id="paint2_linear_352_19" x1="387.172" y1="449.374" x2="495.196" y2="449.374" gradientUnits="userSpaceOnUse">
<stop stop-color="#CFD9E7"/>
<stop offset="0.317518" stop-color="#CFD9E7" stop-opacity="0"/>
<stop offset="0.660584" stop-color="#CFD9E7" stop-opacity="0"/>
<stop offset="1" stop-color="#CFD9E7"/>
</linearGradient>
</defs>
</svg>
