<svg width="759" height="390" viewBox="0 0 759 390" fill="none" xmlns="http://www.w3.org/2000/svg">
<path d="M54.5202 178.64L0.000175945 16.24H53.8242L80.7362 115.304H82.1282L108.576 16.24H152.888L180.496 114.84H181.656L209.032 16.24H261L208.8 178.64H157.992L129.456 84.68H128.76L103.008 178.64H54.5202ZM271.386 178.64V7.42401L321.73 5.24521e-06V64.032L326.138 61.944C330.623 59.624 335.186 57.768 339.826 56.376C344.62 54.984 349.415 54.3653 354.21 54.52C364.418 54.52 372.924 56.4533 379.73 60.32C386.535 64.032 391.639 69.136 395.042 75.632C398.444 81.9733 400.146 89.2427 400.146 97.44V178.64H349.802V110.896C349.802 107.339 348.796 104.555 346.786 102.544C344.93 100.533 341.218 99.528 335.65 99.528C333.948 99.528 332.324 99.6827 330.778 99.992C329.231 100.147 327.762 100.456 326.37 100.92L321.73 102.544V178.64H271.386ZM450.872 180.728C444.222 180.728 437.88 179.568 431.848 177.248C425.816 174.928 420.867 171.293 417 166.344C413.134 161.24 411.2 154.667 411.2 146.624C411.2 136.261 414.294 128.528 420.48 123.424C426.822 118.165 437.107 113.835 451.336 110.432L484.048 102.776V102.312C484.358 99.2187 483.043 96.8213 480.104 95.12C477.166 93.4187 471.984 92.568 464.56 92.568C459.766 92.568 454.816 92.8 449.712 93.264C444.763 93.728 439.659 94.424 434.4 95.352L427.44 96.744L420.712 66.816L429.76 63.568C437.184 60.9387 444.763 58.7733 452.496 57.072C460.384 55.3707 468.195 54.52 475.928 54.52C493.56 54.52 507.635 58.8507 518.152 67.512C528.67 76.0187 533.928 88.3147 533.928 104.4V136.88C533.928 139.973 534.856 142.293 536.712 143.84C538.568 145.232 541.894 146.392 546.688 147.32L543.208 177.944C540.734 178.563 538.182 179.104 535.552 179.568C532.923 180.187 530.758 180.496 529.056 180.496C519.312 180.496 511.347 178.872 505.16 175.624C499.128 172.376 494.566 168.045 491.472 162.632L486.6 166.808C481.342 171.448 475.464 174.928 468.968 177.248C462.627 179.568 456.595 180.728 450.872 180.728ZM466.648 147.784C468.504 147.784 470.592 147.552 472.912 147.088C475.232 146.469 477.63 145.619 480.104 144.536L484.048 142.68V125.744L467.344 129.92C463.478 130.848 460.926 132.163 459.688 133.864C458.451 135.411 457.832 137.267 457.832 139.432C457.832 142.216 458.683 144.304 460.384 145.696C462.086 147.088 464.174 147.784 466.648 147.784ZM599.1 180.728C583.324 180.728 571.956 177.325 564.996 170.52C558.191 163.56 554.788 153.661 554.788 140.824V7.42401L605.132 5.24521e-06V134.56C605.132 137.035 606.06 138.968 607.916 140.36C609.772 141.597 612.479 142.216 616.036 142.216C616.81 142.216 617.66 142.216 618.588 142.216C619.516 142.061 620.522 141.984 621.604 141.984L620.212 177.016C617.274 178.099 613.871 178.949 610.004 179.568C606.292 180.341 602.658 180.728 599.1 180.728ZM698.42 180.728C685.428 180.728 673.519 178.331 662.692 173.536C652.02 168.587 643.513 161.472 637.172 152.192C630.831 142.757 627.66 131.312 627.66 117.856C627.66 107.339 629.516 98.136 633.228 90.248C637.095 82.2053 642.276 75.5547 648.772 70.296C655.268 65.0373 662.615 61.0933 670.812 58.464C679.009 55.8347 687.593 54.52 696.564 54.52C709.401 54.52 720.383 57.1493 729.508 62.408C738.788 67.6667 745.903 75.168 750.852 84.912C755.956 94.5013 758.508 106.024 758.508 119.48V129.92H678.7C679.937 133.323 681.793 136.029 684.268 138.04C686.743 140.051 689.836 141.52 693.548 142.448C697.26 143.221 701.513 143.608 706.308 143.608C710.175 143.608 714.351 143.376 718.836 142.912C723.321 142.293 728.039 141.443 732.988 140.36L745.284 137.808L757.348 167.504L744.124 172.376C736.391 175.315 728.657 177.403 720.924 178.64C713.191 180.032 705.689 180.728 698.42 180.728ZM677.54 104.168H715.356C714.737 98.4453 713.113 94.2693 710.484 91.64C707.855 89.0107 703.601 87.696 697.724 87.696C694.321 87.696 691.228 88.2373 688.444 89.32C685.66 90.248 683.34 91.872 681.484 94.192C679.783 96.512 678.468 99.8373 677.54 104.168ZM109.561 387.64V225.24H242.033V269.32H161.297V286.256H232.753V324.536H161.297V343.096H243.657V387.64H109.561ZM262.264 387.64V225.24H348.104C360.323 225.24 370.918 227.483 379.888 231.968C388.859 236.299 395.742 242.485 400.536 250.528C405.486 258.571 407.96 268.083 407.96 279.064C407.96 289.736 405.795 298.552 401.464 305.512C397.134 312.472 391.334 317.963 384.064 321.984C376.795 326.005 368.675 328.867 359.704 330.568C350.888 332.269 341.995 333.12 333.024 333.12H314V387.64H262.264ZM360.168 387.64L329.08 329.872L377.8 321.288L417.008 387.64H360.168ZM314 298.552H336.504C343.619 298.552 348.8 297.315 352.048 294.84C355.451 292.211 357.152 288.267 357.152 283.008C357.152 277.595 355.528 273.728 352.28 271.408C349.032 269.088 343.774 267.928 336.504 267.928H314V298.552ZM432.186 387.64V225.24H518.026C530.709 225.24 541.458 227.715 550.274 232.664C559.09 237.613 565.818 244.496 570.458 253.312C575.098 262.128 577.418 272.413 577.418 284.168C577.418 296.077 574.866 306.44 569.762 315.256C564.813 324.072 557.853 330.877 548.882 335.672C539.912 340.467 529.394 342.864 517.33 342.864H483.922V387.64H432.186ZM483.922 299.48H503.874C510.68 299.48 515.784 298.475 519.186 296.464C522.744 294.299 524.522 290.045 524.522 283.704C524.522 277.363 522.744 273.109 519.186 270.944C515.784 268.779 510.68 267.696 503.874 267.696H483.922V299.48ZM606.377 331.264L597.097 268.16V225.24H651.153V268.16L641.873 331.264H606.377ZM624.241 389.728C615.425 389.728 608.233 387.408 602.665 382.768C597.097 377.973 594.313 371.787 594.313 364.208C594.313 356.784 597.097 350.829 602.665 346.344C608.233 341.704 615.425 339.384 624.241 339.384C632.902 339.384 640.017 341.704 645.585 346.344C651.153 350.829 653.937 356.784 653.937 364.208C653.937 371.787 651.153 377.973 645.585 382.768C640.017 387.408 632.902 389.728 624.241 389.728Z" fill="white"/>
</svg>
