<svg width="64" height="64" viewBox="0 0 64 64" fill="none" xmlns="http://www.w3.org/2000/svg">
<path d="M32.5867 5.33337H31.4133C29.9989 5.33337 28.6423 5.89528 27.6421 6.89547C26.6419 7.89566 26.08 9.25222 26.08 10.6667V11.1467C26.079 12.082 25.8322 13.0005 25.3641 13.8103C24.8961 14.62 24.2233 15.2924 23.4133 15.76L22.2667 16.4267C21.4559 16.8948 20.5362 17.1412 19.6 17.1412C18.6638 17.1412 17.7441 16.8948 16.9333 16.4267L16.5333 16.2134C15.3095 15.5074 13.8556 15.3159 12.4907 15.6809C11.1258 16.0458 9.96148 16.9375 9.25334 18.16L8.66667 19.1734C7.96071 20.3972 7.76919 21.8511 8.13416 23.216C8.49913 24.5809 9.39077 25.7452 10.6133 26.4534L11.0133 26.72C11.8194 27.1854 12.4897 27.8536 12.9575 28.6583C13.4253 29.4629 13.6744 30.376 13.68 31.3067V32.6667C13.6837 33.6065 13.4391 34.5306 12.9708 35.3454C12.5025 36.1602 11.8272 36.8368 11.0133 37.3067L10.6133 37.5467C9.39077 38.2548 8.49913 39.4191 8.13416 40.784C7.76919 42.1489 7.96071 43.6029 8.66667 44.8267L9.25334 45.84C9.96148 47.0626 11.1258 47.9542 12.4907 48.3192C13.8556 48.6842 15.3095 48.4927 16.5333 47.7867L16.9333 47.5734C17.7441 47.1053 18.6638 46.8588 19.6 46.8588C20.5362 46.8588 21.4559 47.1053 22.2667 47.5734L23.4133 48.24C24.2233 48.7077 24.8961 49.3801 25.3641 50.1898C25.8322 50.9995 26.079 51.9181 26.08 52.8534V53.3334C26.08 54.7479 26.6419 56.1044 27.6421 57.1046C28.6423 58.1048 29.9989 58.6667 31.4133 58.6667H32.5867C34.0012 58.6667 35.3577 58.1048 36.3579 57.1046C37.3581 56.1044 37.92 54.7479 37.92 53.3334V52.8534C37.921 51.9181 38.1679 50.9995 38.6359 50.1898C39.104 49.3801 39.7767 48.7077 40.5867 48.24L41.7333 47.5734C42.5441 47.1053 43.4638 46.8588 44.4 46.8588C45.3362 46.8588 46.2559 47.1053 47.0667 47.5734L47.4667 47.7867C48.6905 48.4927 50.1444 48.6842 51.5093 48.3192C52.8742 47.9542 54.0385 47.0626 54.7467 45.84L55.3333 44.8C56.0393 43.5762 56.2308 42.1223 55.8659 40.7574C55.5009 39.3925 54.6092 38.2282 53.3867 37.52L52.9867 37.3067C52.1728 36.8368 51.4975 36.1602 51.0292 35.3454C50.5609 34.5306 50.3163 33.6065 50.32 32.6667V31.3334C50.3163 30.3936 50.5609 29.4695 51.0292 28.6547C51.4975 27.8399 52.1728 27.1633 52.9867 26.6934L53.3867 26.4534C54.6092 25.7452 55.5009 24.5809 55.8659 23.216C56.2308 21.8511 56.0393 20.3972 55.3333 19.1734L54.7467 18.16C54.0385 16.9375 52.8742 16.0458 51.5093 15.6809C50.1444 15.3159 48.6905 15.5074 47.4667 16.2134L47.0667 16.4267C46.2559 16.8948 45.3362 17.1412 44.4 17.1412C43.4638 17.1412 42.5441 16.8948 41.7333 16.4267L40.5867 15.76C39.7767 15.2924 39.104 14.62 38.6359 13.8103C38.1679 13.0005 37.921 12.082 37.92 11.1467V10.6667C37.92 9.25222 37.3581 7.89566 36.3579 6.89547C35.3577 5.89528 34.0012 5.33337 32.5867 5.33337Z" stroke="url(#paint0_linear_2836_1960)" stroke-width="4" stroke-linecap="round" stroke-linejoin="round"/>
<path d="M32 40C36.4183 40 40 36.4183 40 32C40 27.5817 36.4183 24 32 24C27.5817 24 24 27.5817 24 32C24 36.4183 27.5817 40 32 40Z" stroke="url(#paint1_linear_2836_1960)" stroke-width="4" stroke-linecap="round" stroke-linejoin="round"/>
<defs>
<linearGradient id="paint0_linear_2836_1960" x1="32" y1="5.33337" x2="32" y2="58.6667" gradientUnits="userSpaceOnUse">
<stop stop-color="white"/>
<stop offset="1" stop-color="white" stop-opacity="0"/>
</linearGradient>
<linearGradient id="paint1_linear_2836_1960" x1="32" y1="24" x2="32" y2="40" gradientUnits="userSpaceOnUse">
<stop stop-color="white"/>
<stop offset="1" stop-color="white" stop-opacity="0"/>
</linearGradient>
</defs>
</svg>
