<svg width="191" height="60" viewBox="0 0 191 60" fill="none" xmlns="http://www.w3.org/2000/svg">
<g opacity="0.95">
<g clip-path="url(#clip0_2761_1571)">
<path d="M49.3397 18.6773C49.2304 18.3694 48.4523 16.823 48.3108 17.8424C48.209 18.5809 48.3718 19.1967 48.0167 19.947C47.8822 20.2311 47.7163 20.4583 47.5271 20.6448C47.3379 20.8313 47.1261 20.9765 46.8986 21.0966C46.0519 21.5428 44.9998 21.6336 44.1746 22.1855C43.5221 22.6223 43.0583 23.2919 42.8251 24.0354C42.8151 24.0686 42.7849 24.0899 42.7516 24.0899C42.5511 24.0886 42.4348 23.8802 42.2519 23.787C41.4405 23.3714 40.6134 23.2538 39.702 23.3489C38.2451 23.5003 37.3319 24.6719 35.7951 23.551C35.6707 23.4603 34.6437 22.2813 34.5387 22.715C34.4193 23.2093 34.6537 23.9128 34.836 24.3665C35.0453 24.8815 35.3401 25.384 35.7241 25.7858C36.2653 26.3534 36.8812 26.8503 37.5506 27.2621C37.7649 27.3935 37.9836 27.5086 38.2049 27.6131C38.3004 27.6582 38.3966 27.702 38.4927 27.7439C38.9371 27.9392 39.3896 28.1094 39.8397 28.3134C40.2488 28.4993 40.6586 28.6839 41.0678 28.8691C41.2783 28.9649 41.4883 29.0625 41.7001 29.1558C41.8195 29.2077 42.015 29.2284 42.0671 29.3629C42.0879 29.4161 42.0885 29.4743 42.0753 29.5306C41.6592 30.2591 41.0778 30.8548 40.355 31.2929C39.7925 31.6327 39.1816 31.8111 38.5606 32.0026C37.4268 32.353 36.308 32.624 35.1107 32.5695C33.7254 32.507 32.2993 32.0708 30.9354 31.8229C29.4251 31.5488 27.9104 31.261 26.4472 30.7891C23.7898 29.9318 21.1362 28.652 18.4926 27.8816C17.6026 27.6225 16.4826 27.5161 15.6618 27.1632C15.3161 27.0142 14.9962 26.7308 14.658 26.5743C13.6694 26.1181 12.5776 26.2839 11.4903 26.0474C9.04913 25.5161 4.98827 23.6587 2.55904 24.3264C1.99778 24.4804 1.61312 25.0154 1.42205 25.0711C1.11094 25.1612 0.880269 25.0098 0.491845 25.2276C-0.37614 25.7138 0.114105 27.5969 0.384368 28.371C0.997803 30.1283 2.14925 30.9387 3.32269 32.231C5.19882 34.2968 6.8996 36.4908 9.05102 38.2932C9.98248 39.0735 10.9554 39.7519 11.9768 40.3608C11.9208 40.4297 11.8674 40.5004 11.831 40.5799C11.7304 40.7989 11.7624 41.0436 11.731 41.2733C11.6921 41.5599 11.5488 41.7864 11.4168 42.0342C11.1484 42.5368 11.3784 42.9661 11.5286 43.4748C11.709 44.0863 11.6845 44.6601 11.5462 45.2759C11.3998 45.9324 11.6235 46.2628 11.8737 46.8467C12.0264 47.2053 12.0931 47.5945 12.1433 47.9788C12.1949 48.3768 12.3055 48.7667 12.401 49.1584C12.4777 49.4726 12.6562 49.6691 12.8215 49.9407C12.9686 50.1822 13.1012 50.4319 13.2458 50.6741C13.5254 51.1435 13.8592 51.6103 14.3651 51.8556C14.7661 52.0496 15.2074 52.0083 15.4682 51.6116C15.7341 51.2092 15.5015 50.6203 15.5348 50.161C15.5782 49.5752 15.4871 48.9988 15.4896 48.4168C15.4915 47.8887 15.6008 47.4443 15.7089 46.9331C15.8158 46.428 15.9289 45.9505 16.1036 45.463C16.2746 44.9862 16.482 44.5644 16.4839 44.0593C16.4858 43.5412 16.3318 43.1087 16.1426 42.6344C16.0741 42.4635 16.0056 42.2927 15.949 42.1175L18.1193 42.8353C18.35 43.2921 18.7585 43.6526 19.14 44.0875C19.854 44.9023 20.2273 45.8041 20.4549 46.8511C20.6975 47.9675 21.2795 48.318 22.0821 49.0414C22.5749 49.4857 22.9564 50.0389 23.3077 50.5965C23.6723 51.1729 24.121 51.6961 24.5484 52.2318C24.8916 52.6617 25.3077 52.8388 25.7564 53.1404C26.1555 53.4083 26.5389 53.6993 26.9349 53.9709C27.7017 54.4959 28.5508 54.979 29.5062 54.9984C30.2629 55.0135 30.9134 54.6374 31.0328 53.8401C31.1542 53.0309 30.3742 52.2881 30.0982 51.5559C29.7456 50.6228 29.1932 49.7986 28.7802 48.8987C28.4056 48.0839 28.2561 47.3211 28.0581 46.4556C27.862 45.6013 27.6942 44.7847 27.615 43.9092C27.593 43.6651 27.5785 43.426 27.5615 43.1907C31.9907 42.5837 36.2401 40.506 39.5355 37.5384C39.8309 37.2725 40.1131 36.9927 40.3921 36.7092C40.9194 36.1742 41.4355 35.631 41.9986 35.1372C42.7258 34.4989 43.3462 33.7091 43.7912 32.8505C44.3241 31.8198 44.5925 30.6721 44.7459 29.5294C44.8075 29.0713 44.805 28.6426 45.101 28.264C45.353 27.9411 45.7025 27.7008 46.04 27.4748C46.4768 27.1826 46.9771 26.9216 47.3291 26.523C47.7647 26.0292 48.1625 25.4773 48.5013 24.8859C49.5798 23.0085 50.0713 20.738 49.3404 18.6773H49.3397ZM17.9552 42.3346C17.2532 42.1362 16.509 41.8815 15.8598 41.6362C15.4204 41.4704 15.0245 41.3089 14.714 41.1725C13.8133 40.7764 13.0019 40.3508 12.2552 39.8965C8.96617 37.8964 6.93417 35.34 4.12029 32.3029C2.81548 30.8949 1.38371 29.8698 0.746395 27.9379C0.478017 27.1231 -0.00908502 25.5417 1.27938 25.5467C2.40694 25.5511 5.3195 26.6813 6.49295 27.125C8.20189 27.7702 11.1302 28.8485 12.3124 30.2096C13.0735 31.087 13.2263 32.1102 13.785 33.0739C14.3149 33.9882 15.0861 34.7886 15.9496 35.3944C16.3462 35.6723 16.7472 35.7574 17.0514 36.1604C17.306 36.4984 17.4562 36.9126 17.5316 37.3257C17.6485 37.9652 17.6058 38.6217 17.6228 39.2713C17.636 39.787 17.7076 40.2757 17.8729 40.7651C18.0137 41.1813 17.9615 41.4992 17.9364 41.9447C17.9289 42.0837 17.9364 42.2126 17.9559 42.334L17.9552 42.3346ZM33.792 40.7282C31.8091 41.6982 29.6759 42.3659 27.5094 42.6463C27.4591 42.2483 27.3742 41.8603 27.1976 41.476C26.8299 40.675 26.2838 40.118 25.6521 39.5204C25.5672 39.4396 25.4824 39.3589 25.3982 39.2782C26.8186 39.5016 28.251 39.827 29.6388 39.9547C29.9147 39.9803 30.1605 39.9935 30.3823 39.996C31.936 40.0116 32.327 39.4853 33.8763 38.7613C34.8392 38.3113 35.687 38.2769 36.6719 38.0078C37.5694 37.7619 38.313 37.2894 39.1715 36.9965C37.6078 38.4865 35.775 39.7582 33.792 40.7282Z" fill="#F5F5F5"/>
</g>
<g clip-path="url(#clip1_2761_1571)">
<path d="M30.5354 19.5542L30.2544 19.9209L30.6222 19.6407L30.7303 20.449L30.8385 19.6407L31.2063 19.9209L30.9253 19.5542L31.7361 19.4464L30.9253 19.3386L31.2063 18.9719L30.8385 19.2521L30.7303 18.4438L30.6222 19.2521L30.2544 18.9719L30.5354 19.3386L29.7246 19.4464L30.5354 19.5542Z" fill="#F5F5F5"/>
<path d="M26.9933 21.236L26.5963 21.7544L27.1163 21.358L27.2691 22.5001L27.422 21.358L27.9427 21.7544L27.545 21.236L28.6906 21.083L27.545 20.9306L27.9427 20.4122L27.422 20.8086L27.2691 19.6659L27.1163 20.8086L26.5963 20.4122L26.9933 20.9306L25.8477 21.083L26.9933 21.236Z" fill="#F5F5F5"/>
<path d="M24.067 18.2868L23.5664 18.9395L24.2212 18.4405L24.4142 19.8795L24.6071 18.4405L25.2625 18.9395L24.7613 18.2868L26.2048 18.0945L24.7613 17.9021L25.2625 17.2487L24.6071 17.7484L24.4142 16.3094L24.2212 17.7484L23.5664 17.2487L24.067 17.9021L22.6235 18.0945L24.067 18.2868Z" fill="#F5F5F5"/>
<path d="M8.47777 15.9596L8.16303 16.3709L8.57491 16.0571L8.69666 16.9622L8.81776 16.0571L9.23028 16.3709L8.9149 15.9596L9.82284 15.8389L8.9149 15.7182L9.23028 15.3069L8.81776 15.6213L8.69666 14.7156L8.57491 15.6213L8.16303 15.3069L8.47777 15.7182L7.56982 15.8389L8.47777 15.9596Z" fill="#F5F5F5"/>
<path d="M11.71 11.166L11.2748 11.7335L11.844 11.2996L12.0118 12.5501L12.1788 11.2996L12.7487 11.7335L12.3135 11.166L13.568 10.9988L12.3135 10.8316L12.7487 10.2641L12.1788 10.6979L12.0118 9.44743L11.844 10.6979L11.2748 10.2641L11.71 10.8316L10.4556 10.9988L11.71 11.166Z" fill="#F5F5F5"/>
<path d="M16.9487 7.9794L16.1943 8.96392L17.1812 8.21181L17.472 10.3797L17.7621 8.21181L18.7497 8.96392L17.9953 7.9794L20.1699 7.69017L17.9953 7.4003L18.7497 6.41578L17.7621 7.16789L17.472 5L17.1812 7.16789L16.1943 6.41578L16.9487 7.4003L14.7734 7.69017L16.9487 7.9794Z" fill="#F5F5F5"/>
<path d="M16.6274 16.3261L15.4876 17.8123L16.9784 16.676L17.4175 19.9505L17.8566 16.676L19.3474 17.8123L18.2076 16.3261L21.4922 15.8884L18.2076 15.4507L19.3474 13.9646L17.8566 15.1008L17.4175 11.8264L16.9784 15.1008L15.4876 13.9646L16.6274 15.4507L13.3428 15.8884L16.6274 16.3261Z" fill="#F5F5F5"/>
</g>
</g>
<path d="M62.98 28.52L58.3 14.5H62.5L65.02 23.5H65.12L67.58 14.48H71.14L73.7 23.44H73.8L76.36 14.5H80.4L75.9 28.52H71.88L69.28 19.94H69.24L66.84 28.52H62.98ZM81.7591 28.5V14.5H85.7991V19.6H91.0391V14.5H95.0791V28.5H91.0391V23.14H85.7991V28.5H81.7591ZM96.6003 28.5L101.72 14.5H106.24L111.44 28.5H107.16L104 18.64H103.94L100.74 28.5H96.6003ZM100.88 26.36V23.32H107.08V26.36H100.88ZM112.931 28.5V14.5H116.971V24.96H123.611V28.5H112.931ZM125.177 28.5V14.5H136.397V17.96H129.217V19.86H135.597V22.92H129.217V25.02H136.537V28.5H125.177ZM144.454 28.5V14.5H155.674V17.96H148.494V19.86H154.874V22.92H148.494V25.02H155.814V28.5H144.454ZM157.599 28.5V14.5H164.739C165.792 14.5 166.699 14.6867 167.459 15.06C168.219 15.4333 168.806 15.96 169.219 16.64C169.646 17.32 169.859 18.1267 169.859 19.06C169.859 19.94 169.679 20.68 169.319 21.28C168.972 21.8667 168.499 22.34 167.899 22.7C167.312 23.0467 166.639 23.3 165.879 23.46C165.132 23.6067 164.366 23.68 163.579 23.68H161.639V28.5H157.599ZM166.179 28.5L163.339 23.38L167.139 22.68L170.639 28.5H166.179ZM161.639 20.86H163.919C164.586 20.86 165.079 20.7333 165.399 20.48C165.719 20.2267 165.879 19.84 165.879 19.32C165.879 18.8133 165.719 18.4467 165.399 18.22C165.092 17.98 164.599 17.86 163.919 17.86H161.639V20.86ZM172.091 28.5V14.5H179.251C180.331 14.5 181.244 14.7067 181.991 15.12C182.751 15.5333 183.324 16.1133 183.711 16.86C184.111 17.6067 184.311 18.4867 184.311 19.5C184.311 20.5133 184.098 21.4 183.671 22.16C183.244 22.9067 182.651 23.4867 181.891 23.9C181.131 24.3 180.231 24.5 179.191 24.5H176.131V28.5H172.091ZM176.131 21.1H178.231C178.871 21.1 179.358 20.9867 179.691 20.76C180.024 20.52 180.191 20.0933 180.191 19.48C180.191 18.8533 180.024 18.4267 179.691 18.2C179.358 17.96 178.871 17.84 178.231 17.84H176.131V21.1ZM61.8848 36.042H63.2559L66.4678 43.8877H66.582L69.7939 36.042H71.2095V45.5H70.0859V38.3145H69.9971L67.02 45.5H65.9917L63.0527 38.3145H62.9639V45.5H61.8848V36.042ZM74.834 45.665C74.3854 45.665 73.9771 45.5804 73.6089 45.4111C73.2407 45.2376 72.9487 44.988 72.7329 44.6621C72.5171 44.3363 72.4092 43.9427 72.4092 43.4814C72.4092 43.0752 72.4896 42.7472 72.6504 42.4976C72.8112 42.2437 73.0249 42.0448 73.2915 41.9009C73.5623 41.7528 73.8586 41.6427 74.1802 41.5708C74.506 41.4989 74.834 41.4417 75.1641 41.3994C75.5957 41.3444 75.9448 41.3021 76.2114 41.2725C76.4823 41.2428 76.679 41.1921 76.8018 41.1201C76.9287 41.0482 76.9922 40.9255 76.9922 40.752V40.7139C76.9922 40.2611 76.8674 39.9098 76.6177 39.6602C76.3722 39.4062 75.9977 39.2793 75.4941 39.2793C74.9779 39.2793 74.5716 39.3936 74.2754 39.6221C73.9792 39.8464 73.7718 40.0876 73.6533 40.3457L72.6123 39.9775C72.7985 39.5459 73.0461 39.2095 73.355 38.9683C73.6681 38.7271 74.0067 38.5578 74.3706 38.4604C74.7388 38.3631 75.1006 38.3145 75.4561 38.3145C75.6846 38.3145 75.9469 38.342 76.2432 38.397C76.5394 38.4478 76.8271 38.5578 77.1064 38.7271C77.39 38.8921 77.6227 39.1439 77.8047 39.4824C77.9909 39.8167 78.084 40.2653 78.084 40.8281V45.5H76.9922V44.5352H76.9414C76.8695 44.6875 76.7467 44.8525 76.5732 45.0303C76.3997 45.2038 76.1691 45.354 75.8813 45.481C75.5978 45.6037 75.2487 45.665 74.834 45.665ZM74.999 44.6875C75.4307 44.6875 75.7946 44.6029 76.0908 44.4336C76.387 44.2643 76.6113 44.0464 76.7637 43.7798C76.916 43.509 76.9922 43.2275 76.9922 42.9355V41.9326C76.9456 41.9876 76.8441 42.0384 76.6875 42.085C76.5352 42.1273 76.3574 42.1654 76.1543 42.1992C75.9554 42.2331 75.7607 42.2627 75.5703 42.2881C75.3799 42.3092 75.2275 42.3262 75.1133 42.3389C74.8298 42.377 74.5653 42.4383 74.3198 42.5229C74.0744 42.6034 73.8755 42.724 73.7231 42.8848C73.575 43.0456 73.501 43.2656 73.501 43.5449C73.501 43.9215 73.6406 44.2072 73.9199 44.4019C74.2035 44.5923 74.5632 44.6875 74.999 44.6875ZM80.5596 41.2344V45.5H79.4805V38.4033H80.5215V39.5205H80.623C80.7881 39.1566 81.0399 38.8646 81.3784 38.6445C81.717 38.4245 82.1549 38.3145 82.6924 38.3145C83.1706 38.3145 83.5895 38.4118 83.9492 38.6064C84.3089 38.8011 84.5882 39.0973 84.7871 39.4951C84.9902 39.8887 85.0918 40.388 85.0918 40.9932V45.5H84.0127V41.0693C84.0127 40.515 83.8667 40.0812 83.5747 39.7681C83.2827 39.4507 82.8849 39.292 82.3813 39.292C82.0343 39.292 81.7233 39.3682 81.4482 39.5205C81.1732 39.6729 80.9552 39.8929 80.7944 40.1807C80.6379 40.4684 80.5596 40.8197 80.5596 41.2344ZM88.5703 45.665C88.1217 45.665 87.7134 45.5804 87.3452 45.4111C86.9771 45.2376 86.6851 44.988 86.4692 44.6621C86.2534 44.3363 86.1455 43.9427 86.1455 43.4814C86.1455 43.0752 86.2259 42.7472 86.3867 42.4976C86.5475 42.2437 86.7612 42.0448 87.0278 41.9009C87.2987 41.7528 87.5949 41.6427 87.9165 41.5708C88.2424 41.4989 88.5703 41.4417 88.9004 41.3994C89.332 41.3444 89.6812 41.3021 89.9478 41.2725C90.2186 41.2428 90.4154 41.1921 90.5381 41.1201C90.665 41.0482 90.7285 40.9255 90.7285 40.752V40.7139C90.7285 40.2611 90.6037 39.9098 90.354 39.6602C90.1086 39.4062 89.734 39.2793 89.2305 39.2793C88.7142 39.2793 88.3079 39.3936 88.0117 39.6221C87.7155 39.8464 87.5081 40.0876 87.3896 40.3457L86.3486 39.9775C86.5348 39.5459 86.7824 39.2095 87.0913 38.9683C87.4045 38.7271 87.743 38.5578 88.1069 38.4604C88.4751 38.3631 88.8369 38.3145 89.1924 38.3145C89.4209 38.3145 89.6833 38.342 89.9795 38.397C90.2757 38.4478 90.5635 38.5578 90.8428 38.7271C91.1263 38.8921 91.359 39.1439 91.541 39.4824C91.7272 39.8167 91.8203 40.2653 91.8203 40.8281V45.5H90.7285V44.5352H90.6777C90.6058 44.6875 90.4831 44.8525 90.3096 45.0303C90.1361 45.2038 89.9054 45.354 89.6177 45.481C89.3341 45.6037 88.985 45.665 88.5703 45.665ZM88.7354 44.6875C89.167 44.6875 89.5309 44.6029 89.8271 44.4336C90.1234 44.2643 90.3477 44.0464 90.5 43.7798C90.6523 43.509 90.7285 43.2275 90.7285 42.9355V41.9326C90.682 41.9876 90.5804 42.0384 90.4238 42.085C90.2715 42.1273 90.0938 42.1654 89.8906 42.1992C89.6917 42.2331 89.4971 42.2627 89.3066 42.2881C89.1162 42.3092 88.9639 42.3262 88.8496 42.3389C88.5661 42.377 88.3016 42.4383 88.0562 42.5229C87.8107 42.6034 87.6118 42.724 87.4595 42.8848C87.3114 43.0456 87.2373 43.2656 87.2373 43.5449C87.2373 43.9215 87.377 44.2072 87.6562 44.4019C87.9398 44.5923 88.2995 44.6875 88.7354 44.6875ZM96.0732 48.3057C95.2819 48.3057 94.6556 48.1618 94.1943 47.874C93.7373 47.5863 93.3988 47.2562 93.1787 46.8838L94.042 46.2744C94.1393 46.4056 94.2642 46.5537 94.4165 46.7188C94.5688 46.888 94.7762 47.034 95.0386 47.1567C95.3009 47.2795 95.6458 47.3408 96.0732 47.3408C96.6445 47.3408 97.1164 47.2033 97.4888 46.9282C97.8654 46.6532 98.0537 46.2194 98.0537 45.627V44.1924H97.9521C97.876 44.3193 97.7638 44.478 97.6157 44.6685C97.4718 44.8547 97.2624 45.0218 96.9873 45.1699C96.7165 45.3138 96.3483 45.3857 95.8828 45.3857C95.3115 45.3857 94.7995 45.2503 94.3467 44.9795C93.8939 44.7087 93.5342 44.3151 93.2676 43.7988C93.0052 43.2826 92.874 42.6562 92.874 41.9199C92.874 41.1921 93.001 40.5594 93.2549 40.022C93.513 39.4803 93.8706 39.0614 94.3276 38.7651C94.7847 38.4647 95.3115 38.3145 95.9082 38.3145C96.3695 38.3145 96.7355 38.3906 97.0063 38.543C97.2814 38.6953 97.4909 38.8688 97.6348 39.0635C97.7829 39.2539 97.8971 39.4105 97.9775 39.5332H98.0918V38.4033H99.1328V45.7031C99.1328 46.3125 98.9953 46.8076 98.7202 47.1885C98.4494 47.5736 98.0812 47.855 97.6157 48.0327C97.1545 48.2147 96.6403 48.3057 96.0732 48.3057ZM96.0352 44.4082C96.6911 44.4082 97.1925 44.186 97.5396 43.7417C97.8908 43.2974 98.0664 42.6816 98.0664 41.8945C98.0664 41.3825 97.9902 40.9318 97.8379 40.5425C97.6855 40.1532 97.457 39.8485 97.1523 39.6284C96.8519 39.4041 96.4795 39.292 96.0352 39.292C95.5739 39.292 95.1888 39.4105 94.8799 39.6475C94.5752 39.8802 94.3467 40.1934 94.1943 40.5869C94.042 40.9805 93.9658 41.4163 93.9658 41.8945C93.9658 42.3854 94.042 42.8213 94.1943 43.2021C94.3509 43.5788 94.5837 43.875 94.8926 44.0908C95.2015 44.3024 95.5824 44.4082 96.0352 44.4082ZM103.5 45.6523C102.819 45.6523 102.228 45.5 101.729 45.1953C101.234 44.8906 100.853 44.4653 100.586 43.9194C100.32 43.3693 100.187 42.7324 100.187 42.0088C100.187 41.2809 100.318 40.6398 100.58 40.0854C100.842 39.5311 101.211 39.0973 101.685 38.7842C102.163 38.471 102.721 38.3145 103.36 38.3145C103.729 38.3145 104.095 38.3758 104.458 38.4985C104.822 38.6213 105.153 38.8201 105.449 39.0952C105.749 39.3703 105.988 39.7342 106.166 40.187C106.344 40.6398 106.433 41.1963 106.433 41.8564V42.3262H100.961V41.3867H105.842L105.341 41.7422C105.341 41.2682 105.267 40.8472 105.119 40.479C104.971 40.1108 104.748 39.821 104.452 39.6094C104.16 39.3978 103.796 39.292 103.36 39.292C102.924 39.292 102.55 39.3999 102.237 39.6157C101.928 39.8273 101.691 40.1045 101.526 40.4473C101.361 40.79 101.278 41.1582 101.278 41.5518V42.1738C101.278 42.7113 101.371 43.1662 101.558 43.5386C101.744 43.911 102.004 44.1945 102.338 44.3892C102.673 44.5796 103.06 44.6748 103.5 44.6748C103.784 44.6748 104.042 44.6346 104.274 44.5542C104.507 44.4696 104.708 44.3447 104.877 44.1797C105.047 44.0104 105.176 43.8031 105.265 43.5576L106.318 43.8623C106.208 44.2178 106.022 44.5309 105.76 44.8018C105.502 45.0684 105.18 45.2778 104.795 45.4302C104.41 45.5783 103.978 45.6523 103.5 45.6523ZM107.461 45.5V38.4033H108.502V39.5205H108.604C108.752 39.1396 108.991 38.8434 109.321 38.6318C109.651 38.4202 110.047 38.3145 110.508 38.3145C110.973 38.3145 111.361 38.4202 111.669 38.6318C111.983 38.8434 112.226 39.1396 112.399 39.5205H112.476C112.662 39.1523 112.935 38.8604 113.294 38.6445C113.658 38.4245 114.092 38.3145 114.596 38.3145C115.23 38.3145 115.751 38.5133 116.157 38.9111C116.563 39.3047 116.767 39.9183 116.767 40.752V45.5H115.675V40.752C115.675 40.2272 115.531 39.8527 115.243 39.6284C114.955 39.4041 114.617 39.292 114.228 39.292C113.732 39.292 113.347 39.4443 113.072 39.749C112.801 40.0495 112.666 40.4261 112.666 40.8789V45.5H111.549V40.6377C111.549 40.2357 111.42 39.9119 111.162 39.6665C110.903 39.4168 110.567 39.292 110.152 39.292C109.869 39.292 109.604 39.3682 109.359 39.5205C109.113 39.6729 108.915 39.8823 108.762 40.1489C108.614 40.4155 108.54 40.7223 108.54 41.0693V45.5H107.461ZM121.134 45.6523C120.452 45.6523 119.862 45.5 119.363 45.1953C118.868 44.8906 118.487 44.4653 118.22 43.9194C117.954 43.3693 117.82 42.7324 117.82 42.0088C117.82 41.2809 117.951 40.6398 118.214 40.0854C118.476 39.5311 118.844 39.0973 119.318 38.7842C119.797 38.471 120.355 38.3145 120.994 38.3145C121.362 38.3145 121.728 38.3758 122.092 38.4985C122.456 38.6213 122.786 38.8201 123.083 39.0952C123.383 39.3703 123.622 39.7342 123.8 40.187C123.978 40.6398 124.066 41.1963 124.066 41.8564V42.3262H118.595V41.3867H123.476L122.975 41.7422C122.975 41.2682 122.901 40.8472 122.752 40.479C122.604 40.1108 122.382 39.821 122.086 39.6094C121.794 39.3978 121.43 39.292 120.994 39.292C120.558 39.292 120.184 39.3999 119.871 39.6157C119.562 39.8273 119.325 40.1045 119.16 40.4473C118.995 40.79 118.912 41.1582 118.912 41.5518V42.1738C118.912 42.7113 119.005 43.1662 119.191 43.5386C119.378 43.911 119.638 44.1945 119.972 44.3892C120.306 44.5796 120.694 44.6748 121.134 44.6748C121.417 44.6748 121.675 44.6346 121.908 44.5542C122.141 44.4696 122.342 44.3447 122.511 44.1797C122.681 44.0104 122.81 43.8031 122.898 43.5576L123.952 43.8623C123.842 44.2178 123.656 44.5309 123.394 44.8018C123.135 45.0684 122.814 45.2778 122.429 45.4302C122.044 45.5783 121.612 45.6523 121.134 45.6523ZM126.174 41.2344V45.5H125.095V38.4033H126.136V39.5205H126.237C126.402 39.1566 126.654 38.8646 126.993 38.6445C127.331 38.4245 127.769 38.3145 128.307 38.3145C128.785 38.3145 129.204 38.4118 129.563 38.6064C129.923 38.8011 130.202 39.0973 130.401 39.4951C130.604 39.8887 130.706 40.388 130.706 40.9932V45.5H129.627V41.0693C129.627 40.515 129.481 40.0812 129.189 39.7681C128.897 39.4507 128.499 39.292 127.996 39.292C127.649 39.292 127.338 39.3682 127.062 39.5205C126.787 39.6729 126.569 39.8929 126.409 40.1807C126.252 40.4684 126.174 40.8197 126.174 41.2344ZM135.175 38.4033V39.3301H131.506V38.4033H135.175ZM132.572 36.7148H133.651V43.4688C133.651 43.8369 133.728 44.1077 133.88 44.2812C134.032 44.4505 134.273 44.5352 134.604 44.5352C134.675 44.5352 134.75 44.5309 134.826 44.5225C134.906 44.514 134.993 44.5013 135.086 44.4844L135.314 45.4619C135.213 45.5 135.088 45.5296 134.94 45.5508C134.796 45.5762 134.65 45.5889 134.502 45.5889C133.931 45.5889 133.465 45.4196 133.105 45.0811C132.75 44.7425 132.572 44.3024 132.572 43.7607V36.7148ZM142.398 45.665C141.721 45.665 141.135 45.5571 140.64 45.3413C140.145 45.1213 139.756 44.8166 139.472 44.4272C139.193 44.0337 139.034 43.5788 138.996 43.0625H140.177C140.211 43.418 140.331 43.7121 140.539 43.9448C140.75 44.1776 141.019 44.3511 141.345 44.4653C141.671 44.5796 142.022 44.6367 142.398 44.6367C142.834 44.6367 143.226 44.5648 143.573 44.4209C143.924 44.277 144.201 44.076 144.404 43.8179C144.607 43.5597 144.709 43.2572 144.709 42.9102C144.709 42.597 144.62 42.3431 144.442 42.1484C144.265 41.9538 144.032 41.7951 143.744 41.6724C143.461 41.5496 143.152 41.4417 142.817 41.3486L141.662 41.0186C140.922 40.807 140.335 40.5044 139.904 40.1108C139.476 39.7131 139.263 39.1947 139.263 38.5557C139.263 38.0267 139.404 37.5654 139.688 37.1719C139.976 36.7741 140.363 36.4652 140.85 36.2451C141.34 36.0251 141.886 35.915 142.487 35.915C143.097 35.915 143.638 36.0251 144.112 36.2451C144.586 36.4609 144.963 36.7572 145.242 37.1338C145.521 37.5062 145.67 37.9294 145.687 38.4033H144.569C144.514 37.9378 144.29 37.576 143.896 37.3179C143.507 37.0597 143.025 36.9307 142.449 36.9307C142.035 36.9307 141.671 36.9984 141.357 37.1338C141.044 37.2692 140.801 37.4554 140.627 37.6924C140.454 37.9294 140.367 38.2002 140.367 38.5049C140.367 38.8392 140.471 39.11 140.678 39.3174C140.886 39.5205 141.131 39.6792 141.415 39.7935C141.702 39.9077 141.963 39.9987 142.195 40.0664L143.147 40.333C143.393 40.4007 143.666 40.4917 143.966 40.606C144.271 40.7202 144.563 40.8747 144.842 41.0693C145.126 41.264 145.359 41.5137 145.541 41.8184C145.722 42.1188 145.813 42.4912 145.813 42.9355C145.813 43.4434 145.68 43.9046 145.414 44.3193C145.147 44.7298 144.76 45.0578 144.252 45.3032C143.744 45.5444 143.126 45.665 142.398 45.665ZM147.642 48.1533C147.455 48.1576 147.29 48.1449 147.146 48.1152C147.003 48.0856 146.901 48.056 146.842 48.0264L147.121 47.0742L147.229 47.0996C147.593 47.1842 147.898 47.1652 148.143 47.0425C148.393 46.924 148.611 46.6087 148.797 46.0967L149 45.5381L146.385 38.4033H147.565L149.521 44.0654H149.597L151.552 38.4033H152.732L149.724 46.5283C149.588 46.8965 149.421 47.2012 149.222 47.4424C149.023 47.6836 148.793 47.8613 148.53 47.9756C148.268 48.0941 147.972 48.1533 147.642 48.1533ZM158.585 40.0029L157.607 40.2695C157.514 40.0283 157.354 39.7998 157.125 39.584C156.901 39.3639 156.549 39.2539 156.071 39.2539C155.64 39.2539 155.28 39.3555 154.992 39.5586C154.704 39.7575 154.561 40.0072 154.561 40.3076C154.561 40.5785 154.658 40.7943 154.853 40.9551C155.051 41.1159 155.36 41.2471 155.779 41.3486L156.833 41.6025C157.464 41.7549 157.933 41.9897 158.242 42.3071C158.555 42.6245 158.712 43.0286 158.712 43.5195C158.712 43.9258 158.596 44.2897 158.363 44.6113C158.13 44.9329 157.806 45.1868 157.392 45.373C156.977 45.5592 156.494 45.6523 155.944 45.6523C155.221 45.6523 154.622 45.4937 154.148 45.1763C153.678 44.8589 153.38 44.3997 153.253 43.7988L154.281 43.5449C154.379 43.9258 154.565 44.2114 154.84 44.4019C155.119 44.5923 155.483 44.6875 155.932 44.6875C156.435 44.6875 156.837 44.5796 157.138 44.3638C157.442 44.1437 157.595 43.8835 157.595 43.583C157.595 43.0837 157.243 42.7493 156.541 42.5801L155.36 42.3008C154.709 42.1442 154.23 41.9051 153.926 41.5835C153.621 41.2619 153.469 40.8577 153.469 40.3711C153.469 39.9691 153.581 39.6136 153.805 39.3047C154.034 38.9958 154.345 38.7546 154.738 38.5811C155.132 38.4033 155.576 38.3145 156.071 38.3145C156.778 38.3145 157.33 38.471 157.728 38.7842C158.13 39.0931 158.416 39.4993 158.585 40.0029ZM162.825 38.4033V39.3301H159.156V38.4033H162.825ZM160.223 36.7148H161.302V43.4688C161.302 43.8369 161.378 44.1077 161.53 44.2812C161.683 44.4505 161.924 44.5352 162.254 44.5352C162.326 44.5352 162.4 44.5309 162.476 44.5225C162.556 44.514 162.643 44.5013 162.736 44.4844L162.965 45.4619C162.863 45.5 162.738 45.5296 162.59 45.5508C162.446 45.5762 162.3 45.5889 162.152 45.5889C161.581 45.5889 161.116 45.4196 160.756 45.0811C160.4 44.7425 160.223 44.3024 160.223 43.7607V36.7148ZM166.761 45.6523C166.079 45.6523 165.489 45.5 164.99 45.1953C164.495 44.8906 164.114 44.4653 163.847 43.9194C163.581 43.3693 163.447 42.7324 163.447 42.0088C163.447 41.2809 163.578 40.6398 163.841 40.0854C164.103 39.5311 164.471 39.0973 164.945 38.7842C165.424 38.471 165.982 38.3145 166.621 38.3145C166.989 38.3145 167.355 38.3758 167.719 38.4985C168.083 38.6213 168.413 38.8201 168.709 39.0952C169.01 39.3703 169.249 39.7342 169.427 40.187C169.604 40.6398 169.693 41.1963 169.693 41.8564V42.3262H164.222V41.3867H169.103L168.602 41.7422C168.602 41.2682 168.528 40.8472 168.379 40.479C168.231 40.1108 168.009 39.821 167.713 39.6094C167.421 39.3978 167.057 39.292 166.621 39.292C166.185 39.292 165.811 39.3999 165.498 39.6157C165.189 39.8273 164.952 40.1045 164.787 40.4473C164.622 40.79 164.539 41.1582 164.539 41.5518V42.1738C164.539 42.7113 164.632 43.1662 164.818 43.5386C165.005 43.911 165.265 44.1945 165.599 44.3892C165.933 44.5796 166.321 44.6748 166.761 44.6748C167.044 44.6748 167.302 44.6346 167.535 44.5542C167.768 44.4696 167.969 44.3447 168.138 44.1797C168.307 44.0104 168.437 43.8031 168.525 43.5576L169.579 43.8623C169.469 44.2178 169.283 44.5309 169.021 44.8018C168.762 45.0684 168.441 45.2778 168.056 45.4302C167.671 45.5783 167.239 45.6523 166.761 45.6523ZM170.722 45.5V38.4033H171.763V39.5205H171.864C172.012 39.1396 172.251 38.8434 172.582 38.6318C172.912 38.4202 173.307 38.3145 173.769 38.3145C174.234 38.3145 174.621 38.4202 174.93 38.6318C175.243 38.8434 175.487 39.1396 175.66 39.5205H175.736C175.923 39.1523 176.195 38.8604 176.555 38.6445C176.919 38.4245 177.353 38.3145 177.856 38.3145C178.491 38.3145 179.012 38.5133 179.418 38.9111C179.824 39.3047 180.027 39.9183 180.027 40.752V45.5H178.936V40.752C178.936 40.2272 178.792 39.8527 178.504 39.6284C178.216 39.4041 177.878 39.292 177.488 39.292C176.993 39.292 176.608 39.4443 176.333 39.749C176.062 40.0495 175.927 40.4261 175.927 40.8789V45.5H174.81V40.6377C174.81 40.2357 174.681 39.9119 174.422 39.6665C174.164 39.4168 173.828 39.292 173.413 39.292C173.13 39.292 172.865 39.3682 172.62 39.5205C172.374 39.6729 172.175 39.8823 172.023 40.1489C171.875 40.4155 171.801 40.7223 171.801 41.0693V45.5H170.722Z" fill="#F5F5F5"/>
<defs>
<clipPath id="clip0_2761_1571">
<rect width="49.6875" height="37.5" fill="white" transform="translate(0 17.5)"/>
</clipPath>
<clipPath id="clip1_2761_1571">
<rect width="24.1667" height="17.5" fill="white" transform="translate(7.57178 5)"/>
</clipPath>
</defs>
</svg>
