<svg width="191" height="60" viewBox="0 0 191 60" fill="none" xmlns="http://www.w3.org/2000/svg">
<g opacity="0.95">
<g clip-path="url(#clip0_2772_14463)">
<g clip-path="url(#clip1_2772_14463)">
<path d="M49.3397 18.6781C49.2304 18.3702 48.4523 16.8238 48.3108 17.8432C48.209 18.5817 48.3718 19.1975 48.0167 19.9478C47.8822 20.2319 47.7163 20.4591 47.5271 20.6456C47.3379 20.8321 47.1261 20.9773 46.8986 21.0974C46.0519 21.5436 44.9998 21.6344 44.1746 22.1863C43.5221 22.6231 43.0583 23.2928 42.8251 24.0362C42.8151 24.0694 42.7849 24.0907 42.7516 24.0907C42.5511 24.0894 42.4348 23.881 42.2519 23.7878C41.4405 23.3722 40.6134 23.2546 39.702 23.3497C38.2451 23.5012 37.3319 24.6727 35.7951 23.5518C35.6707 23.4611 34.6437 22.2821 34.5387 22.7158C34.4193 23.2102 34.6537 23.9136 34.836 24.3673C35.0453 24.8823 35.3401 25.3848 35.7241 25.7866C36.2653 26.3542 36.8812 26.8511 37.5506 27.2629C37.7649 27.3943 37.9836 27.5094 38.2049 27.614C38.3004 27.659 38.3966 27.7028 38.4927 27.7448C38.9371 27.94 39.3896 28.1102 39.8397 28.3142C40.2488 28.5001 40.6586 28.6847 41.0678 28.87C41.2783 28.9657 41.4883 29.0633 41.7001 29.1566C41.8195 29.2085 42.015 29.2292 42.0671 29.3637C42.0879 29.4169 42.0885 29.4751 42.0753 29.5314C41.6592 30.2599 41.0778 30.8556 40.355 31.2937C39.7925 31.6335 39.1816 31.8119 38.5606 32.0034C37.4268 32.3538 36.308 32.6248 35.1107 32.5703C33.7254 32.5078 32.2993 32.0716 30.9354 31.8238C29.4251 31.5497 27.9104 31.2618 26.4472 30.7899C23.7898 29.9326 21.1362 28.6528 18.4926 27.8824C17.6027 27.6233 16.4826 27.517 15.6618 27.164C15.3161 27.0151 14.9962 26.7316 14.658 26.5751C13.6694 26.1189 12.5776 26.2847 11.4903 26.0482C9.04913 25.5169 4.98827 23.6595 2.55904 24.3272C1.99778 24.4812 1.61312 25.0162 1.42205 25.0719C1.11094 25.162 0.880269 25.0106 0.491845 25.2284C-0.37614 25.7146 0.114105 27.5977 0.384368 28.3718C0.997803 30.1291 2.14925 30.9395 3.32269 32.2318C5.19882 34.2976 6.8996 36.4917 9.05102 38.294C9.98248 39.0744 10.9554 39.7527 11.9768 40.3616C11.9208 40.4305 11.8674 40.5012 11.831 40.5807C11.7304 40.7997 11.7624 41.0444 11.731 41.2741C11.6921 41.5607 11.5488 41.7872 11.4168 42.035C11.1484 42.5376 11.3784 42.9669 11.5286 43.4757C11.709 44.0871 11.6845 44.6609 11.5462 45.2767C11.3998 45.9332 11.6235 46.2636 11.8737 46.8475C12.0264 47.2061 12.0931 47.5953 12.1433 47.9796C12.1949 48.3776 12.3055 48.7675 12.401 49.1592C12.4777 49.4734 12.6562 49.6699 12.8215 49.9415C12.9686 50.1831 13.1012 50.4327 13.2458 50.6749C13.5254 51.1443 13.8592 51.6111 14.3651 51.8565C14.7661 52.0505 15.2074 52.0092 15.4682 51.6124C15.7341 51.21 15.5015 50.6211 15.5348 50.1618C15.5782 49.576 15.4871 48.9997 15.4896 48.4177C15.4915 47.8895 15.6008 47.4451 15.7089 46.9339C15.8158 46.4288 15.9289 45.9513 16.1036 45.4638C16.2746 44.987 16.482 44.5652 16.4839 44.0602C16.4858 43.542 16.3318 43.1096 16.1426 42.6352C16.0741 42.4644 16.0056 42.2935 15.949 42.1183L18.1193 42.8361C18.35 43.2929 18.7585 43.6534 19.14 44.0883C19.854 44.9031 20.2273 45.8049 20.4549 46.8519C20.6975 47.9683 21.2795 48.3188 22.0821 49.0422C22.5749 49.4865 22.9564 50.0397 23.3077 50.5973C23.6723 51.1737 24.121 51.6969 24.5484 52.2326C24.8916 52.6625 25.3077 52.8396 25.7564 53.1412C26.1555 53.4091 26.5389 53.7001 26.9349 53.9717C27.7017 54.4967 28.5508 54.9799 29.5062 54.9993C30.2629 55.0143 30.9134 54.6382 31.0328 53.8409C31.1542 53.0317 30.3742 52.2889 30.0982 51.5567C29.7456 50.6236 29.1932 49.7994 28.7802 48.8995C28.4056 48.0847 28.256 47.3219 28.0581 46.4564C27.862 45.6021 27.6942 44.7855 27.615 43.91C27.593 43.6659 27.5785 43.4268 27.5615 43.1915C31.9907 42.5845 36.2401 40.5068 39.5355 37.5393C39.8309 37.2733 40.1131 36.9935 40.3921 36.7101C40.9194 36.175 41.4355 35.6318 41.9986 35.138C42.7258 34.4997 43.3462 33.7099 43.7912 32.8513C44.3241 31.8206 44.5925 30.6729 44.7459 29.5302C44.8075 29.0721 44.805 28.6434 45.101 28.2648C45.353 27.9419 45.7025 27.7016 46.04 27.4756C46.4768 27.1834 46.9771 26.9224 47.3291 26.5238C47.7647 26.03 48.1625 25.4781 48.5013 24.8867C49.5798 23.0093 50.0706 20.7388 49.3397 18.6781ZM17.9552 42.3354C17.2532 42.1371 16.509 41.8824 15.8598 41.637C15.4204 41.4712 15.0245 41.3097 14.714 41.1733C13.8133 40.7772 13.0019 40.3516 12.2552 39.8973C8.96617 37.8972 6.93417 35.3408 4.12029 32.3038C2.81548 30.8957 1.38371 29.8706 0.746395 27.9388C0.478017 27.1239 -0.00908542 25.5425 1.27938 25.5475C2.40694 25.5519 5.3195 26.6821 6.49295 27.1258C8.20189 27.771 11.1302 28.8493 12.3124 30.2104C13.0735 31.0878 13.2263 32.111 13.785 33.0747C14.3149 33.9891 15.0861 34.7895 15.9496 35.3952C16.3462 35.6731 16.7472 35.7582 17.0514 36.1612C17.306 36.4992 17.4562 36.9134 17.5316 37.3265C17.6485 37.9661 17.6058 38.6225 17.6228 39.2721C17.636 39.7878 17.7076 40.2765 17.8729 40.7659C18.0137 41.1821 17.9615 41.5 17.9364 41.9456C17.9289 42.0845 17.9357 42.214 17.9552 42.3354ZM33.792 40.729C31.8091 41.699 29.6759 42.3667 27.5094 42.6471C27.4591 42.2491 27.3742 41.8611 27.1976 41.4768C26.8299 40.6758 26.2838 40.1188 25.6521 39.5212C25.5672 39.4405 25.4824 39.3597 25.3982 39.279C26.8186 39.5024 28.251 39.8278 29.6388 39.9555C29.9147 39.9812 30.1605 39.9943 30.3823 39.9968C31.936 40.0124 32.327 39.4861 33.8763 38.7621C34.8392 38.3121 35.687 38.2777 36.6719 38.0086C37.5694 37.7627 38.313 37.2902 39.1715 36.9973C37.6078 38.4874 35.775 39.759 33.792 40.729Z" fill="#252B32"/>
</g>
</g>
<g clip-path="url(#clip2_2772_14463)">
<g clip-path="url(#clip3_2772_14463)">
<path d="M30.5189 19.5541L30.2378 19.9208L30.6056 19.6406L30.7138 20.4489L30.8219 19.6406L31.1898 19.9208L30.9087 19.5541L31.7195 19.4463L30.9087 19.3385L31.1898 18.9718L30.8219 19.252L30.7138 18.4437L30.6056 19.252L30.2378 18.9718L30.5189 19.3385L29.708 19.4463L30.5189 19.5541Z" fill="#252B32"/>
<path d="M26.9781 21.2359L26.5813 21.7543L27.1012 21.3579L27.2539 22.5L27.4066 21.3579L27.9271 21.7543L27.5297 21.2359L28.6748 21.0829L27.5297 20.9305L27.9271 20.4121L27.4066 20.8085L27.2539 19.6658L27.1012 20.8085L26.5813 20.4121L26.9781 20.9305L25.833 21.0829L26.9781 21.2359Z" fill="#252B32"/>
<path d="M24.0528 18.2867L23.5524 18.9394L24.2069 18.4404L24.3997 19.8794L24.5926 18.4404L25.2478 18.9394L24.7468 18.2867L26.1897 18.0944L24.7468 17.902L25.2478 17.2486L24.5926 17.7483L24.3997 16.3093L24.2069 17.7483L23.5524 17.2486L24.0528 17.902L22.6099 18.0944L24.0528 18.2867Z" fill="#252B32"/>
<path d="M8.47044 15.9596L8.15571 16.3709L8.56758 16.0571L8.68933 16.9622L8.81043 16.0571L9.22296 16.3709L8.90758 15.9596L9.81552 15.8389L8.90758 15.7182L9.22296 15.3069L8.81043 15.6213L8.68933 14.7156L8.56758 15.6213L8.15571 15.3069L8.47044 15.7182L7.5625 15.8389L8.47044 15.9596Z" fill="#252B32"/>
<path d="M11.7011 11.166L11.2661 11.7334L11.8352 11.2996L12.0028 12.5501L12.1698 11.2996L12.7395 11.7334L12.3045 11.166L13.5583 10.9987L12.3045 10.8315L12.7395 10.2641L12.1698 10.6979L12.0028 9.4474L11.8352 10.6979L11.2661 10.2641L11.7011 10.8315L10.4473 10.9987L11.7011 11.166Z" fill="#252B32"/>
<path d="M16.9376 7.97938L16.1834 8.9639L17.17 8.21179L17.4606 10.3797L17.7506 8.21179L18.7378 8.9639L17.9837 7.97938L20.1574 7.69015L17.9837 7.40029L18.7378 6.41577L17.7506 7.16788L17.4606 5L17.17 7.16788L16.1834 6.41577L16.9376 7.40029L14.7632 7.69015L16.9376 7.97938Z" fill="#252B32"/>
<path d="M16.6163 16.326L15.477 17.8122L16.9671 16.6759L17.406 19.9504L17.8449 16.6759L19.3351 17.8122L18.1958 16.326L21.4791 15.8883L18.1958 15.4506L19.3351 13.9645L17.8449 15.1007L17.406 11.8263L16.9671 15.1007L15.477 13.9645L16.6163 15.4506L13.333 15.8883L16.6163 16.326Z" fill="#252B32"/>
</g>
</g>
</g>
<path d="M62.98 28.5669L58.3 14.5469H62.5L65.02 23.5469H65.12L67.58 14.5269H71.14L73.7 23.4869H73.8L76.36 14.5469H80.4L75.9 28.5669H71.88L69.28 19.9869H69.24L66.84 28.5669H62.98ZM81.7591 28.5469V14.5469H85.7991V19.6469H91.0391V14.5469H95.0791V28.5469H91.0391V23.1869H85.7991V28.5469H81.7591ZM96.6003 28.5469L101.72 14.5469H106.24L111.44 28.5469H107.16L104 18.6869H103.94L100.74 28.5469H96.6003ZM100.88 26.4069V23.3669H107.08V26.4069H100.88ZM112.931 28.5469V14.5469H116.971V25.0069H123.611V28.5469H112.931ZM125.177 28.5469V14.5469H136.397V18.0069H129.217V19.9069H135.597V22.9669H129.217V25.0669H136.537V28.5469H125.177ZM144.454 28.5469V14.5469H155.674V18.0069H148.494V19.9069H154.874V22.9669H148.494V25.0669H155.814V28.5469H144.454ZM157.599 28.5469V14.5469H164.739C165.792 14.5469 166.699 14.7335 167.459 15.1069C168.219 15.4802 168.806 16.0069 169.219 16.6869C169.646 17.3669 169.859 18.1735 169.859 19.1069C169.859 19.9869 169.679 20.7269 169.319 21.3269C168.972 21.9135 168.499 22.3869 167.899 22.7469C167.312 23.0935 166.639 23.3469 165.879 23.5069C165.132 23.6535 164.366 23.7269 163.579 23.7269H161.639V28.5469H157.599ZM166.179 28.5469L163.339 23.4269L167.139 22.7269L170.639 28.5469H166.179ZM161.639 20.9069H163.919C164.586 20.9069 165.079 20.7802 165.399 20.5269C165.719 20.2735 165.879 19.8869 165.879 19.3669C165.879 18.8602 165.719 18.4935 165.399 18.2669C165.092 18.0269 164.599 17.9069 163.919 17.9069H161.639V20.9069ZM172.091 28.5469V14.5469H179.251C180.331 14.5469 181.244 14.7535 181.991 15.1669C182.751 15.5802 183.324 16.1602 183.711 16.9069C184.111 17.6535 184.311 18.5335 184.311 19.5469C184.311 20.5602 184.098 21.4469 183.671 22.2069C183.244 22.9535 182.651 23.5335 181.891 23.9469C181.131 24.3469 180.231 24.5469 179.191 24.5469H176.131V28.5469H172.091ZM176.131 21.1469H178.231C178.871 21.1469 179.358 21.0335 179.691 20.8069C180.024 20.5669 180.191 20.1402 180.191 19.5269C180.191 18.9002 180.024 18.4735 179.691 18.2469C179.358 18.0069 178.871 17.8869 178.231 17.8869H176.131V21.1469Z" fill="#252B32"/>
<path d="M58.9648 44.5469V35.2412H60.8184L63.021 41.8301C63.2241 42.4437 63.3722 42.9028 63.4653 43.2075C63.5711 42.869 63.7362 42.3717 63.9604 41.7158L66.1885 35.2412H67.8452V44.5469H66.6582V36.7583L63.9541 44.5469H62.8433L60.1519 36.625V44.5469H58.9648ZM74.085 43.7153C73.6618 44.075 73.2534 44.3289 72.8599 44.4771C72.4705 44.6252 72.0516 44.6992 71.603 44.6992C70.8625 44.6992 70.2933 44.5194 69.8955 44.1597C69.4977 43.7957 69.2988 43.3324 69.2988 42.7695C69.2988 42.4395 69.3729 42.139 69.521 41.8682C69.6733 41.5931 69.8701 41.373 70.1113 41.208C70.3568 41.043 70.6318 40.9181 70.9365 40.8335C71.1608 40.7743 71.4993 40.7171 71.9521 40.6621C72.8747 40.5521 73.5539 40.4209 73.9897 40.2686C73.994 40.112 73.9961 40.0125 73.9961 39.9702C73.9961 39.5047 73.8882 39.1768 73.6724 38.9863C73.3804 38.7282 72.9466 38.5991 72.3711 38.5991C71.8337 38.5991 71.4359 38.6943 71.1777 38.8848C70.9238 39.071 70.7355 39.4032 70.6128 39.8813L69.4956 39.729C69.5972 39.2508 69.7643 38.8657 69.9971 38.5737C70.2298 38.2775 70.5662 38.0511 71.0063 37.8945C71.4465 37.7337 71.9564 37.6533 72.5361 37.6533C73.1117 37.6533 73.5793 37.721 73.939 37.8564C74.2987 37.9919 74.5632 38.1632 74.7324 38.3706C74.9017 38.5737 75.0202 38.8319 75.0879 39.145C75.126 39.3397 75.145 39.6909 75.145 40.1987V41.7222C75.145 42.7843 75.1683 43.4572 75.2148 43.7407C75.2656 44.02 75.363 44.2887 75.5068 44.5469H74.3135C74.195 44.3099 74.1188 44.0327 74.085 43.7153ZM73.9897 41.1636C73.575 41.3328 72.953 41.4767 72.1235 41.5952C71.6538 41.6629 71.3216 41.7391 71.127 41.8237C70.9323 41.9084 70.7821 42.0332 70.6763 42.1982C70.5705 42.359 70.5176 42.5389 70.5176 42.7378C70.5176 43.0425 70.6318 43.2964 70.8604 43.4995C71.0931 43.7026 71.4316 43.8042 71.876 43.8042C72.3161 43.8042 72.7075 43.709 73.0503 43.5186C73.3931 43.3239 73.6449 43.0594 73.8057 42.7251C73.9284 42.467 73.9897 42.0861 73.9897 41.5825V41.1636ZM76.9224 44.5469V37.8057H77.9507V38.7642C78.4458 38.0236 79.161 37.6533 80.0962 37.6533C80.5024 37.6533 80.8748 37.7274 81.2134 37.8755C81.5562 38.0194 81.8122 38.2098 81.9814 38.4468C82.1507 38.6838 82.2692 38.9652 82.3369 39.291C82.3792 39.5026 82.4004 39.8729 82.4004 40.4019V44.5469H81.2578V40.4463C81.2578 39.9808 81.2134 39.6338 81.1245 39.4053C81.0356 39.1725 80.877 38.9884 80.6484 38.853C80.4242 38.7134 80.1597 38.6436 79.855 38.6436C79.3683 38.6436 78.9473 38.798 78.5918 39.1069C78.2406 39.4159 78.0649 40.002 78.0649 40.8652V44.5469H76.9224ZM88.5576 43.7153C88.1344 44.075 87.7261 44.3289 87.3325 44.4771C86.9432 44.6252 86.5243 44.6992 86.0757 44.6992C85.3351 44.6992 84.766 44.5194 84.3682 44.1597C83.9704 43.7957 83.7715 43.3324 83.7715 42.7695C83.7715 42.4395 83.8455 42.139 83.9937 41.8682C84.146 41.5931 84.3428 41.373 84.584 41.208C84.8294 41.043 85.1045 40.9181 85.4092 40.8335C85.6335 40.7743 85.972 40.7171 86.4248 40.6621C87.3473 40.5521 88.0265 40.4209 88.4624 40.2686C88.4666 40.112 88.4688 40.0125 88.4688 39.9702C88.4688 39.5047 88.3608 39.1768 88.145 38.9863C87.853 38.7282 87.4193 38.5991 86.8438 38.5991C86.3063 38.5991 85.9085 38.6943 85.6504 38.8848C85.3965 39.071 85.2082 39.4032 85.0854 39.8813L83.9683 39.729C84.0698 39.2508 84.237 38.8657 84.4697 38.5737C84.7025 38.2775 85.0389 38.0511 85.479 37.8945C85.9191 37.7337 86.429 37.6533 87.0088 37.6533C87.5843 37.6533 88.0519 37.721 88.4116 37.8564C88.7713 37.9919 89.0358 38.1632 89.2051 38.3706C89.3743 38.5737 89.4928 38.8319 89.5605 39.145C89.5986 39.3397 89.6177 39.6909 89.6177 40.1987V41.7222C89.6177 42.7843 89.641 43.4572 89.6875 43.7407C89.7383 44.02 89.8356 44.2887 89.9795 44.5469H88.7861C88.6676 44.3099 88.5915 44.0327 88.5576 43.7153ZM88.4624 41.1636C88.0477 41.3328 87.4256 41.4767 86.5962 41.5952C86.1265 41.6629 85.7943 41.7391 85.5996 41.8237C85.4049 41.9084 85.2547 42.0332 85.1489 42.1982C85.0431 42.359 84.9902 42.5389 84.9902 42.7378C84.9902 43.0425 85.1045 43.2964 85.333 43.4995C85.5658 43.7026 85.9043 43.8042 86.3486 43.8042C86.7887 43.8042 87.1802 43.709 87.5229 43.5186C87.8657 43.3239 88.1175 43.0594 88.2783 42.7251C88.401 42.467 88.4624 42.0861 88.4624 41.5825V41.1636ZM91.1855 45.1055L92.2964 45.2705C92.3429 45.6133 92.472 45.863 92.6836 46.0195C92.9671 46.2311 93.3543 46.3369 93.8452 46.3369C94.3742 46.3369 94.7826 46.2311 95.0703 46.0195C95.3581 45.8079 95.5527 45.5117 95.6543 45.1309C95.7135 44.8981 95.741 44.4093 95.7368 43.6646C95.2375 44.2528 94.6154 44.5469 93.8706 44.5469C92.9438 44.5469 92.2266 44.2126 91.7188 43.5439C91.2109 42.8753 90.957 42.0734 90.957 41.1382C90.957 40.495 91.0734 39.9025 91.3062 39.3608C91.5389 38.8149 91.8753 38.3939 92.3154 38.0977C92.7598 37.8014 93.2803 37.6533 93.877 37.6533C94.6725 37.6533 95.3285 37.9749 95.8447 38.6182V37.8057H96.8984V43.6328C96.8984 44.6823 96.7905 45.425 96.5747 45.8608C96.3631 46.3009 96.0246 46.6479 95.5591 46.9019C95.0978 47.1558 94.5286 47.2827 93.8516 47.2827C93.0475 47.2827 92.3979 47.1007 91.9028 46.7368C91.4077 46.3771 91.1686 45.8333 91.1855 45.1055ZM92.1313 41.0557C92.1313 41.9401 92.307 42.5854 92.6582 42.9917C93.0094 43.3979 93.4495 43.6011 93.9785 43.6011C94.5033 43.6011 94.9434 43.4001 95.2988 42.998C95.6543 42.5918 95.832 41.957 95.832 41.0938C95.832 40.2686 95.6479 39.6465 95.2798 39.2275C94.9159 38.8086 94.4757 38.5991 93.9595 38.5991C93.4517 38.5991 93.02 38.8065 92.6646 39.2212C92.3091 39.6317 92.1313 40.2432 92.1313 41.0557ZM103.246 42.376L104.427 42.522C104.241 43.2118 103.896 43.7471 103.392 44.1279C102.889 44.5088 102.245 44.6992 101.462 44.6992C100.476 44.6992 99.6935 44.3966 99.1138 43.7915C98.5382 43.1821 98.2505 42.3294 98.2505 41.2334C98.2505 40.0993 98.5425 39.2191 99.1265 38.5928C99.7104 37.9665 100.468 37.6533 101.399 37.6533C102.3 37.6533 103.037 37.9601 103.608 38.5737C104.179 39.1873 104.465 40.0506 104.465 41.1636C104.465 41.2313 104.463 41.3328 104.458 41.4683H99.4312C99.4735 42.2088 99.6829 42.7759 100.06 43.1694C100.436 43.563 100.906 43.7598 101.469 43.7598C101.888 43.7598 102.245 43.6497 102.542 43.4297C102.838 43.2096 103.073 42.8584 103.246 42.376ZM99.4946 40.5288H103.259C103.208 39.9618 103.064 39.5365 102.827 39.2529C102.463 38.8128 101.991 38.5928 101.412 38.5928C100.887 38.5928 100.445 38.7684 100.085 39.1196C99.7295 39.4709 99.5327 39.9406 99.4946 40.5288ZM105.868 44.5469V37.8057H106.89V38.7515C107.101 38.4214 107.383 38.1569 107.734 37.958C108.085 37.7549 108.485 37.6533 108.934 37.6533C109.433 37.6533 109.841 37.757 110.159 37.9644C110.48 38.1717 110.707 38.4616 110.838 38.834C111.371 38.0469 112.065 37.6533 112.92 37.6533C113.589 37.6533 114.103 37.8395 114.462 38.2119C114.822 38.5801 115.002 39.1493 115.002 39.9194V44.5469H113.866V40.3003C113.866 39.8433 113.828 39.5153 113.751 39.3164C113.68 39.1133 113.546 38.9504 113.352 38.8276C113.157 38.7049 112.928 38.6436 112.666 38.6436C112.192 38.6436 111.799 38.8022 111.485 39.1196C111.172 39.4328 111.016 39.9364 111.016 40.6304V44.5469H109.873V40.167C109.873 39.6592 109.78 39.2783 109.594 39.0244C109.408 38.7705 109.103 38.6436 108.68 38.6436C108.358 38.6436 108.06 38.7282 107.785 38.8975C107.514 39.0667 107.317 39.3143 107.194 39.6401C107.072 39.966 107.01 40.4357 107.01 41.0493V44.5469H105.868ZM121.312 42.376L122.492 42.522C122.306 43.2118 121.961 43.7471 121.458 44.1279C120.954 44.5088 120.311 44.6992 119.528 44.6992C118.542 44.6992 117.759 44.3966 117.179 43.7915C116.604 43.1821 116.316 42.3294 116.316 41.2334C116.316 40.0993 116.608 39.2191 117.192 38.5928C117.776 37.9665 118.533 37.6533 119.464 37.6533C120.366 37.6533 121.102 37.9601 121.673 38.5737C122.245 39.1873 122.53 40.0506 122.53 41.1636C122.53 41.2313 122.528 41.3328 122.524 41.4683H117.497C117.539 42.2088 117.748 42.7759 118.125 43.1694C118.502 43.563 118.971 43.7598 119.534 43.7598C119.953 43.7598 120.311 43.6497 120.607 43.4297C120.903 43.2096 121.138 42.8584 121.312 42.376ZM117.56 40.5288H121.324C121.273 39.9618 121.13 39.5365 120.893 39.2529C120.529 38.8128 120.057 38.5928 119.477 38.5928C118.952 38.5928 118.51 38.7684 118.15 39.1196C117.795 39.4709 117.598 39.9406 117.56 40.5288ZM123.933 44.5469V37.8057H124.961V38.7642C125.457 38.0236 126.172 37.6533 127.107 37.6533C127.513 37.6533 127.886 37.7274 128.224 37.8755C128.567 38.0194 128.823 38.2098 128.992 38.4468C129.161 38.6838 129.28 38.9652 129.348 39.291C129.39 39.5026 129.411 39.8729 129.411 40.4019V44.5469H128.269V40.4463C128.269 39.9808 128.224 39.6338 128.135 39.4053C128.046 39.1725 127.888 38.9884 127.659 38.853C127.435 38.7134 127.17 38.6436 126.866 38.6436C126.379 38.6436 125.958 38.798 125.603 39.1069C125.251 39.4159 125.076 40.002 125.076 40.8652V44.5469H123.933ZM133.664 43.5249L133.829 44.5342C133.507 44.6019 133.22 44.6357 132.966 44.6357C132.551 44.6357 132.229 44.5701 132.001 44.439C131.772 44.3078 131.612 44.1364 131.519 43.9248C131.425 43.709 131.379 43.2583 131.379 42.5728V38.6943H130.541V37.8057H131.379V36.1362L132.515 35.4507V37.8057H133.664V38.6943H132.515V42.6362C132.515 42.9621 132.534 43.1715 132.572 43.2646C132.615 43.3577 132.68 43.4318 132.769 43.4868C132.862 43.5418 132.993 43.5693 133.163 43.5693C133.29 43.5693 133.457 43.5545 133.664 43.5249ZM138.133 41.5571L139.294 41.4556C139.349 41.9211 139.476 42.304 139.675 42.6045C139.878 42.9007 140.192 43.1419 140.615 43.3281C141.038 43.5101 141.514 43.6011 142.043 43.6011C142.513 43.6011 142.927 43.5312 143.287 43.3916C143.647 43.252 143.913 43.0615 144.087 42.8203C144.265 42.5749 144.354 42.3083 144.354 42.0205C144.354 41.7285 144.269 41.4746 144.1 41.2588C143.93 41.0387 143.651 40.8547 143.262 40.7065C143.012 40.6092 142.46 40.459 141.605 40.2559C140.75 40.0485 140.151 39.8538 139.809 39.6719C139.364 39.4391 139.032 39.1514 138.812 38.8086C138.596 38.4616 138.488 38.0744 138.488 37.647C138.488 37.1772 138.622 36.7393 138.888 36.333C139.155 35.9225 139.544 35.6115 140.056 35.3999C140.568 35.1883 141.137 35.0825 141.764 35.0825C142.453 35.0825 143.061 35.1947 143.585 35.4189C144.114 35.639 144.521 35.9648 144.804 36.3965C145.088 36.8281 145.24 37.3169 145.261 37.8628L144.081 37.9517C144.017 37.3634 143.801 36.9191 143.433 36.6187C143.069 36.3182 142.53 36.168 141.814 36.168C141.07 36.168 140.526 36.3055 140.183 36.5806C139.845 36.8514 139.675 37.1794 139.675 37.5645C139.675 37.8988 139.796 38.1738 140.037 38.3896C140.274 38.6055 140.892 38.8276 141.891 39.0562C142.894 39.2804 143.581 39.4772 143.954 39.6465C144.495 39.8962 144.895 40.2135 145.153 40.5986C145.411 40.9795 145.541 41.4196 145.541 41.9189C145.541 42.4141 145.399 42.8817 145.115 43.3218C144.832 43.7576 144.423 44.0983 143.89 44.3438C143.361 44.585 142.764 44.7056 142.1 44.7056C141.258 44.7056 140.551 44.5828 139.98 44.3374C139.413 44.092 138.966 43.7238 138.641 43.2329C138.319 42.7378 138.15 42.1792 138.133 41.5571ZM147.026 47.1431L146.899 46.0703C147.149 46.138 147.367 46.1719 147.553 46.1719C147.807 46.1719 148.01 46.1296 148.162 46.0449C148.314 45.9603 148.439 45.8418 148.537 45.6895C148.609 45.5752 148.725 45.2917 148.886 44.8389C148.907 44.7754 148.941 44.6823 148.987 44.5596L146.429 37.8057H147.661L149.063 41.7095C149.245 42.2046 149.408 42.7251 149.552 43.271C149.683 42.7463 149.84 42.2342 150.022 41.7349L151.463 37.8057H152.605L150.041 44.6611C149.766 45.4017 149.552 45.9116 149.4 46.1909C149.197 46.5675 148.964 46.8426 148.702 47.0161C148.439 47.1938 148.126 47.2827 147.762 47.2827C147.542 47.2827 147.297 47.2362 147.026 47.1431ZM153.12 42.5347L154.25 42.3569C154.313 42.8097 154.489 43.1567 154.776 43.3979C155.068 43.6392 155.475 43.7598 155.995 43.7598C156.52 43.7598 156.909 43.654 157.163 43.4424C157.417 43.2266 157.544 42.9748 157.544 42.687C157.544 42.4289 157.432 42.2257 157.208 42.0776C157.051 41.9761 156.662 41.847 156.04 41.6904C155.202 41.4788 154.62 41.2969 154.294 41.1445C153.972 40.988 153.727 40.7743 153.558 40.5034C153.393 40.2284 153.31 39.9258 153.31 39.5957C153.31 39.2952 153.378 39.0181 153.513 38.7642C153.653 38.506 153.841 38.2923 154.078 38.123C154.256 37.9919 154.497 37.8818 154.802 37.793C155.111 37.6999 155.441 37.6533 155.792 37.6533C156.321 37.6533 156.784 37.7295 157.182 37.8818C157.584 38.0342 157.88 38.2415 158.071 38.5039C158.261 38.762 158.392 39.109 158.464 39.5449L157.347 39.6973C157.296 39.3503 157.148 39.0794 156.903 38.8848C156.662 38.6901 156.319 38.5928 155.875 38.5928C155.35 38.5928 154.975 38.6795 154.751 38.853C154.527 39.0265 154.415 39.2297 154.415 39.4624C154.415 39.6105 154.461 39.7438 154.554 39.8623C154.647 39.985 154.793 40.0866 154.992 40.167C155.106 40.2093 155.443 40.3066 156.001 40.459C156.81 40.6748 157.373 40.8525 157.69 40.9922C158.012 41.1276 158.263 41.3265 158.445 41.5889C158.627 41.8512 158.718 42.1771 158.718 42.5664C158.718 42.9473 158.606 43.307 158.382 43.6455C158.162 43.9798 157.842 44.2401 157.423 44.4263C157.004 44.6082 156.53 44.6992 156.001 44.6992C155.125 44.6992 154.457 44.5173 153.996 44.1533C153.539 43.7894 153.247 43.2498 153.12 42.5347ZM162.571 43.5249L162.736 44.5342C162.415 44.6019 162.127 44.6357 161.873 44.6357C161.458 44.6357 161.137 44.5701 160.908 44.439C160.68 44.3078 160.519 44.1364 160.426 43.9248C160.333 43.709 160.286 43.2583 160.286 42.5728V38.6943H159.448V37.8057H160.286V36.1362L161.422 35.4507V37.8057H162.571V38.6943H161.422V42.6362C161.422 42.9621 161.441 43.1715 161.479 43.2646C161.522 43.3577 161.587 43.4318 161.676 43.4868C161.769 43.5418 161.901 43.5693 162.07 43.5693C162.197 43.5693 162.364 43.5545 162.571 43.5249ZM168.31 42.376L169.49 42.522C169.304 43.2118 168.959 43.7471 168.456 44.1279C167.952 44.5088 167.309 44.6992 166.526 44.6992C165.54 44.6992 164.757 44.3966 164.177 43.7915C163.602 43.1821 163.314 42.3294 163.314 41.2334C163.314 40.0993 163.606 39.2191 164.19 38.5928C164.774 37.9665 165.531 37.6533 166.462 37.6533C167.364 37.6533 168.1 37.9601 168.671 38.5737C169.243 39.1873 169.528 40.0506 169.528 41.1636C169.528 41.2313 169.526 41.3328 169.522 41.4683H164.495C164.537 42.2088 164.746 42.7759 165.123 43.1694C165.5 43.563 165.969 43.7598 166.532 43.7598C166.951 43.7598 167.309 43.6497 167.605 43.4297C167.901 43.2096 168.136 42.8584 168.31 42.376ZM164.558 40.5288H168.322C168.271 39.9618 168.128 39.5365 167.891 39.2529C167.527 38.8128 167.055 38.5928 166.475 38.5928C165.95 38.5928 165.508 38.7684 165.148 39.1196C164.793 39.4709 164.596 39.9406 164.558 40.5288ZM170.931 44.5469V37.8057H171.953V38.7515C172.165 38.4214 172.446 38.1569 172.797 37.958C173.149 37.7549 173.549 37.6533 173.997 37.6533C174.496 37.6533 174.905 37.757 175.222 37.9644C175.544 38.1717 175.77 38.4616 175.901 38.834C176.435 38.0469 177.129 37.6533 177.983 37.6533C178.652 37.6533 179.166 37.8395 179.526 38.2119C179.886 38.5801 180.065 39.1493 180.065 39.9194V44.5469H178.929V40.3003C178.929 39.8433 178.891 39.5153 178.815 39.3164C178.743 39.1133 178.61 38.9504 178.415 38.8276C178.22 38.7049 177.992 38.6436 177.729 38.6436C177.256 38.6436 176.862 38.8022 176.549 39.1196C176.236 39.4328 176.079 39.9364 176.079 40.6304V44.5469H174.937V40.167C174.937 39.6592 174.843 39.2783 174.657 39.0244C174.471 38.7705 174.166 38.6436 173.743 38.6436C173.422 38.6436 173.123 38.7282 172.848 38.8975C172.577 39.0667 172.381 39.3143 172.258 39.6401C172.135 39.966 172.074 40.4357 172.074 41.0493V44.5469H170.931Z" fill="#252B32"/>
<defs>
<clipPath id="clip0_2772_14463">
<rect width="49.6875" height="37.5" fill="white" transform="translate(0 17.5)"/>
</clipPath>
<clipPath id="clip1_2772_14463">
<rect width="49.6875" height="37.5" fill="white" transform="translate(0 17.5)"/>
</clipPath>
<clipPath id="clip2_2772_14463">
<rect width="24.1562" height="17.5" fill="white" transform="translate(7.5625 5)"/>
</clipPath>
<clipPath id="clip3_2772_14463">
<rect width="24.1562" height="17.5" fill="white" transform="translate(7.5625 5)"/>
</clipPath>
</defs>
</svg>
