<svg width="64" height="64" viewBox="0 0 64 64" fill="none" xmlns="http://www.w3.org/2000/svg">
<path d="M16 58.6667V10.6667C16 9.25222 16.5619 7.89567 17.5621 6.89547C18.5623 5.89528 19.9188 5.33337 21.3333 5.33337H42.6667C44.0812 5.33337 45.4377 5.89528 46.4379 6.89547C47.4381 7.89567 48 9.25222 48 10.6667V58.6667H16Z" stroke="url(#paint0_linear_2836_1712)" stroke-width="4" stroke-linecap="round" stroke-linejoin="round"/>
<path d="M16.0002 32H10.6668C9.25234 32 7.89579 32.5619 6.89559 33.5621C5.8954 34.5623 5.3335 35.9188 5.3335 37.3333V53.3333C5.3335 54.7478 5.8954 56.1044 6.89559 57.1046C7.89579 58.1048 9.25234 58.6667 10.6668 58.6667H16.0002" stroke="url(#paint1_linear_2836_1712)" stroke-width="4" stroke-linecap="round" stroke-linejoin="round"/>
<path d="M48 24H53.3333C54.7478 24 56.1044 24.5619 57.1046 25.5621C58.1048 26.5623 58.6667 27.9188 58.6667 29.3333V53.3333C58.6667 54.7478 58.1048 56.1044 57.1046 57.1046C56.1044 58.1048 54.7478 58.6667 53.3333 58.6667H48" stroke="url(#paint2_linear_2836_1712)" stroke-width="4" stroke-linecap="round" stroke-linejoin="round"/>
<path d="M26.6665 16H37.3332" stroke="url(#paint3_linear_2836_1712)" stroke-width="4" stroke-linecap="round" stroke-linejoin="round"/>
<path d="M26.6665 26.6666H37.3332" stroke="url(#paint4_linear_2836_1712)" stroke-width="4" stroke-linecap="round" stroke-linejoin="round"/>
<path d="M26.6665 37.3334H37.3332" stroke="url(#paint5_linear_2836_1712)" stroke-width="4" stroke-linecap="round" stroke-linejoin="round"/>
<path d="M26.6665 48H37.3332" stroke="url(#paint6_linear_2836_1712)" stroke-width="4" stroke-linecap="round" stroke-linejoin="round"/>
<defs>
<linearGradient id="paint0_linear_2836_1712" x1="32" y1="5.33337" x2="32" y2="58.6667" gradientUnits="userSpaceOnUse">
<stop stop-color="white"/>
<stop offset="1" stop-color="white" stop-opacity="0"/>
</linearGradient>
<linearGradient id="paint1_linear_2836_1712" x1="10.6668" y1="32" x2="10.6668" y2="58.6667" gradientUnits="userSpaceOnUse">
<stop stop-color="white"/>
<stop offset="1" stop-color="white" stop-opacity="0"/>
</linearGradient>
<linearGradient id="paint2_linear_2836_1712" x1="53.3333" y1="24" x2="53.3333" y2="58.6667" gradientUnits="userSpaceOnUse">
<stop stop-color="white"/>
<stop offset="1" stop-color="white" stop-opacity="0"/>
</linearGradient>
<linearGradient id="paint3_linear_2836_1712" x1="31.9998" y1="16" x2="31.9998" y2="17" gradientUnits="userSpaceOnUse">
<stop stop-color="white"/>
<stop offset="1" stop-color="white" stop-opacity="0"/>
</linearGradient>
<linearGradient id="paint4_linear_2836_1712" x1="31.9998" y1="26.6666" x2="31.9998" y2="27.6666" gradientUnits="userSpaceOnUse">
<stop stop-color="white"/>
<stop offset="1" stop-color="white" stop-opacity="0"/>
</linearGradient>
<linearGradient id="paint5_linear_2836_1712" x1="31.9998" y1="37.3334" x2="31.9998" y2="38.3334" gradientUnits="userSpaceOnUse">
<stop stop-color="white"/>
<stop offset="1" stop-color="white" stop-opacity="0"/>
</linearGradient>
<linearGradient id="paint6_linear_2836_1712" x1="31.9998" y1="48" x2="31.9998" y2="49" gradientUnits="userSpaceOnUse">
<stop stop-color="white"/>
<stop offset="1" stop-color="white" stop-opacity="0"/>
</linearGradient>
</defs>
</svg>
