<svg width="64" height="64" viewBox="0 0 64 64" fill="none" xmlns="http://www.w3.org/2000/svg">
<path d="M34.2136 5.81335C33.5187 5.49641 32.7639 5.3324 32.0002 5.3324C31.2365 5.3324 30.4817 5.49641 29.7869 5.81335L6.93356 16.2133C6.46036 16.422 6.05804 16.7637 5.7756 17.197C5.49315 17.6302 5.34277 18.1362 5.34277 18.6533C5.34277 19.1705 5.49315 19.6765 5.7756 20.1097C6.05804 20.543 6.46036 20.8847 6.93356 21.0933L29.8136 31.52C30.5084 31.837 31.2632 32.001 32.0269 32.001C32.7906 32.001 33.5454 31.837 34.2402 31.52L57.1202 21.12C57.5934 20.9114 57.9958 20.5696 58.2782 20.1364C58.5606 19.7032 58.711 19.1972 58.711 18.68C58.711 18.1629 58.5606 17.6569 58.2782 17.2236C57.9958 16.7904 57.5934 16.4487 57.1202 16.24L34.2136 5.81335Z" stroke="url(#paint0_linear_2836_1754)" stroke-width="4" stroke-linecap="round" stroke-linejoin="round"/>
<path d="M5.3335 32C5.33224 32.51 5.47728 33.0098 5.75142 33.4399C6.02555 33.87 6.41729 34.2124 6.88017 34.4267L29.8135 44.8533C30.5047 45.1663 31.2547 45.3282 32.0135 45.3282C32.7723 45.3282 33.5223 45.1663 34.2135 44.8533L57.0935 34.4533C57.5655 34.2412 57.9656 33.8962 58.245 33.4606C58.5244 33.025 58.6709 32.5175 58.6668 32" stroke="url(#paint1_linear_2836_1754)" stroke-width="4" stroke-linecap="round" stroke-linejoin="round"/>
<path d="M5.3335 45.3334C5.33224 45.8434 5.47728 46.3431 5.75142 46.7732C6.02555 47.2034 6.41729 47.5458 6.88017 47.76L29.8135 58.1867C30.5047 58.4997 31.2547 58.6616 32.0135 58.6616C32.7723 58.6616 33.5223 58.4997 34.2135 58.1867L57.0935 47.7867C57.5655 47.5745 57.9656 47.2296 58.245 46.794C58.5244 46.3584 58.6709 45.8509 58.6668 45.3334" stroke="url(#paint2_linear_2836_1754)" stroke-width="4" stroke-linecap="round" stroke-linejoin="round"/>
<defs>
<linearGradient id="paint0_linear_2836_1754" x1="32.0269" y1="5.3324" x2="32.0269" y2="32.001" gradientUnits="userSpaceOnUse">
<stop stop-color="white"/>
<stop offset="1" stop-color="white" stop-opacity="0"/>
</linearGradient>
<linearGradient id="paint1_linear_2836_1754" x1="32.0002" y1="32" x2="32.0002" y2="45.3282" gradientUnits="userSpaceOnUse">
<stop stop-color="white" stop-opacity="0"/>
<stop offset="1" stop-color="white"/>
</linearGradient>
<linearGradient id="paint2_linear_2836_1754" x1="32.0002" y1="45.3334" x2="32.0002" y2="58.6616" gradientUnits="userSpaceOnUse">
<stop stop-color="white" stop-opacity="0"/>
<stop offset="1" stop-color="white"/>
</linearGradient>
</defs>
</svg>
