<svg width="357" height="773" viewBox="0 0 357 773" fill="none" xmlns="http://www.w3.org/2000/svg">
<g clip-path="url(#clip0_2827_1758)">
<rect width="356.912" height="772.833" fill="white"/>
<rect width="373" height="773" transform="translate(-7.98633 -0.0834961)" fill="white"/>
<rect width="373" height="773" transform="translate(-7.98633 -0.0834961)" fill="#FFFDF3"/>
<path d="M81.4768 237.366C81.5424 237.254 81.6104 237.143 81.6738 237.03C84.0366 232.806 83.3632 222.17 88.8258 220.243C92.533 218.935 134.563 219.606 141.801 219.609C153.319 219.615 164.961 219.226 176.46 219.632C177.941 219.684 180.622 219.726 181.897 220.485C186.114 222.993 187.393 232.895 188.47 237.363C196.997 238.134 197.55 244.544 199.409 251.586C199.84 253.219 200.002 255.424 198.695 256.668C196.847 257.463 192.728 257.064 190.542 257.063C188.593 282.891 185.547 309.268 183.229 335.136L180.463 364.733C179.95 370.298 179.587 376.095 178.641 381.537C177.97 385.4 174.443 389.855 170.69 391.002C166.641 392.242 160.909 391.863 156.643 391.86L136.825 391.847L114.891 391.879C111.96 391.884 108.645 391.745 105.734 391.884C98.8454 392.21 92.4404 388.201 91.4488 381.005C90.4788 373.968 89.882 366.553 89.1898 359.382L85.2495 317.266L81.3127 276.157C80.7849 270.607 79.7395 262.431 79.5412 257.045C78.0025 257.08 73.3128 257.314 72.0511 256.825C68.9772 255.659 70.8911 251.546 71.6049 249.295C72.494 243.826 73.513 240.275 78.7265 237.857C79.7863 237.518 80.3479 237.264 81.4768 237.366Z" fill="#4E2B17"/>
<path d="M71.3569 249.124C71.684 249.772 71.8761 256.211 71.7142 256.899C69.2522 255.695 70.7852 251.449 71.3569 249.124Z" fill="#512E19"/>
<path d="M78.8413 237.52C79.866 237.247 80.4089 237.042 81.5004 237.124C81.6859 238.08 81.8129 237.822 81.3539 238.514C80.383 238.582 79.6574 238.05 78.8413 237.52Z" fill="#512E19"/>
<path d="M87.3237 284.024C92.6425 283.429 182.373 284.009 182.706 284.158C183.09 284.432 183.496 284.666 183.459 285.26C183.252 288.668 182.392 292.743 182.133 296.16C181.796 295.451 181.837 294.479 181.801 293.668C181.213 298.053 180.871 302.891 180.438 307.332C180.22 309.572 179.701 314.208 179.688 316.334C180.904 317.597 179.36 325.916 179.652 328.113C179.725 328.666 179.539 331.916 179.42 332.324L179.458 332.292L179.467 332.3L179.167 332.08L179.041 331.046C178.163 332.624 179.401 332.361 178.023 333.938L177.978 334.203C177.537 336.892 177.05 347.893 176.156 349.264C175.708 349.315 175.525 349.352 175.08 349.344C157.164 349.669 138.468 349.39 120.483 349.409L103.2 349.428C100.877 349.428 95.7548 349.538 93.6333 349.234C92.7245 342.718 92.2671 335.28 91.6493 328.642C90.2891 313.761 88.8473 298.889 87.3237 284.024Z" fill="#D4A570"/>
<path d="M87.3237 284.024C92.6425 283.429 182.373 284.009 182.706 284.158C183.09 284.432 183.496 284.666 183.459 285.26C183.252 288.668 182.392 292.743 182.133 296.16C181.796 295.451 181.837 294.479 181.801 293.668C181.213 298.053 180.871 302.891 180.438 307.332C180.22 309.572 179.701 314.208 179.688 316.334C180.904 317.597 179.36 325.916 179.652 328.113C179.725 328.666 179.539 331.916 179.42 332.324L179.458 332.292L179.467 332.3L179.167 332.08L179.041 331.046C178.163 332.624 179.401 332.361 178.023 333.938L177.978 334.203C177.537 336.892 177.05 347.893 176.156 349.264C175.708 349.315 175.525 349.352 175.08 349.344C157.164 349.669 138.468 349.39 120.483 349.409L103.2 349.428C100.877 349.428 95.7548 349.538 93.6333 349.234C95.3845 349 99.3274 349.094 101.235 349.102L114.851 349.143L159.871 349.121C159.916 347.323 160.103 345.381 160.265 343.575C162.044 323.754 164.061 303.978 165.621 284.137L111.087 284.091L95.8564 284.137C93.393 284.146 89.6785 284.267 87.3237 284.024Z" fill="#BB7D49"/>
<path d="M179.457 316.279C180.664 317.546 179.133 325.897 179.421 328.103C179.494 328.658 179.31 331.921 179.192 332.33L179.229 332.299L179.238 332.306L178.941 332.086L178.816 331.047C177.945 332.632 179.172 332.367 177.807 333.951L178.022 330.713C178.49 326.168 178.842 320.703 179.457 316.279Z" fill="#512E19"/>
<path d="M182.82 284.468C183.146 284.743 183.49 284.977 183.46 285.572C183.283 288.984 182.554 293.064 182.333 296.486C182.047 295.775 182.082 294.803 182.051 293.991C182.001 292.15 182.556 286.329 182.82 284.468Z" fill="#512E19"/>
<path d="M138.828 295.779C139.193 295.784 139.562 295.794 139.923 295.855C141.408 296.108 159.237 311.309 160.519 313.374C160.736 313.724 160.935 314.073 160.795 314.48C160.369 315.722 142.364 331.135 140.637 331.936C139.98 332.242 139.697 332.354 139.026 332.117C137.758 330.166 138.227 324.166 138.271 321.648C134.235 321.741 131.614 322.129 127.748 323.152C127.198 323.314 126.652 323.489 126.111 323.677C118.307 326.405 113.435 331.644 109.945 338.899C110.219 319.874 118.95 308.488 138.253 306.286C138.251 303.903 137.862 297.273 138.828 295.779Z" fill="#4E2B17"/>
<path d="M158.859 354.465L175.686 354.451L174.073 371.254C172.581 386.913 171.898 386.166 156.783 386.185L136.833 386.201L114.639 386.209C112.262 386.209 104.048 386.466 102.11 385.84C96.0953 383.578 96.545 377.274 96.0066 371.827L94.3931 354.465H158.859Z" fill="#F8F4E3"/>
<path d="M158.873 354.465L175.686 354.451L174.075 371.254C172.584 386.913 171.901 386.166 156.798 386.185L136.865 386.201L114.688 386.209C112.313 386.209 104.105 386.466 102.169 385.84C118.808 386.062 137.766 386.132 154.367 385.765C157.253 381.71 157.093 376.292 157.513 371.382C157.971 366.042 158.928 359.786 158.873 354.465Z" fill="#EBD7BA"/>
<path d="M85.2041 256.928L151.253 256.915C162.319 256.914 173.862 257.094 184.877 256.899C184.116 264.139 183.421 271.386 182.791 278.638L110.926 278.652C107.418 278.654 89.2265 279.102 87.3067 278.494C86.8847 274.344 86.3642 269.95 86.1354 265.805C85.7264 264.361 85.3568 258.787 85.2041 256.928Z" fill="#F9F6E4"/>
<path d="M85.2041 256.928L151.253 256.915C162.319 256.914 173.862 257.094 184.877 256.899C184.116 264.139 183.421 271.386 182.791 278.638L110.926 278.652C107.418 278.654 89.2265 279.102 87.3067 278.494C88.9399 278.192 103.414 278.402 106.092 278.404L145.231 278.405C151.137 278.405 160.446 278.69 166.071 278.283C166.291 273.281 166.69 268.572 167.126 263.582C161.225 263.237 86.9315 263.389 86.2982 263.748C86.2559 264.435 86.2017 265.12 86.1354 265.805C85.7264 264.361 85.3568 258.787 85.2041 256.928Z" fill="#EBD7BA"/>
<path d="M91.1546 224.559C92.6362 224.286 98.5037 224.409 100.368 224.413L119.204 224.432L154.798 224.42C159.977 224.397 165.156 224.45 170.334 224.58C173.229 224.638 176.047 224.561 178.925 224.898C180.648 226.431 182.098 234.19 182.755 236.935L159.774 237.02C157.082 237.043 148.907 237.26 146.844 236.902C127.168 236.523 107.08 237.219 87.3237 236.814C88.3082 233.369 89.1435 226.805 91.1546 224.559Z" fill="#9C5F3B"/>
<path d="M90.8584 224.559C92.3447 224.286 98.2313 224.409 100.101 224.413L118.999 224.432L154.708 224.42C159.904 224.397 165.1 224.45 170.294 224.58C173.199 224.638 176.026 224.561 178.913 224.898C180.641 226.431 182.096 234.19 182.755 236.935L159.7 237.02C156.999 237.043 148.798 237.26 146.728 236.902C150.657 236.373 161.484 236.744 166.245 236.584C165.263 233.109 164.85 229.12 163.73 225.647C162.342 224.105 145.016 224.734 141.651 224.74L105.159 224.756C102.227 224.762 93.2741 224.957 90.8584 224.559Z" fill="#7B4529"/>
<path d="M81.3103 242.211L81.617 241.817C84.4227 241.825 87.1238 241.611 89.9609 241.661C98.615 241.81 107.573 242 116.204 241.507C124.728 241.02 132.972 241.803 141.491 241.802L165.276 241.786C167.494 241.783 180.057 241.453 181.176 242.356C191.351 242.46 191.782 240.567 194.065 251.016C188.385 251.248 182.427 251.041 176.706 251.093C160.643 251.252 144.58 251.286 128.516 251.193C121.106 251.192 113.129 251.054 105.754 251.22C98.5483 251.253 91.3429 251.249 84.1375 251.208C82.7255 251.189 77.94 251.208 76.8325 251.025L76.7197 250.648L77.7318 246.698C78.3795 243.846 78.6253 243.513 81.3103 242.211Z" fill="#9C5F3B"/>
<path d="M171.117 242.884C174.47 242.819 177.823 242.801 181.176 242.83C191.351 242.928 191.782 241.136 194.065 251.028C188.385 251.247 182.427 251.052 176.706 251.101C160.643 251.252 144.58 251.283 128.516 251.196C121.106 251.195 113.129 251.064 105.754 251.221C98.5483 251.253 91.3429 251.249 84.1375 251.21C82.7255 251.192 77.94 251.21 76.8325 251.036L76.7197 250.679C78.4893 251.207 98.6916 250.885 101.587 250.885L174.435 250.852C173.424 247.439 174.255 245.027 171.117 242.884Z" fill="#7B4529"/>
<path d="M80.9609 242.453L81.267 241.949C84.0673 241.959 86.7631 241.686 89.5948 241.749C98.2321 241.94 107.173 242.183 115.787 241.552C124.294 240.928 132.522 241.931 141.025 241.93L164.764 241.909C166.978 241.906 179.516 241.483 180.633 242.64C177.287 242.601 173.94 242.625 170.593 242.713L105.175 242.696C102.287 242.699 82.526 242.948 80.9609 242.453Z" fill="#512E19"/>
<path d="M245.982 298.439C246.068 298.372 246.954 297.659 246.957 297.659C250.336 297.026 253.934 297.17 257.361 297.326C258.704 297.387 259.747 297.721 260.065 299.126C262.521 300.229 265.299 301.111 267.643 302.532C273.734 306.224 278.552 312.178 281.032 318.795C285.083 329.616 282.708 339.012 278.715 349.236C278.894 349.747 278.912 349.899 279.353 350.228L279.684 351.879C279.134 352.184 278.72 352.093 278.034 352.039L277.225 352.788C276.214 354.869 275.255 356.961 274.177 359.01C271.745 363.619 255.768 390.942 252.02 391.854C251.321 392.025 250.515 391.832 249.92 391.439C247.723 389.992 245.019 385.423 243.476 383.187C234.093 369.587 224.147 354.377 220.399 338.087C218.357 329.423 219.876 320.3 224.616 312.771C229.672 304.735 236.942 300.489 245.982 298.439Z" fill="#4E2B17"/>
<path d="M245.668 298.56C245.754 298.486 246.644 297.704 246.647 297.704C250.039 297.01 253.651 297.168 257.092 297.339C258.44 297.406 259.488 297.772 259.806 299.313C254.463 297.994 251.052 297.79 245.668 298.56Z" fill="#F9F6E4"/>
<path d="M277.479 353.037C277.868 351.88 278.34 350.653 278.763 349.503C278.918 350.011 278.934 350.163 279.314 350.49L279.599 352.132C279.125 352.436 278.768 352.345 278.176 352.292L277.479 353.037Z" fill="#F9F6E4"/>
<path d="M250.879 384.848C240.904 370.433 230.432 355.646 225.606 338.452C224.067 332.969 224.038 326.892 225.779 321.434C227.962 314.558 232.816 308.855 239.244 305.613C253.615 298.274 271.336 306.213 276.107 321.539C278.382 328.843 277.632 334.636 275.292 341.691C273.545 346.897 271.953 350.3 269.602 355.23C269.08 355.945 266.322 361.474 265.419 362.939C260.683 370.621 256.344 377.615 250.879 384.848Z" fill="#9C5F3B"/>
<path d="M266.822 328.99C266.9 330.415 266.913 332.011 266.712 333.422C266.153 337.413 263.966 341.011 260.652 343.385C257.095 345.977 253.233 347.193 248.847 346.468C233.971 344.018 230.054 325.934 242.471 317.532C245.851 315.215 250.053 314.357 254.094 315.158C258.774 316.042 261.984 318.772 264.61 322.531C265.873 325.065 266.391 326.218 266.822 328.99Z" fill="#4E2B17"/>
<path d="M245.926 339.614C241.386 336.917 239.511 331.282 241.526 326.39C243.54 321.498 248.832 318.837 253.943 320.144C259.056 321.452 262.431 326.332 261.866 331.595C261.301 336.858 256.968 340.905 251.695 341.089L250.566 341.231C250.065 341.741 249.791 341.985 249.237 342.434C248.459 342.383 246.909 341.041 246.054 340.493L245.926 339.614Z" fill="#F9F6E4"/>
<path d="M245.668 339.606C247.376 340.643 249.339 341.158 251.324 341.085L250.217 341.227C249.726 341.739 249.457 341.983 248.914 342.434C248.151 342.383 246.632 341.037 245.794 340.488L245.668 339.606Z" fill="#512E19"/>
<path d="M159.427 213.696C171.205 198.795 188.517 189.276 207.43 187.301C226.554 185.314 245.677 191.082 260.495 203.309C289.124 226.522 295.063 269.7 274.358 300.02C272.999 299.113 271.113 297.773 269.714 297.036C267.688 295.851 264.831 294.501 262.572 293.838C260.781 293.154 259.396 292.929 257.531 292.563C258.42 291.278 259.251 290.072 260.21 288.839C261.186 286.89 262.639 284.548 263.732 282.417C264.667 280.326 265.517 278.06 266.436 275.927L268.213 268.674C268.197 267.161 268.955 263.058 269.006 260.789C269.301 250.11 266.428 239.582 260.746 230.529C260.35 230.806 260.286 230.875 259.83 231.091C259.021 231.475 259.741 230.562 259.227 230.71C258.522 230.914 259.053 231.098 258.292 230.786C257.957 229.011 258.986 229.172 258.525 228.377C257.322 226.31 257.431 227.738 257.019 225.23C255.207 222.742 253.436 220.952 251.184 218.911C236.903 205.958 216.222 201.485 197.914 207.668C194.255 208.904 190.937 210.787 187.479 212.466C186.203 213.349 184.909 214.208 183.599 215.04C181.176 213.887 180.314 213.712 177.627 213.649L177.222 213.687C173.658 213.725 170.093 213.723 166.528 213.683L159.427 213.696Z" fill="#D4A570"/>
<path d="M159.427 213.696C171.205 198.795 188.517 189.276 207.43 187.301C226.554 185.314 245.677 191.082 260.495 203.309C289.124 226.522 295.063 269.7 274.358 300.02C272.999 299.113 271.113 297.773 269.714 297.036C270.073 296.052 272.519 292.25 273.179 291.13C277.67 283.504 279.241 275.688 280.953 267.17C281.637 259.312 281.42 255.499 280.401 247.694C280.066 246.829 278.603 240.475 278.048 238.704C274.87 228.39 269.148 219.038 261.406 211.507C248.976 199.197 232.176 192.289 214.666 192.289C195.164 192.422 179.992 200.048 166.528 213.683L159.427 213.696Z" fill="#4E2B17"/>
<path d="M280.307 247.709L280.795 248.008C280.964 248.882 281.584 251.87 281.628 252.597C281.778 254.974 281.829 265.766 281.111 267.332L280.766 267.503C281.334 259.517 281.154 255.641 280.307 247.709Z" fill="#512E19"/>
<path d="M177.1 213.788C178.305 210.985 189.683 205.169 192.959 203.865C207.414 198.032 223.616 198.248 237.91 204.464C252.49 210.707 263.974 222.483 269.83 237.19C275.629 252.006 275.287 268.515 268.878 283.08C267.908 285.285 264.241 292.975 262.215 293.658C260.43 292.977 259.048 292.752 257.188 292.388C258.076 291.107 258.904 289.905 259.861 288.677C260.834 286.735 262.282 284.4 263.373 282.277C264.305 280.193 265.153 277.935 266.069 275.81L267.841 268.583C267.825 267.075 268.582 262.986 268.632 260.726C268.926 250.084 266.061 239.593 260.395 230.571C260 230.848 259.936 230.916 259.481 231.131C258.674 231.514 259.393 230.604 258.88 230.752C258.177 230.955 258.706 231.138 257.947 230.827C257.613 229.058 258.64 229.219 258.18 228.427C256.98 226.367 257.089 227.79 256.678 225.291C254.871 222.811 253.105 221.027 250.86 218.993C236.617 206.086 215.993 201.629 197.735 207.79C194.087 209.022 190.777 210.898 187.329 212.571C186.056 213.452 184.766 214.307 183.459 215.136C181.043 213.987 180.184 213.812 177.504 213.751L177.1 213.788Z" fill="#4E2B17"/>
<path d="M177.807 213.665C180.254 212.473 183.251 213.439 185.832 212.605C186.504 212.388 186.068 212.386 186.996 212.365C185.806 213.335 184.599 214.278 183.377 215.192C181.117 213.926 180.313 213.733 177.807 213.665Z" fill="#512E19"/>
<path d="M256.979 225.089C258.249 226.759 259.601 228.802 260.513 230.749C260.137 231.045 260.076 231.119 259.644 231.349C258.877 231.76 259.561 230.784 259.073 230.943C258.404 231.16 258.908 231.356 258.186 231.024C257.868 229.127 258.844 229.299 258.407 228.45C257.266 226.243 257.37 227.768 256.979 225.089Z" fill="#F9F6E4"/>
<path d="M267.741 268.917C268.573 270.764 267.485 271.48 267.489 273.353C267.489 273.784 268.111 274.895 268.289 275.489C267.56 275.644 267.577 275.633 266.832 275.538L266.574 275.734C266.27 275.962 266.4 275.9 266.168 275.985L267.741 268.917Z" fill="#512E19"/>
<path d="M263.773 282.348C263.978 283.373 264.356 284.129 263.586 285.009C262.551 286.191 261.488 288.43 259.807 288.71C260.906 286.779 262.542 284.458 263.773 282.348Z" fill="#512E19"/>
<path d="M191.009 312.957C191.167 311.742 191.356 308.569 191.755 307.796C193.678 308.42 195.769 309.374 197.649 310.175L199.636 310.849C200.049 310.972 202.389 311.645 202.649 311.77L203.97 312.018C205.505 311.508 207.571 310.774 208.908 312.096L208.986 312.918C211.784 313.113 214.588 313.22 217.393 313.24C216.833 314.654 215.856 317.507 215.317 318.697C214.823 320.202 214.046 324.504 213.864 326.159C213.623 327.855 213.604 329.42 213.553 331.123C204.514 330.832 198.39 329.494 189.824 326.44C190.036 324.55 190.209 322.657 190.344 320.76C190.514 318.051 190.69 315.651 191.009 312.957Z" fill="#D4A570"/>
<path d="M190.53 313.151C190.69 311.89 190.883 308.598 191.289 307.796C193.248 308.444 195.376 309.433 197.29 310.265L199.314 310.963C199.734 311.091 202.116 311.789 202.381 311.919L203.726 312.176C205.289 311.648 207.392 310.886 208.754 312.257L208.833 313.111C211.682 313.313 214.537 313.424 217.392 313.444C216.822 314.911 215.828 317.872 215.279 319.106C209.526 319.017 194.937 316.843 190.53 313.151Z" fill="#4E2B17"/>
<path d="M191.237 307.796C193.313 308.422 195.569 309.379 197.599 310.183C195.816 311.195 193.584 310.314 192.204 309.056C191.65 309.072 191.925 309.105 191.398 308.823L191.237 307.796Z" fill="#512E19"/>
<path d="M199.46 311.331C199.883 311.424 202.28 311.931 202.548 312.026L202.121 312.192L202.141 312.613L201.703 312.744C200.908 312.612 198.793 312.352 198.306 312.033C198.734 311.792 199.056 311.589 199.46 311.331Z" fill="#512E19"/>
<path d="M203.962 312.234C205.477 311.545 207.515 310.553 208.834 312.34L208.911 313.451L203.962 312.234Z" fill="#F9F6E4"/>
<path d="M190.344 321.227C195.193 323.357 200.793 324.395 206.018 325.345C207.302 325.579 213.387 326.042 213.858 326.383C213.617 328.002 213.598 329.497 213.547 331.124C204.51 330.845 198.387 329.568 189.824 326.651C190.036 324.846 190.209 323.038 190.344 321.227Z" fill="#4E2B17"/>
<path d="M212.264 253.597C212.286 249.743 211.477 229.423 212.919 227.526C213.362 226.943 213.956 226.571 214.689 226.513C215.418 226.448 216.14 226.704 216.667 227.215C218.182 228.695 217.659 235.009 217.656 237.282L217.636 253.452C220.726 255.418 221.479 257.241 220.846 260.781L233.177 271.613C233.969 273.22 233.864 275.058 232.135 275.849C230.386 276.649 227.664 273.724 226.452 272.687C223.425 270.056 220.381 267.446 217.32 264.856C209.406 266.098 205.757 258.217 212.264 253.597Z" fill="#4E2B17"/>
<path d="M233.185 271.744C233.963 273.303 233.86 275.085 232.162 275.853C230.445 276.629 227.772 273.791 226.582 272.786L227.566 272.367C229.631 273.004 230.42 275.22 232.098 274.536C232.785 273.644 232.898 272.838 233.185 271.744Z" fill="#512E19"/>
<path d="M212.677 219.004C210.833 217.505 211.428 205.52 216.972 210.931C217.63 213.075 217.811 219.117 215.286 220.139C214.262 220.17 213.359 219.79 212.677 219.004Z" fill="#4E2B17"/>
<path d="M217.014 210.951C217.605 213.09 217.768 219.119 215.498 220.139C214.577 220.169 213.765 219.791 213.151 219.007L213.636 218.92L213.564 218.283L213.83 218.135C214.354 218.525 214.63 218.842 215.241 218.779C217.258 217.23 216.188 214.261 216.933 211.271L217.014 210.951Z" fill="#512E19"/>
<path d="M255.158 256.282C256.588 256.233 258.018 256.181 259.448 256.195C262.715 256.225 266.213 258.379 262.347 261.606C259.913 261.947 255.527 262.216 253.697 260.288C252.991 258.406 253.841 257.496 255.158 256.282Z" fill="#4E2B17"/>
<path d="M213.982 297.899C214.328 297.908 214.674 297.95 215.014 298.025C217.869 298.657 217.589 303.932 217.035 306.211C216.706 307.566 216.406 307.807 215.325 308.503C214.308 308.43 213.055 308.172 212.606 307.088C211.38 304.128 211.141 299.709 213.982 297.899Z" fill="#4E2B17"/>
<path d="M250.061 277.4C252.533 277.376 261.366 281.524 255.971 285.175C253.273 285.153 245.104 281.143 250.061 277.4Z" fill="#4E2B17"/>
<path d="M253.47 240.083C251.396 241.643 249.187 242.115 247.806 239.412C247.397 236.144 254.067 232.612 256.726 233.81C259.167 236.989 256.53 239.15 253.47 240.083Z" fill="#4E2B17"/>
<path d="M256.777 233.571C259.087 236.795 256.591 238.987 253.696 239.933L253.442 239.544C253.874 239.005 255.572 238.051 256.359 237.403C256.304 235.822 256.312 235.469 256.688 233.928L256.777 233.571Z" fill="#512E19"/>
<path d="M237.22 216.606C244.366 216.72 238.746 224.422 236.36 225.791C229.491 226.023 234.689 218.24 237.22 216.606Z" fill="#4E2B17"/>
<path d="M13.0215 508.917V441.983H41.8613C46.8327 441.983 51.1751 442.971 54.8887 444.948C58.6322 446.894 61.5371 449.65 63.6035 453.213C65.6999 456.777 66.748 460.94 66.748 465.702C66.748 470.493 65.6849 474.641 63.5586 478.145C61.4323 481.619 58.4525 484.314 54.6191 486.231C50.7858 488.118 46.3236 489.061 41.2324 489.061H23.9824V474.956H37.5488C39.7051 474.956 41.5469 474.581 43.0742 473.833C44.6016 473.054 45.7695 471.976 46.5781 470.598C47.3867 469.221 47.791 467.588 47.791 465.702C47.791 463.755 47.3867 462.108 46.5781 460.76C45.7695 459.383 44.6016 458.334 43.0742 457.616C41.5469 456.897 39.7051 456.538 37.5488 456.538H31.1699V508.917H13.0215ZM89.3887 441.983V508.917H71.2402V441.983H89.3887ZM127.842 509.815C121.732 509.815 116.237 508.497 111.355 505.862C106.504 503.226 102.656 499.363 99.8105 494.272C96.9954 489.151 95.5879 482.892 95.5879 475.495C95.5879 468.038 97.0254 461.749 99.9004 456.627C102.775 451.506 106.654 447.643 111.535 445.038C116.417 442.402 121.852 441.084 127.842 441.084C132.064 441.084 135.958 441.668 139.521 442.836C143.085 443.974 146.2 445.667 148.865 447.913C151.561 450.129 153.717 452.854 155.334 456.088C156.951 459.293 157.939 462.976 158.299 467.139H139.881C139.761 465.612 139.417 464.219 138.848 462.961C138.309 461.704 137.545 460.625 136.557 459.727C135.598 458.829 134.43 458.14 133.053 457.661C131.705 457.152 130.148 456.897 128.381 456.897C125.356 456.897 122.781 457.646 120.654 459.143C118.558 460.611 116.971 462.737 115.893 465.522C114.814 468.277 114.275 471.601 114.275 475.495C114.275 479.568 114.829 482.982 115.938 485.737C117.046 488.492 118.633 490.558 120.699 491.936C122.796 493.314 125.326 494.002 128.291 494.002C129.968 494.002 131.465 493.793 132.783 493.374C134.101 492.954 135.254 492.34 136.242 491.532C137.23 490.723 138.024 489.75 138.623 488.612C139.252 487.474 139.671 486.186 139.881 484.749H158.299C158.089 487.594 157.296 490.499 155.918 493.463C154.57 496.398 152.624 499.109 150.078 501.594C147.562 504.05 144.448 506.042 140.734 507.569C137.051 509.066 132.753 509.815 127.842 509.815ZM164.408 508.917V441.983H182.557V469.026H183.455L203.58 441.983H224.783L202.143 471.811L225.322 508.917H203.58L188.576 483.85L182.557 491.667V508.917H164.408ZM267.639 441.983H285.787V484.838C285.787 489.93 284.574 494.347 282.148 498.09C279.723 501.804 276.339 504.679 271.996 506.715C267.654 508.722 262.607 509.725 256.857 509.725C251.107 509.725 246.061 508.722 241.719 506.715C237.406 504.679 234.037 501.804 231.611 498.09C229.215 494.347 228.018 489.93 228.018 484.838V441.983H246.166V483.311C246.166 485.407 246.63 487.264 247.559 488.881C248.487 490.469 249.745 491.726 251.332 492.655C252.949 493.553 254.791 494.002 256.857 494.002C258.954 494.002 260.811 493.553 262.428 492.655C264.045 491.726 265.318 490.469 266.246 488.881C267.174 487.264 267.639 485.407 267.639 483.311V441.983ZM292.256 508.917V441.983H321.096C326.067 441.983 330.41 442.971 334.123 444.948C337.867 446.894 340.771 449.65 342.838 453.213C344.934 456.777 345.982 460.94 345.982 465.702C345.982 470.493 344.919 474.641 342.793 478.145C340.667 481.619 337.687 484.314 333.854 486.231C330.02 488.118 325.558 489.061 320.467 489.061H303.217V474.956H316.783C318.939 474.956 320.781 474.581 322.309 473.833C323.836 473.054 325.004 471.976 325.812 470.598C326.621 469.221 327.025 467.588 327.025 465.702C327.025 463.755 326.621 462.108 325.812 460.76C325.004 459.383 323.836 458.334 322.309 457.616C320.781 456.897 318.939 456.538 316.783 456.538H310.404V508.917H292.256Z" fill="#473B34"/>
<path d="M59.0664 592.815C52.987 592.815 47.4766 591.497 42.5352 588.862C37.6237 586.226 33.7305 582.363 30.8555 577.272C27.9805 572.151 26.543 565.892 26.543 558.495C26.543 551.038 27.9805 544.749 30.8555 539.627C33.7305 534.506 37.6237 530.643 42.5352 528.038C47.4766 525.402 52.987 524.084 59.0664 524.084C65.1458 524.084 70.6413 525.402 75.5527 528.038C80.4642 530.643 84.3574 534.506 87.2324 539.627C90.1374 544.749 91.5898 551.038 91.5898 558.495C91.5898 565.922 90.1374 572.196 87.2324 577.317C84.3574 582.408 80.4642 586.271 75.5527 588.907C70.6413 591.512 65.1458 592.815 59.0664 592.815ZM59.0664 577.002C62.0911 577.002 64.6217 576.299 66.6582 574.891C68.7246 573.454 70.2819 571.357 71.3301 568.602C72.3783 565.847 72.9023 562.478 72.9023 558.495C72.9023 554.482 72.3783 551.097 71.3301 548.342C70.2819 545.557 68.7246 543.461 66.6582 542.053C64.6217 540.616 62.0911 539.897 59.0664 539.897C56.0716 539.897 53.541 540.616 51.4746 542.053C49.4382 543.461 47.8809 545.557 46.8027 548.342C45.7546 551.097 45.2305 554.482 45.2305 558.495C45.2305 562.478 45.7546 565.847 46.8027 568.602C47.8809 571.357 49.4382 573.454 51.4746 574.891C53.541 576.299 56.0716 577.002 59.0664 577.002ZM97.7891 591.917V524.983H126.629C131.6 524.983 135.943 525.896 139.656 527.723C143.4 529.52 146.305 532.125 148.371 535.54C150.467 538.924 151.516 542.982 151.516 547.713C151.516 552.505 150.452 556.548 148.326 559.842C146.2 563.137 143.22 565.622 139.387 567.299C135.553 568.976 131.091 569.815 126 569.815H108.75V555.709H122.316C124.473 555.709 126.314 555.44 127.842 554.901C129.369 554.362 130.537 553.508 131.346 552.34C132.154 551.172 132.559 549.63 132.559 547.713C132.559 545.797 132.154 544.239 131.346 543.042C130.537 541.844 129.369 540.96 127.842 540.391C126.314 539.822 124.473 539.538 122.316 539.538H115.938V591.917H97.7891ZM133.996 591.917L117.645 561.19H136.961L153.762 591.917H133.996ZM182.871 591.917H164.543V576.463H182.152C185.477 576.463 188.307 575.939 190.643 574.891C193.008 573.843 194.805 572.016 196.033 569.411C197.261 566.775 197.875 563.137 197.875 558.495C197.875 553.823 197.246 550.184 195.988 547.579C194.76 544.943 192.934 543.101 190.508 542.053C188.082 540.975 185.117 540.436 181.613 540.436H164.273V524.983H182.602C189.49 524.983 195.434 526.331 200.436 529.026C205.437 531.691 209.3 535.525 212.025 540.526C214.751 545.527 216.113 551.517 216.113 558.495C216.113 565.443 214.751 571.417 212.025 576.418C209.33 581.42 205.497 585.253 200.525 587.918C195.554 590.584 189.669 591.917 182.871 591.917ZM175.234 524.983V591.917H157.086V524.983H175.234ZM222.312 591.917V524.983H270.559V539.627H240.461V550.948H268.043V565.233H240.461V577.272H270.379V591.917H222.312ZM277.387 591.917V524.983H306.227C311.198 524.983 315.54 525.896 319.254 527.723C322.997 529.52 325.902 532.125 327.969 535.54C330.065 538.924 331.113 542.982 331.113 547.713C331.113 552.505 330.05 556.548 327.924 559.842C325.798 563.137 322.818 565.622 318.984 567.299C315.151 568.976 310.689 569.815 305.598 569.815H288.348V555.709H301.914C304.07 555.709 305.912 555.44 307.439 554.901C308.967 554.362 310.135 553.508 310.943 552.34C311.752 551.172 312.156 549.63 312.156 547.713C312.156 545.797 311.752 544.239 310.943 543.042C310.135 541.844 308.967 540.96 307.439 540.391C305.912 539.822 304.07 539.538 301.914 539.538H295.535V591.917H277.387ZM313.594 591.917L297.242 561.19H316.559L333.359 591.917H313.594Z" fill="#908985"/>
<path d="M105.381 674.917H85.7949L107.896 607.983H132.693L154.795 674.917H135.209L120.564 626.401H120.025L105.381 674.917ZM101.787 648.502H138.623V662.069H101.787V648.502ZM159.018 674.917V607.983H187.857C192.829 607.983 197.171 608.971 200.885 610.948C204.628 612.894 207.533 615.65 209.6 619.213C211.696 622.777 212.744 626.94 212.744 631.702C212.744 636.493 211.681 640.641 209.555 644.145C207.428 647.619 204.449 650.314 200.615 652.231C196.782 654.118 192.32 655.061 187.229 655.061H169.979V640.956H183.545C185.701 640.956 187.543 640.581 189.07 639.833C190.598 639.054 191.766 637.976 192.574 636.598C193.383 635.221 193.787 633.588 193.787 631.702C193.787 629.755 193.383 628.108 192.574 626.76C191.766 625.383 190.598 624.334 189.07 623.616C187.543 622.897 185.701 622.538 183.545 622.538H177.166V674.917H159.018ZM217.236 674.917V607.983H246.076C251.048 607.983 255.39 608.971 259.104 610.948C262.847 612.894 265.752 615.65 267.818 619.213C269.915 622.777 270.963 626.94 270.963 631.702C270.963 636.493 269.9 640.641 267.773 644.145C265.647 647.619 262.667 650.314 258.834 652.231C255.001 654.118 250.538 655.061 245.447 655.061H228.197V640.956H241.764C243.92 640.956 245.762 640.581 247.289 639.833C248.816 639.054 249.984 637.976 250.793 636.598C251.602 635.221 252.006 633.588 252.006 631.702C252.006 629.755 251.602 628.108 250.793 626.76C249.984 625.383 248.816 624.334 247.289 623.616C245.762 622.897 243.92 622.538 241.764 622.538H235.385V674.917H217.236Z" fill="#B5B1AE"/>
</g>
<defs>
<clipPath id="clip0_2827_1758">
<rect width="356.912" height="772.833" fill="white"/>
</clipPath>
</defs>
</svg>
