<svg width="18" height="18" viewBox="0 0 18 18" fill="none" xmlns="http://www.w3.org/2000/svg">
<path d="M4.90887 1.22729C3.75743 1.36259 2.96509 1.64856 2.36534 2.25299C1.22705 3.40018 1.22705 5.24655 1.22705 8.93931C1.22705 12.632 1.22705 14.4784 2.36534 15.6256C3.50363 16.7727 5.33568 16.7727 8.99978 16.7727C12.6638 16.7727 14.4959 16.7727 15.6343 15.6256C16.7725 14.4784 16.7725 12.632 16.7725 8.93931C16.7725 5.24655 16.7725 3.40018 15.6343 2.25299C15.0344 1.64856 14.2421 1.36259 13.0907 1.22729" stroke="white" stroke-width="1.5" stroke-linecap="round" stroke-linejoin="round"/>
<path d="M6.95459 5.72729C7.35675 6.14105 8.42715 7.77275 9.00004 7.77275M9.00004 7.77275C9.57294 7.77275 10.6434 6.14105 11.0455 5.72729M9.00004 7.77275V1.22729" stroke="white" stroke-width="1.5" stroke-linecap="round" stroke-linejoin="round"/>
<path d="M16.7725 10.2273H12.7424C12.0534 10.2273 11.5121 10.803 11.2085 11.4114C10.8786 12.0724 10.218 12.6818 8.99978 12.6818C7.78159 12.6818 7.12101 12.0724 6.79113 11.4114C6.48749 10.803 5.94614 10.2273 5.25714 10.2273H1.22705" stroke="white" stroke-width="1.5" stroke-linejoin="round"/>
</svg>
