<svg width="16" height="15" viewBox="0 0 16 15" fill="none" xmlns="http://www.w3.org/2000/svg">
<path d="M2.02547 13.1856L2.52692 12.6279L2.02547 13.1856ZM1.04426 11.4885L0.310691 11.6447L1.04426 11.4885ZM12.6748 5.91463L12.0255 6.29004L12.6748 5.91463ZM14.9557 11.4885L14.2222 11.3324L14.9557 11.4885ZM13.9745 13.1856L13.4731 12.6279L13.9745 13.1856ZM8.98122 1.15519L8.74976 1.86858L8.98122 1.15519ZM7.01878 1.15519L6.78732 0.441796L7.01878 1.15519ZM8 10C7.58579 10 7.25 10.3358 7.25 10.75C7.25 11.1642 7.58579 11.5 8 11.5V10.75V10ZM8.01397 11.5C8.42818 11.5 8.76397 11.1642 8.76397 10.75C8.76397 10.3358 8.42818 10 8.01397 10V10.75V11.5ZM7.26397 7.5C7.26397 7.91421 7.59976 8.25 8.01397 8.25C8.42818 8.25 8.76397 7.91421 8.76397 7.5H8.01397H7.26397ZM8.76397 5.875C8.76397 5.46079 8.42818 5.125 8.01397 5.125C7.59976 5.125 7.26397 5.46079 7.26397 5.875H8.01397H8.76397ZM8 14V13.25C6.2931 13.25 5.07344 13.249 4.16449 13.1524C3.2526 13.0555 2.80029 12.8737 2.52692 12.6279L2.02547 13.1856L1.52402 13.7433C2.15646 14.3119 3.00185 14.5373 4.00598 14.644C5.01305 14.751 6.32776 14.75 8 14.75V14ZM3.3252 5.91463L2.67591 5.53923C1.83982 6.9853 1.1815 8.12187 0.770711 9.04642C0.361098 9.96833 0.133606 10.8127 0.310691 11.6447L1.04426 11.4885L1.77782 11.3324C1.70149 10.9737 1.76968 10.4923 2.1415 9.65548C2.51214 8.82129 3.121 7.76619 3.97448 6.29004L3.3252 5.91463ZM2.02547 13.1856L2.52692 12.6279C2.14637 12.2857 1.88421 11.8322 1.77782 11.3324L1.04426 11.4885L0.310691 11.6447C0.483132 12.4548 0.90794 13.1894 1.52402 13.7433L2.02547 13.1856ZM12.6748 5.91463L12.0255 6.29004C12.879 7.76619 13.4879 8.82129 13.8585 9.65548C14.2303 10.4923 14.2985 10.9737 14.2222 11.3324L14.9557 11.4885L15.6893 11.6447C15.8664 10.8127 15.6389 9.96833 15.2293 9.04642C14.8185 8.12187 14.1602 6.9853 13.3241 5.53923L12.6748 5.91463ZM8 14V14.75C9.67224 14.75 10.9869 14.751 11.994 14.644C12.9982 14.5373 13.8435 14.3119 14.476 13.7433L13.9745 13.1856L13.4731 12.6279C13.1997 12.8737 12.7474 13.0555 11.8355 13.1524C10.9266 13.249 9.7069 13.25 8 13.25V14ZM14.9557 11.4885L14.2222 11.3324C14.1158 11.8322 13.8536 12.2857 13.4731 12.6279L13.9745 13.1856L14.476 13.7433C15.0921 13.1894 15.5169 12.4548 15.6893 11.6447L14.9557 11.4885ZM12.6748 5.91463L13.3241 5.53923C12.488 4.09315 11.8314 2.95558 11.235 2.13808C10.6402 1.3228 10.0219 0.704353 9.21268 0.441796L8.98122 1.15519L8.74976 1.86858C9.09975 1.98213 9.48346 2.2823 10.0232 3.02216C10.5614 3.7598 11.172 4.8139 12.0255 6.29004L12.6748 5.91463ZM3.3252 5.91463L3.97448 6.29004C4.82796 4.8139 5.43859 3.7598 5.97676 3.02216C6.51654 2.2823 6.90025 1.98213 7.25024 1.86858L7.01878 1.15519L6.78732 0.441796C5.97809 0.704353 5.35979 1.3228 4.76498 2.13808C4.16855 2.95558 3.51201 4.09315 2.67591 5.53923L3.3252 5.91463ZM8.98122 1.15519L9.21268 0.441796C8.4245 0.186068 7.5755 0.186068 6.78732 0.441796L7.01878 1.15519L7.25024 1.86858C7.73753 1.71047 8.26247 1.71047 8.74976 1.86858L8.98122 1.15519ZM8 10.75V11.5H8.01397V10.75V10H8V10.75ZM8.01397 7.5H8.76397V5.875H8.01397H7.26397V7.5H8.01397Z" fill="#F30C0C"/>
</svg>
